<svg width="504" height="478" viewBox="0 0 504 478" fill="none" xmlns="http://www.w3.org/2000/svg">
<g filter="url(#filter0_d_52_1139)">
<path d="M430.49 145.32L417.56 456.58C417.25 464.08 411.08 470 403.57 470H22C14.27 470 8 463.74 8 456V77.59C8 68.92 15.8 62.33 24.35 63.79L130.87 81.92L310.18 112.44L418.85 130.94C425.8 132.12 430.78 138.28 430.49 145.32Z" fill="url(#paint0_linear_52_1139)"/>
</g>
<path d="M429.99 145.29L417.06 456.56C416.76 463.79 410.81 469.5 403.57 469.5H22C14.54 469.5 8.5 463.46 8.5 456V77.5799C8.5 69.2199 16.02 62.8699 24.27 64.2699L418.77 131.42C425.47 132.56 430.28 138.5 429.99 145.29Z" stroke="#7093FF"/>
<mask id="mask0_52_1139" style="mask-type:luminance" maskUnits="userSpaceOnUse" x="288" y="0" width="216" height="397">
<path d="M503.5 0H288.49V397H503.5V0Z" fill="white"/>
</mask>
<g mask="url(#mask0_52_1139)">
<path d="M502.15 2.7C501.41 2.7 500.8 2.1 500.8 1.35C500.8 0.6 501.4 0 502.15 0C502.9 0 503.5 0.6 503.5 1.35C503.5 2.1 502.9 2.7 502.15 2.7Z" fill="#71869D"/>
<path d="M471.82 2.7C471.07 2.7 470.47 2.1 470.47 1.35C470.47 0.6 471.07 0 471.82 0C472.57 0 473.17 0.6 473.17 1.35C473.17 2.1 472.57 2.7 471.82 2.7Z" fill="#71869D"/>
<path d="M441.49 2.7C440.75 2.7 440.14 2.1 440.14 1.35C440.14 0.6 440.74 0 441.49 0C442.24 0 442.84 0.6 442.84 1.35C442.84 2.1 442.24 2.7 441.49 2.7Z" fill="#71869D"/>
<path d="M411.16 2.7C410.42 2.7 409.81 2.1 409.81 1.35C409.81 0.6 410.41 0 411.16 0C411.91 0 412.51 0.6 412.51 1.35C412.51 2.1 411.91 2.7 411.16 2.7Z" fill="#71869D"/>
<path d="M380.83 2.7C380.09 2.7 379.48 2.1 379.48 1.35C379.48 0.6 380.08 0 380.83 0C381.58 0 382.18 0.6 382.18 1.35C382.18 2.1 381.58 2.7 380.83 2.7Z" fill="#71869D"/>
<path d="M350.5 2.7C349.76 2.7 349.15 2.1 349.15 1.35C349.15 0.6 349.75 0 350.5 0C351.25 0 351.85 0.6 351.85 1.35C351.85 2.1 351.25 2.7 350.5 2.7Z" fill="#71869D"/>
<path d="M502.15 33.03C501.41 33.03 500.8 32.43 500.8 31.68C500.8 30.93 501.4 30.33 502.15 30.33C502.9 30.33 503.5 30.93 503.5 31.68C503.5 32.43 502.9 33.03 502.15 33.03Z" fill="#71869D"/>
<path d="M471.82 33.03C471.07 33.03 470.47 32.43 470.47 31.68C470.47 30.93 471.07 30.33 471.82 30.33C472.57 30.33 473.17 30.93 473.17 31.68C473.17 32.43 472.57 33.03 471.82 33.03Z" fill="#71869D"/>
<path d="M441.49 33.03C440.75 33.03 440.14 32.43 440.14 31.68C440.14 30.93 440.74 30.33 441.49 30.33C442.24 30.33 442.84 30.93 442.84 31.68C442.84 32.43 442.24 33.03 441.49 33.03Z" fill="#71869D"/>
<path d="M411.16 33.03C410.42 33.03 409.81 32.43 409.81 31.68C409.81 30.93 410.41 30.33 411.16 30.33C411.91 30.33 412.51 30.93 412.51 31.68C412.51 32.43 411.91 33.03 411.16 33.03Z" fill="#71869D"/>
<path d="M380.83 33.03C380.09 33.03 379.48 32.43 379.48 31.68C379.48 30.93 380.08 30.33 380.83 30.33C381.58 30.33 382.18 30.93 382.18 31.68C382.18 32.43 381.58 33.03 380.83 33.03Z" fill="#71869D"/>
<path d="M350.5 33.03C349.76 33.03 349.15 32.43 349.15 31.68C349.15 30.93 349.75 30.33 350.5 30.33C351.25 30.33 351.85 30.93 351.85 31.68C351.85 32.43 351.25 33.03 350.5 33.03Z" fill="#71869D"/>
<path d="M502.15 63.36C501.41 63.36 500.8 62.76 500.8 62.01C500.8 61.26 501.4 60.66 502.15 60.66C502.9 60.66 503.5 61.26 503.5 62.01C503.5 62.76 502.9 63.36 502.15 63.36Z" fill="#71869D"/>
<path d="M471.82 63.36C471.07 63.36 470.47 62.76 470.47 62.01C470.47 61.26 471.07 60.66 471.82 60.66C472.57 60.66 473.17 61.26 473.17 62.01C473.17 62.76 472.57 63.36 471.82 63.36Z" fill="#71869D"/>
<path d="M441.49 63.36C440.75 63.36 440.14 62.76 440.14 62.01C440.14 61.26 440.74 60.66 441.49 60.66C442.24 60.66 442.84 61.26 442.84 62.01C442.84 62.76 442.24 63.36 441.49 63.36Z" fill="#71869D"/>
<path d="M411.16 63.36C410.42 63.36 409.81 62.76 409.81 62.01C409.81 61.26 410.41 60.66 411.16 60.66C411.91 60.66 412.51 61.26 412.51 62.01C412.51 62.76 411.91 63.36 411.16 63.36Z" fill="#71869D"/>
<path d="M380.83 63.36C380.09 63.36 379.48 62.76 379.48 62.01C379.48 61.26 380.08 60.66 380.83 60.66C381.58 60.66 382.18 61.26 382.18 62.01C382.18 62.76 381.58 63.36 380.83 63.36Z" fill="#71869D"/>
<path d="M350.5 63.36C349.76 63.36 349.15 62.76 349.15 62.01C349.15 61.26 349.75 60.66 350.5 60.66C351.25 60.66 351.85 61.26 351.85 62.01C351.85 62.76 351.25 63.36 350.5 63.36Z" fill="#71869D"/>
<path d="M502.15 93.69C501.41 93.69 500.8 93.09 500.8 92.34C500.8 91.59 501.4 90.99 502.15 90.99C502.9 90.99 503.5 91.59 503.5 92.34C503.5 93.09 502.9 93.69 502.15 93.69Z" fill="#71869D"/>
<path d="M471.82 93.69C471.07 93.69 470.47 93.09 470.47 92.34C470.47 91.59 471.07 90.99 471.82 90.99C472.57 90.99 473.17 91.59 473.17 92.34C473.17 93.09 472.57 93.69 471.82 93.69Z" fill="#71869D"/>
<path d="M441.49 93.69C440.75 93.69 440.14 93.09 440.14 92.34C440.14 91.59 440.74 90.99 441.49 90.99C442.24 90.99 442.84 91.59 442.84 92.34C442.84 93.09 442.24 93.69 441.49 93.69Z" fill="#71869D"/>
<path d="M411.16 93.69C410.42 93.69 409.81 93.09 409.81 92.34C409.81 91.59 410.41 90.99 411.16 90.99C411.91 90.99 412.51 91.59 412.51 92.34C412.51 93.09 411.91 93.69 411.16 93.69Z" fill="#71869D"/>
<path d="M380.83 93.69C380.09 93.69 379.48 93.09 379.48 92.34C379.48 91.59 380.08 90.99 380.83 90.99C381.58 90.99 382.18 91.59 382.18 92.34C382.18 93.09 381.58 93.69 380.83 93.69Z" fill="#71869D"/>
<path d="M350.5 93.69C349.76 93.69 349.15 93.09 349.15 92.34C349.15 91.59 349.75 90.99 350.5 90.99C351.25 90.99 351.85 91.59 351.85 92.34C351.85 93.09 351.25 93.69 350.5 93.69Z" fill="#71869D"/>
<path d="M502.15 124.02C501.41 124.02 500.8 123.42 500.8 122.67C500.8 121.92 501.4 121.32 502.15 121.32C502.9 121.32 503.5 121.92 503.5 122.67C503.5 123.42 502.9 124.02 502.15 124.02Z" fill="#71869D"/>
<path d="M471.82 124.02C471.07 124.02 470.47 123.42 470.47 122.67C470.47 121.92 471.07 121.32 471.82 121.32C472.57 121.32 473.17 121.92 473.17 122.67C473.17 123.42 472.57 124.02 471.82 124.02Z" fill="#71869D"/>
<path d="M441.49 124.02C440.75 124.02 440.14 123.42 440.14 122.67C440.14 121.92 440.74 121.32 441.49 121.32C442.24 121.32 442.84 121.92 442.84 122.67C442.84 123.42 442.24 124.02 441.49 124.02Z" fill="#71869D"/>
<path d="M411.16 124.02C410.42 124.02 409.81 123.42 409.81 122.67C409.81 121.92 410.41 121.32 411.16 121.32C411.91 121.32 412.51 121.92 412.51 122.67C412.51 123.42 411.91 124.02 411.16 124.02Z" fill="#71869D"/>
<path d="M380.83 124.02C380.09 124.02 379.48 123.42 379.48 122.67C379.48 121.92 380.08 121.32 380.83 121.32C381.58 121.32 382.18 121.92 382.18 122.67C382.18 123.42 381.58 124.02 380.83 124.02Z" fill="#71869D"/>
<path d="M350.5 124.02C349.76 124.02 349.15 123.42 349.15 122.67C349.15 121.92 349.75 121.32 350.5 121.32C351.25 121.32 351.85 121.92 351.85 122.67C351.85 123.42 351.25 124.02 350.5 124.02Z" fill="#71869D"/>
<path d="M502.15 154.35C501.41 154.35 500.8 153.75 500.8 153C500.8 152.25 501.4 151.65 502.15 151.65C502.9 151.65 503.5 152.25 503.5 153C503.5 153.75 502.9 154.35 502.15 154.35Z" fill="#71869D"/>
<path d="M471.82 154.35C471.07 154.35 470.47 153.75 470.47 153C470.47 152.25 471.07 151.65 471.82 151.65C472.57 151.65 473.17 152.25 473.17 153C473.17 153.75 472.57 154.35 471.82 154.35Z" fill="#71869D"/>
<path d="M441.49 154.35C440.75 154.35 440.14 153.75 440.14 153C440.14 152.25 440.74 151.65 441.49 151.65C442.24 151.65 442.84 152.25 442.84 153C442.84 153.75 442.24 154.35 441.49 154.35Z" fill="#71869D"/>
<path d="M411.16 154.35C410.42 154.35 409.81 153.75 409.81 153C409.81 152.25 410.41 151.65 411.16 151.65C411.91 151.65 412.51 152.25 412.51 153C412.51 153.75 411.91 154.35 411.16 154.35Z" fill="#71869D"/>
<path d="M380.83 154.35C380.09 154.35 379.48 153.75 379.48 153C379.48 152.25 380.08 151.65 380.83 151.65C381.58 151.65 382.18 152.25 382.18 153C382.18 153.75 381.58 154.35 380.83 154.35Z" fill="#71869D"/>
<path d="M350.5 154.35C349.76 154.35 349.15 153.75 349.15 153C349.15 152.25 349.75 151.65 350.5 151.65C351.25 151.65 351.85 152.25 351.85 153C351.85 153.75 351.25 154.35 350.5 154.35Z" fill="#71869D"/>
<path d="M502.15 184.68C501.41 184.68 500.8 184.08 500.8 183.33C500.8 182.58 501.4 181.98 502.15 181.98C502.9 181.98 503.5 182.58 503.5 183.33C503.5 184.08 502.9 184.68 502.15 184.68Z" fill="#71869D"/>
<path d="M471.82 184.68C471.07 184.68 470.47 184.08 470.47 183.33C470.47 182.58 471.07 181.98 471.82 181.98C472.57 181.98 473.17 182.58 473.17 183.33C473.17 184.08 472.57 184.68 471.82 184.68Z" fill="#71869D"/>
<path d="M441.49 184.68C440.75 184.68 440.14 184.08 440.14 183.33C440.14 182.58 440.74 181.98 441.49 181.98C442.24 181.98 442.84 182.58 442.84 183.33C442.84 184.08 442.24 184.68 441.49 184.68Z" fill="#71869D"/>
<path d="M411.16 184.68C410.42 184.68 409.81 184.08 409.81 183.33C409.81 182.58 410.41 181.98 411.16 181.98C411.91 181.98 412.51 182.58 412.51 183.33C412.51 184.08 411.91 184.68 411.16 184.68Z" fill="#71869D"/>
<path d="M380.83 184.68C380.09 184.68 379.48 184.08 379.48 183.33C379.48 182.58 380.08 181.98 380.83 181.98C381.58 181.98 382.18 182.58 382.18 183.33C382.18 184.08 381.58 184.68 380.83 184.68Z" fill="#71869D"/>
<path d="M350.5 184.68C349.76 184.68 349.15 184.08 349.15 183.33C349.15 182.58 349.75 181.98 350.5 181.98C351.25 181.98 351.85 182.58 351.85 183.33C351.85 184.08 351.25 184.68 350.5 184.68Z" fill="#71869D"/>
<path d="M502.15 215.01C501.41 215.01 500.8 214.41 500.8 213.66C500.8 212.91 501.4 212.31 502.15 212.31C502.9 212.31 503.5 212.91 503.5 213.66C503.5 214.41 502.9 215.01 502.15 215.01Z" fill="#71869D"/>
<path d="M471.82 215.01C471.07 215.01 470.47 214.41 470.47 213.66C470.47 212.91 471.07 212.31 471.82 212.31C472.57 212.31 473.17 212.91 473.17 213.66C473.17 214.41 472.57 215.01 471.82 215.01Z" fill="#71869D"/>
<path d="M441.49 215.01C440.75 215.01 440.14 214.41 440.14 213.66C440.14 212.91 440.74 212.31 441.49 212.31C442.24 212.31 442.84 212.91 442.84 213.66C442.84 214.41 442.24 215.01 441.49 215.01Z" fill="#71869D"/>
<path d="M411.16 215.01C410.42 215.01 409.81 214.41 409.81 213.66C409.81 212.91 410.41 212.31 411.16 212.31C411.91 212.31 412.51 212.91 412.51 213.66C412.51 214.41 411.91 215.01 411.16 215.01Z" fill="#71869D"/>
<path d="M380.83 215.01C380.09 215.01 379.48 214.41 379.48 213.66C379.48 212.91 380.08 212.31 380.83 212.31C381.58 212.31 382.18 212.91 382.18 213.66C382.18 214.41 381.58 215.01 380.83 215.01Z" fill="#71869D"/>
<path d="M350.5 215.01C349.76 215.01 349.15 214.41 349.15 213.66C349.15 212.91 349.75 212.31 350.5 212.31C351.25 212.31 351.85 212.91 351.85 213.66C351.85 214.41 351.25 215.01 350.5 215.01Z" fill="#71869D"/>
<path d="M502.15 245.35C501.41 245.35 500.8 244.75 500.8 244C500.8 243.25 501.4 242.65 502.15 242.65C502.9 242.65 503.5 243.25 503.5 244C503.5 244.75 502.9 245.35 502.15 245.35Z" fill="#71869D"/>
<path d="M471.82 245.35C471.07 245.35 470.47 244.75 470.47 244C470.47 243.25 471.07 242.65 471.82 242.65C472.57 242.65 473.17 243.25 473.17 244C473.17 244.75 472.57 245.35 471.82 245.35Z" fill="#71869D"/>
<path d="M441.49 245.35C440.75 245.35 440.14 244.75 440.14 244C440.14 243.25 440.74 242.65 441.49 242.65C442.24 242.65 442.84 243.25 442.84 244C442.84 244.75 442.24 245.35 441.49 245.35Z" fill="#71869D"/>
<path d="M411.16 245.35C410.42 245.35 409.81 244.75 409.81 244C409.81 243.25 410.41 242.65 411.16 242.65C411.91 242.65 412.51 243.25 412.51 244C412.51 244.75 411.91 245.35 411.16 245.35Z" fill="#71869D"/>
<path d="M380.83 245.35C380.09 245.35 379.48 244.75 379.48 244C379.48 243.25 380.08 242.65 380.83 242.65C381.58 242.65 382.18 243.25 382.18 244C382.18 244.75 381.58 245.35 380.83 245.35Z" fill="#71869D"/>
<path d="M350.5 245.35C349.76 245.35 349.15 244.75 349.15 244C349.15 243.25 349.75 242.65 350.5 242.65C351.25 242.65 351.85 243.25 351.85 244C351.85 244.75 351.25 245.35 350.5 245.35Z" fill="#71869D"/>
<path d="M502.15 275.68C501.41 275.68 500.8 275.08 500.8 274.33C500.8 273.58 501.4 272.98 502.15 272.98C502.9 272.98 503.5 273.58 503.5 274.33C503.5 275.08 502.9 275.68 502.15 275.68Z" fill="#71869D"/>
<path d="M471.82 275.68C471.07 275.68 470.47 275.08 470.47 274.33C470.47 273.58 471.07 272.98 471.82 272.98C472.57 272.98 473.17 273.58 473.17 274.33C473.17 275.08 472.57 275.68 471.82 275.68Z" fill="#71869D"/>
<path d="M441.49 275.68C440.75 275.68 440.14 275.08 440.14 274.33C440.14 273.58 440.74 272.98 441.49 272.98C442.24 272.98 442.84 273.58 442.84 274.33C442.84 275.08 442.24 275.68 441.49 275.68Z" fill="#71869D"/>
<path d="M411.16 275.68C410.42 275.68 409.81 275.08 409.81 274.33C409.81 273.58 410.41 272.98 411.16 272.98C411.91 272.98 412.51 273.58 412.51 274.33C412.51 275.08 411.91 275.68 411.16 275.68Z" fill="#71869D"/>
<path d="M380.83 275.68C380.09 275.68 379.48 275.08 379.48 274.33C379.48 273.58 380.08 272.98 380.83 272.98C381.58 272.98 382.18 273.58 382.18 274.33C382.18 275.08 381.58 275.68 380.83 275.68Z" fill="#71869D"/>
<path d="M350.5 275.68C349.76 275.68 349.15 275.08 349.15 274.33C349.15 273.58 349.75 272.98 350.5 272.98C351.25 272.98 351.85 273.58 351.85 274.33C351.85 275.08 351.25 275.68 350.5 275.68Z" fill="#71869D"/>
<path d="M502.15 306.01C501.41 306.01 500.8 305.41 500.8 304.66C500.8 303.91 501.4 303.31 502.15 303.31C502.9 303.31 503.5 303.91 503.5 304.66C503.5 305.41 502.9 306.01 502.15 306.01Z" fill="#71869D"/>
<path d="M471.82 306.01C471.07 306.01 470.47 305.41 470.47 304.66C470.47 303.91 471.07 303.31 471.82 303.31C472.57 303.31 473.17 303.91 473.17 304.66C473.17 305.41 472.57 306.01 471.82 306.01Z" fill="#71869D"/>
<path d="M441.49 306.01C440.75 306.01 440.14 305.41 440.14 304.66C440.14 303.91 440.74 303.31 441.49 303.31C442.24 303.31 442.84 303.91 442.84 304.66C442.84 305.41 442.24 306.01 441.49 306.01Z" fill="#71869D"/>
<path d="M411.16 306.01C410.42 306.01 409.81 305.41 409.81 304.66C409.81 303.91 410.41 303.31 411.16 303.31C411.91 303.31 412.51 303.91 412.51 304.66C412.51 305.41 411.91 306.01 411.16 306.01Z" fill="#71869D"/>
<path d="M380.83 306.01C380.09 306.01 379.48 305.41 379.48 304.66C379.48 303.91 380.08 303.31 380.83 303.31C381.58 303.31 382.18 303.91 382.18 304.66C382.18 305.41 381.58 306.01 380.83 306.01Z" fill="#71869D"/>
<path d="M350.5 306.01C349.76 306.01 349.15 305.41 349.15 304.66C349.15 303.91 349.75 303.31 350.5 303.31C351.25 303.31 351.85 303.91 351.85 304.66C351.85 305.41 351.25 306.01 350.5 306.01Z" fill="#71869D"/>
<path d="M320.17 2.7C319.43 2.7 318.82 2.1 318.82 1.35C318.82 0.6 319.42 0 320.17 0C320.92 0 321.52 0.6 321.52 1.35C321.52 2.1 320.92 2.7 320.17 2.7Z" fill="#71869D"/>
<path d="M289.84 2.7C289.1 2.7 288.49 2.1 288.49 1.35C288.49 0.6 289.09 0 289.84 0C290.59 0 291.19 0.6 291.19 1.35C291.19 2.1 290.59 2.7 289.84 2.7Z" fill="#71869D"/>
<path d="M320.17 33.03C319.43 33.03 318.82 32.43 318.82 31.68C318.82 30.93 319.42 30.33 320.17 30.33C320.92 30.33 321.52 30.93 321.52 31.68C321.52 32.43 320.92 33.03 320.17 33.03Z" fill="#71869D"/>
<path d="M289.84 33.03C289.1 33.03 288.49 32.43 288.49 31.68C288.49 30.93 289.09 30.33 289.84 30.33C290.59 30.33 291.19 30.93 291.19 31.68C291.19 32.43 290.59 33.03 289.84 33.03Z" fill="#71869D"/>
<path d="M320.17 63.36C319.43 63.36 318.82 62.76 318.82 62.01C318.82 61.26 319.42 60.66 320.17 60.66C320.92 60.66 321.52 61.26 321.52 62.01C321.52 62.76 320.92 63.36 320.17 63.36Z" fill="#71869D"/>
<path d="M289.84 63.36C289.1 63.36 288.49 62.76 288.49 62.01C288.49 61.26 289.09 60.66 289.84 60.66C290.59 60.66 291.19 61.26 291.19 62.01C291.19 62.76 290.59 63.36 289.84 63.36Z" fill="#71869D"/>
<path d="M320.17 93.69C319.43 93.69 318.82 93.09 318.82 92.34C318.82 91.59 319.42 90.99 320.17 90.99C320.92 90.99 321.52 91.59 321.52 92.34C321.52 93.09 320.92 93.69 320.17 93.69Z" fill="#71869D"/>
<path d="M289.84 93.69C289.1 93.69 288.49 93.09 288.49 92.34C288.49 91.59 289.09 90.99 289.84 90.99C290.59 90.99 291.19 91.59 291.19 92.34C291.19 93.09 290.59 93.69 289.84 93.69Z" fill="#71869D"/>
<path d="M320.17 124.02C319.43 124.02 318.82 123.42 318.82 122.67C318.82 121.92 319.42 121.32 320.17 121.32C320.92 121.32 321.52 121.92 321.52 122.67C321.52 123.42 320.92 124.02 320.17 124.02Z" fill="#71869D"/>
<path d="M289.84 124.02C289.1 124.02 288.49 123.42 288.49 122.67C288.49 121.92 289.09 121.32 289.84 121.32C290.59 121.32 291.19 121.92 291.19 122.67C291.19 123.42 290.59 124.02 289.84 124.02Z" fill="#71869D"/>
<path d="M320.17 154.35C319.43 154.35 318.82 153.75 318.82 153C318.82 152.25 319.42 151.65 320.17 151.65C320.92 151.65 321.52 152.25 321.52 153C321.52 153.75 320.92 154.35 320.17 154.35Z" fill="#71869D"/>
<path d="M289.84 154.35C289.1 154.35 288.49 153.75 288.49 153C288.49 152.25 289.09 151.65 289.84 151.65C290.59 151.65 291.19 152.25 291.19 153C291.19 153.75 290.59 154.35 289.84 154.35Z" fill="#71869D"/>
<path d="M320.17 184.68C319.43 184.68 318.82 184.08 318.82 183.33C318.82 182.58 319.42 181.98 320.17 181.98C320.92 181.98 321.52 182.58 321.52 183.33C321.52 184.08 320.92 184.68 320.17 184.68Z" fill="#71869D"/>
<path d="M289.84 184.68C289.1 184.68 288.49 184.08 288.49 183.33C288.49 182.58 289.09 181.98 289.84 181.98C290.59 181.98 291.19 182.58 291.19 183.33C291.19 184.08 290.59 184.68 289.84 184.68Z" fill="#71869D"/>
<path d="M320.17 215.01C319.43 215.01 318.82 214.41 318.82 213.66C318.82 212.91 319.42 212.31 320.17 212.31C320.92 212.31 321.52 212.91 321.52 213.66C321.52 214.41 320.92 215.01 320.17 215.01Z" fill="#71869D"/>
<path d="M289.84 215.01C289.1 215.01 288.49 214.41 288.49 213.66C288.49 212.91 289.09 212.31 289.84 212.31C290.59 212.31 291.19 212.91 291.19 213.66C291.19 214.41 290.59 215.01 289.84 215.01Z" fill="#71869D"/>
<path d="M320.17 245.35C319.43 245.35 318.82 244.75 318.82 244C318.82 243.25 319.42 242.65 320.17 242.65C320.92 242.65 321.52 243.25 321.52 244C321.52 244.75 320.92 245.35 320.17 245.35Z" fill="#71869D"/>
<path d="M289.84 245.35C289.1 245.35 288.49 244.75 288.49 244C288.49 243.25 289.09 242.65 289.84 242.65C290.59 242.65 291.19 243.25 291.19 244C291.19 244.75 290.59 245.35 289.84 245.35Z" fill="#71869D"/>
<path d="M320.17 275.68C319.43 275.68 318.82 275.08 318.82 274.33C318.82 273.58 319.42 272.98 320.17 272.98C320.92 272.98 321.52 273.58 321.52 274.33C321.52 275.08 320.92 275.68 320.17 275.68Z" fill="#71869D"/>
<path d="M289.84 275.68C289.1 275.68 288.49 275.08 288.49 274.33C288.49 273.58 289.09 272.98 289.84 272.98C290.59 272.98 291.19 273.58 291.19 274.33C291.19 275.08 290.59 275.68 289.84 275.68Z" fill="#71869D"/>
<path d="M320.17 306.01C319.43 306.01 318.82 305.41 318.82 304.66C318.82 303.91 319.42 303.31 320.17 303.31C320.92 303.31 321.52 303.91 321.52 304.66C321.52 305.41 320.92 306.01 320.17 306.01Z" fill="#71869D"/>
<path d="M289.84 306.01C289.1 306.01 288.49 305.41 288.49 304.66C288.49 303.91 289.09 303.31 289.84 303.31C290.59 303.31 291.19 303.91 291.19 304.66C291.19 305.41 290.59 306.01 289.84 306.01Z" fill="#71869D"/>
<path d="M502.15 336.34C501.41 336.34 500.8 335.74 500.8 334.99C500.8 334.24 501.4 333.64 502.15 333.64C502.9 333.64 503.5 334.24 503.5 334.99C503.5 335.74 502.9 336.34 502.15 336.34Z" fill="#71869D"/>
<path d="M471.82 336.34C471.07 336.34 470.47 335.74 470.47 334.99C470.47 334.24 471.07 333.64 471.82 333.64C472.57 333.64 473.17 334.24 473.17 334.99C473.17 335.74 472.57 336.34 471.82 336.34Z" fill="#71869D"/>
<path d="M441.49 336.34C440.75 336.34 440.14 335.74 440.14 334.99C440.14 334.24 440.74 333.64 441.49 333.64C442.24 333.64 442.84 334.24 442.84 334.99C442.84 335.74 442.24 336.34 441.49 336.34Z" fill="#71869D"/>
<path d="M411.16 336.34C410.42 336.34 409.81 335.74 409.81 334.99C409.81 334.24 410.41 333.64 411.16 333.64C411.91 333.64 412.51 334.24 412.51 334.99C412.51 335.74 411.91 336.34 411.16 336.34Z" fill="#71869D"/>
<path d="M380.83 336.34C380.09 336.34 379.48 335.74 379.48 334.99C379.48 334.24 380.08 333.64 380.83 333.64C381.58 333.64 382.18 334.24 382.18 334.99C382.18 335.74 381.58 336.34 380.83 336.34Z" fill="#71869D"/>
<path d="M350.5 336.34C349.76 336.34 349.15 335.74 349.15 334.99C349.15 334.24 349.75 333.64 350.5 333.64C351.25 333.64 351.85 334.24 351.85 334.99C351.85 335.74 351.25 336.34 350.5 336.34Z" fill="#71869D"/>
<path d="M502.15 366.67C501.41 366.67 500.8 366.07 500.8 365.32C500.8 364.57 501.4 363.97 502.15 363.97C502.9 363.97 503.5 364.57 503.5 365.32C503.5 366.07 502.9 366.67 502.15 366.67Z" fill="#71869D"/>
<path d="M471.82 366.67C471.07 366.67 470.47 366.07 470.47 365.32C470.47 364.57 471.07 363.97 471.82 363.97C472.57 363.97 473.17 364.57 473.17 365.32C473.17 366.07 472.57 366.67 471.82 366.67Z" fill="#71869D"/>
<path d="M441.49 366.67C440.75 366.67 440.14 366.07 440.14 365.32C440.14 364.57 440.74 363.97 441.49 363.97C442.24 363.97 442.84 364.57 442.84 365.32C442.84 366.07 442.24 366.67 441.49 366.67Z" fill="#71869D"/>
<path d="M411.16 366.67C410.42 366.67 409.81 366.07 409.81 365.32C409.81 364.57 410.41 363.97 411.16 363.97C411.91 363.97 412.51 364.57 412.51 365.32C412.51 366.07 411.91 366.67 411.16 366.67Z" fill="#71869D"/>
<path d="M380.83 366.67C380.09 366.67 379.48 366.07 379.48 365.32C379.48 364.57 380.08 363.97 380.83 363.97C381.58 363.97 382.18 364.57 382.18 365.32C382.18 366.07 381.58 366.67 380.83 366.67Z" fill="#71869D"/>
<path d="M350.5 366.67C349.76 366.67 349.15 366.07 349.15 365.32C349.15 364.57 349.75 363.97 350.5 363.97C351.25 363.97 351.85 364.57 351.85 365.32C351.85 366.07 351.25 366.67 350.5 366.67Z" fill="#71869D"/>
<path d="M502.15 397C501.41 397 500.8 396.4 500.8 395.65C500.8 394.9 501.4 394.3 502.15 394.3C502.9 394.3 503.5 394.9 503.5 395.65C503.5 396.4 502.9 397 502.15 397Z" fill="#71869D"/>
<path d="M471.82 397C471.07 397 470.47 396.4 470.47 395.65C470.47 394.9 471.07 394.3 471.82 394.3C472.57 394.3 473.17 394.9 473.17 395.65C473.17 396.4 472.57 397 471.82 397Z" fill="#71869D"/>
<path d="M441.49 397C440.75 397 440.14 396.4 440.14 395.65C440.14 394.9 440.74 394.3 441.49 394.3C442.24 394.3 442.84 394.9 442.84 395.65C442.84 396.4 442.24 397 441.49 397Z" fill="#71869D"/>
<path d="M411.16 397C410.42 397 409.81 396.4 409.81 395.65C409.81 394.9 410.41 394.3 411.16 394.3C411.91 394.3 412.51 394.9 412.51 395.65C412.51 396.4 411.91 397 411.16 397Z" fill="#71869D"/>
<path d="M380.83 397C380.09 397 379.48 396.4 379.48 395.65C379.48 394.9 380.08 394.3 380.83 394.3C381.58 394.3 382.18 394.9 382.18 395.65C382.18 396.4 381.58 397 380.83 397Z" fill="#71869D"/>
<path d="M350.5 397C349.76 397 349.15 396.4 349.15 395.65C349.15 394.9 349.75 394.3 350.5 394.3C351.25 394.3 351.85 394.9 351.85 395.65C351.85 396.4 351.25 397 350.5 397Z" fill="#71869D"/>
<path d="M320.17 336.34C319.43 336.34 318.82 335.74 318.82 334.99C318.82 334.24 319.42 333.64 320.17 333.64C320.92 333.64 321.52 334.24 321.52 334.99C321.52 335.74 320.92 336.34 320.17 336.34Z" fill="#71869D"/>
<path d="M289.84 336.34C289.1 336.34 288.49 335.74 288.49 334.99C288.49 334.24 289.09 333.64 289.84 333.64C290.59 333.64 291.19 334.24 291.19 334.99C291.19 335.74 290.59 336.34 289.84 336.34Z" fill="#71869D"/>
<path d="M320.17 366.67C319.43 366.67 318.82 366.07 318.82 365.32C318.82 364.57 319.42 363.97 320.17 363.97C320.92 363.97 321.52 364.57 321.52 365.32C321.52 366.07 320.92 366.67 320.17 366.67Z" fill="#71869D"/>
<path d="M289.84 366.67C289.1 366.67 288.49 366.07 288.49 365.32C288.49 364.57 289.09 363.97 289.84 363.97C290.59 363.97 291.19 364.57 291.19 365.32C291.19 366.07 290.59 366.67 289.84 366.67Z" fill="#71869D"/>
<path d="M320.17 397C319.43 397 318.82 396.4 318.82 395.65C318.82 394.9 319.42 394.3 320.17 394.3C320.92 394.3 321.52 394.9 321.52 395.65C321.52 396.4 320.92 397 320.17 397Z" fill="#71869D"/>
<path d="M289.84 397C289.1 397 288.49 396.4 288.49 395.65C288.49 394.9 289.09 394.3 289.84 394.3C290.59 394.3 291.19 394.9 291.19 395.65C291.19 396.4 290.59 397 289.84 397Z" fill="#71869D"/>
</g>
<path d="M430.49 145.32L424.47 290.14L423.31 318.26L417.56 456.58C417.25 464.08 411.08 470 403.57 470H263.83C263.74 469.83 263.65 469.67 263.56 469.5C246.06 437.53 223.92 417.2 183.01 406.02C93.1701 381.47 180.57 323.55 189.14 315.64C178.81 324.74 38.6201 400.57 106.98 255.69C129.43 208.12 134.47 158.5 130.9 112.94C130.9 112.84 130.88 95.84 130.87 81.92L310.18 112.44L418.85 130.94C425.8 132.12 430.78 138.28 430.49 145.32Z" fill="#BCCCFF"/>
<path style="mix-blend-mode:color-dodge" d="M424.47 290.14L423.31 318.26C369.72 318.24 322.01 318.2 322.01 318.2C316.22 318.39 314.03 318.54 317.07 315.08C319.08 312.79 322.59 311.03 325.52 310.35C339.97 306.96 352.96 311.18 366.66 312.42C376.65 313.33 379.92 303.65 385 296.75C391.54 287.88 400.8 285 411.56 286.65C413.19 286.9 418.8 288.8 424.47 290.14Z" fill="url(#paint1_linear_52_1139)"/>
<path d="M411.36 163.84L155.46 228.68L202.33 255.33L411.36 163.84Z" fill="white"/>
<path d="M411.36 163.84L202.33 255.33L193.29 311.07L411.36 163.84Z" fill="#DDDDDD"/>
<path d="M220.05 278.11L193.29 311.07L232.53 299.61L220.05 278.11Z" fill="#C3C3C3"/>
<path style="mix-blend-mode:multiply" d="M220.05 278.11L216.52 304.29L232.53 299.61L220.05 278.11Z" fill="#BABABA"/>
<path d="M256.58 341.63L220.05 278.11L411.36 163.84L256.58 341.63Z" fill="white"/>
<path d="M246.32 281.9C244.71 283.4 244.36 286.2 245.53 288.16L258.18 309.42C259.34 311.37 261.64 311.86 263.33 310.48L275.99 300.14C277.8 298.66 278.3 295.78 277.07 293.72L267.1 276.96L260.76 282.65C259.9 283.42 258.72 283.23 258.12 282.22L253.78 274.93L246.32 281.91V281.9ZM255.31 273.49L259.67 280.81L265.99 275.09L255.31 273.48V273.49ZM258.96 292.06L262.46 293.48V288.99C262.47 288.04 263.12 287.25 263.9 287.22C264.69 287.19 265.34 287.93 265.33 288.88L265.3 294.63L269.85 296.47C270.6 296.78 270.98 297.74 270.69 298.63C270.4 299.52 269.57 299.99 268.83 299.68L265.28 298.23L265.26 302.65C265.26 303.57 264.62 304.32 263.84 304.33C263.06 304.34 262.43 303.6 262.44 302.69V297.07L258.01 295.26C257.29 294.96 256.91 294.02 257.17 293.14C257.43 292.26 258.23 291.78 258.96 292.08V292.06Z" fill="#4D648D"/>
<path d="M8 77.59V456C8 463.74 14.27 470 22 470H403.57C411.08 470 417.25 464.08 417.56 456.58L430.49 145.32C430.78 138.28 425.8 132.12 418.85 130.94L310.18 112.44L24.35 63.79C15.8 62.33 8 68.92 8 77.59Z" stroke="#7093FF" stroke-miterlimit="10"/>
<path d="M429.99 145.29L417.06 456.56C416.76 463.79 410.81 469.5 403.57 469.5H22C14.54 469.5 8.5 463.46 8.5 456V77.5799C8.5 69.2199 16.02 62.8699 24.27 64.2699L418.77 131.42C425.47 132.56 430.28 138.5 429.99 145.29Z" stroke="#7093FF"/>
<path d="M183.5 320C134.18 353.94 111.58 381.8 61.7499 376.91C53.7499 376.12 45.5999 374.1 39.2599 369.15C32.9299 364.2 28.7999 355.83 30.6599 348.01C32.0699 342.1 36.9099 337.14 42.7799 335.6C54.7099 332.46 69.9499 344.78 75.9799 354.32C81.7999 363.52 82.5899 374.47 79.5099 384.76C74.1899 402.58 33.04 418.49 11 420.5" stroke="#7093FF" stroke-linecap="round" stroke-linejoin="round" stroke-dasharray="3 3"/>
<path style="mix-blend-mode:color-dodge" d="M386.32 416.47C387.59 415.01 383.59 412.57 378.77 412.68C372.19 412.83 372.19 396.74 360.44 402.9C357.38 404.49 351.38 401.4 349.15 399.34C349.01 399.21 348.87 399.07 348.73 398.93C345.09 395.08 344.29 389.85 341.5 385.53C337.8 379.79 331.63 378.13 325.19 377.11C298.4 372.88 294.64 389.4 294.17 398.06C293.92 402.63 278.79 397 276.42 396.63C269.29 395.53 263.16 397.44 258.82 403.32C255.45 407.89 253.29 414.3 246.67 413.7C237.59 412.88 228.99 410.08 219.41 412.32C217.47 412.77 215.15 413.94 213.81 415.46C211.8 417.75 213.25 417.65 217.09 417.52C217.09 417.52 380.36 417.65 381.58 417.52C384.38 417.227 385.96 416.877 386.32 416.47Z" fill="url(#paint2_linear_52_1139)"/>
<path style="mix-blend-mode:color-dodge" d="M314.94 154.96C316.15 153.57 312.34 151.24 307.75 151.35C301.49 151.49 301.49 136.18 290.3 142.04C287.39 143.56 281.67 140.61 279.56 138.65C279.42 138.52 279.29 138.39 279.16 138.25C275.7 134.58 274.93 129.61 272.28 125.49C268.76 120.03 262.88 118.45 256.75 117.48C231.25 113.45 227.67 129.17 227.22 137.42C226.98 141.77 212.58 136.41 210.32 136.06C203.53 135.02 197.69 136.83 193.57 142.43C190.37 146.78 188.31 152.88 182.01 152.31C173.37 151.53 165.18 148.86 156.06 151C154.22 151.43 152 152.54 150.73 153.99C148.82 156.17 150.2 156.07 153.85 155.96C153.85 155.96 309.24 156.08 310.41 155.96C313.077 155.68 314.58 155.347 314.92 154.96H314.94Z" fill="url(#paint3_linear_52_1139)"/>
<rect x="25.5" y="91.5" width="94" height="94" rx="47" fill="white" stroke="#7093FF" stroke-width="3"/>
<path fill-rule="evenodd" clip-rule="evenodd" d="M40 126.5C40 125.672 40.8954 125 42 125H62C63.1046 125 64 125.672 64 126.5C64 127.328 63.1046 128 62 128H42C40.8954 128 40 127.328 40 126.5Z" fill="url(#paint4_linear_52_1139)"/>
<path fill-rule="evenodd" clip-rule="evenodd" d="M36 139.5C36 138.672 36.8581 138 37.9167 138H57.0833C58.1419 138 59 138.672 59 139.5C59 140.328 58.1419 141 57.0833 141H37.9167C36.8581 141 36 140.328 36 139.5Z" fill="url(#paint5_linear_52_1139)"/>
<path fill-rule="evenodd" clip-rule="evenodd" d="M40 152.5C40 151.672 40.8954 151 42 151H62C63.1046 151 64 151.672 64 152.5C64 153.328 63.1046 154 62 154H42C40.8954 154 40 153.328 40 152.5Z" fill="url(#paint6_linear_52_1139)"/>
<path d="M103.438 139.596C103.438 139.572 103.438 139.549 103.437 139.526C103.437 139.434 103.434 139.341 103.431 139.25C103.425 139.082 103.417 138.915 103.407 138.749C103.403 138.672 103.399 138.596 103.393 138.52C103.39 138.477 103.387 138.433 103.383 138.389C103.383 138.381 103.382 138.375 103.381 138.368C103.374 138.266 103.366 138.164 103.356 138.062C103.345 137.95 103.335 137.838 103.322 137.727C103.308 137.603 103.295 137.481 103.278 137.359C103.273 137.315 103.267 137.27 103.261 137.225C103.252 137.154 103.242 137.082 103.231 137.012C103.227 136.982 103.223 136.952 103.218 136.922C103.204 136.83 103.19 136.737 103.174 136.645C103.157 136.538 103.138 136.432 103.119 136.327C103.109 136.266 103.097 136.207 103.087 136.147C103.082 136.123 103.077 136.097 103.071 136.072C103.043 135.922 103.013 135.773 102.98 135.625C102.962 135.542 102.944 135.461 102.925 135.379C102.888 135.217 102.848 135.055 102.806 134.894C102.789 134.826 102.771 134.759 102.754 134.692C102.744 134.657 102.735 134.622 102.725 134.588C102.709 134.529 102.692 134.47 102.676 134.412C102.63 134.251 102.584 134.092 102.534 133.935C102.461 133.697 102.383 133.461 102.3 133.228C102.273 133.151 102.244 133.073 102.216 132.995C102.161 132.84 102.102 132.686 102.04 132.534C102.01 132.457 101.98 132.381 101.949 132.305C101.887 132.153 101.823 132.001 101.757 131.852C101.728 131.785 101.698 131.718 101.668 131.651C101.656 131.624 101.644 131.597 101.631 131.57C101.606 131.514 101.581 131.459 101.555 131.404C101.517 131.322 101.478 131.24 101.438 131.159C101.408 131.097 101.378 131.035 101.347 130.972C101.344 130.966 101.34 130.959 101.336 130.952C101.302 130.883 101.268 130.814 101.233 130.746C101.185 130.654 101.138 130.561 101.088 130.47C101.034 130.367 100.979 130.265 100.922 130.163C100.911 130.141 100.898 130.119 100.885 130.097C100.839 130.014 100.791 129.932 100.744 129.85C100.567 129.543 100.381 129.242 100.188 128.946H100.189C99.049 127.189 97.6432 125.623 96.0295 124.302C95.9391 124.227 95.8478 124.154 95.7555 124.081C95.6768 124.019 95.5981 123.958 95.5184 123.897C95.5165 123.895 95.5136 123.893 95.5107 123.891C95.43 123.83 95.3484 123.767 95.2668 123.707C95.1716 123.636 95.0764 123.566 94.9792 123.497C94.8976 123.439 94.816 123.381 94.7334 123.324C94.7227 123.316 94.7111 123.308 94.6994 123.301C94.6149 123.242 94.5294 123.184 94.4439 123.127C94.271 123.012 94.0971 122.899 93.9203 122.789C93.861 122.752 93.8017 122.715 93.7425 122.678C93.7279 122.67 93.7123 122.661 93.6978 122.651C93.6336 122.612 93.5686 122.574 93.5035 122.535C93.3636 122.452 93.2227 122.371 93.0808 122.293C93.0206 122.259 92.9604 122.226 92.9001 122.193C92.8836 122.183 92.8661 122.174 92.8496 122.165C92.6602 122.062 92.4697 121.963 92.2764 121.867C92.1686 121.813 92.0588 121.758 91.949 121.707C91.9334 121.699 91.9179 121.691 91.9024 121.684C91.8547 121.661 91.8062 121.639 91.7586 121.616C91.7139 121.596 91.6702 121.576 91.6255 121.555C91.5973 121.542 91.5691 121.529 91.5409 121.517C91.5283 121.51 91.5157 121.505 91.5021 121.5C91.4535 121.477 91.4049 121.455 91.3563 121.435C91.3175 121.417 91.2786 121.401 91.2398 121.384C91.2262 121.377 91.2126 121.372 91.199 121.366C91.1251 121.334 91.0513 121.303 90.9765 121.272C90.9561 121.264 90.9357 121.255 90.9162 121.247C90.8628 121.225 90.8103 121.203 90.7569 121.182C90.7355 121.173 90.7142 121.165 90.6928 121.157C90.6636 121.145 90.6345 121.134 90.6044 121.122C90.4489 121.061 90.2935 121.002 90.1361 120.946C90.0739 120.923 90.0108 120.9 89.9476 120.878C89.9175 120.866 89.8864 120.856 89.8553 120.846C89.799 120.827 89.7436 120.807 89.6872 120.789C89.6017 120.759 89.5162 120.731 89.4307 120.704C89.3715 120.684 89.3112 120.665 89.252 120.648C89.1762 120.623 89.0994 120.6 89.0227 120.578C88.9479 120.555 88.8741 120.533 88.7992 120.512C88.706 120.486 88.6127 120.459 88.5185 120.434C88.2387 120.357 87.955 120.287 87.6693 120.224C87.5664 120.201 87.4634 120.178 87.3604 120.157C87.1768 120.118 86.9922 120.083 86.8066 120.05C86.7095 120.034 86.6133 120.017 86.5161 120.001C86.4306 119.987 86.3442 119.974 86.2577 119.96C86.2383 119.957 86.2188 119.954 86.1994 119.952C86.11 119.939 86.0206 119.926 85.9303 119.914C85.8331 119.901 85.734 119.889 85.6359 119.877C85.5455 119.867 85.4562 119.856 85.3648 119.847C85.3454 119.844 85.325 119.842 85.3056 119.841C85.2356 119.834 85.1647 119.827 85.0947 119.82C85.052 119.816 85.0102 119.812 84.9675 119.809C84.9043 119.803 84.8412 119.799 84.778 119.794C84.7392 119.791 84.7003 119.788 84.6614 119.786C84.5973 119.781 84.5332 119.776 84.4691 119.773C84.2748 119.761 84.0805 119.752 83.8842 119.746C83.7764 119.742 83.6685 119.739 83.5597 119.738C83.4519 119.736 83.3431 119.735 83.2342 119.735C83.1458 119.735 83.0584 119.736 82.97 119.737C82.901 119.738 82.832 119.739 82.763 119.741C82.7378 119.741 82.7115 119.742 82.6853 119.743C82.6047 119.745 82.524 119.747 82.4434 119.751C82.3569 119.754 82.2695 119.758 82.1821 119.763C82.1102 119.766 82.0392 119.77 81.9683 119.774C81.9265 119.777 81.8848 119.78 81.843 119.783C81.7886 119.786 81.7351 119.79 81.6817 119.795C81.6011 119.801 81.5195 119.807 81.4388 119.814C81.3407 119.823 81.2426 119.833 81.1444 119.842C81.058 119.851 80.9725 119.861 80.887 119.871C80.8355 119.876 80.784 119.882 80.7335 119.889C80.5654 119.909 80.3983 119.932 80.2322 119.957C80.1467 119.97 80.0612 119.983 79.9767 119.997C79.8882 120.01 79.8008 120.026 79.7134 120.042C79.7007 120.043 79.6881 120.045 79.6764 120.047C79.5968 120.062 79.5181 120.076 79.4394 120.092C78.8497 120.203 78.2687 120.341 77.6984 120.503C77.61 120.528 77.5206 120.554 77.4322 120.581C77.4215 120.584 77.4108 120.588 77.3991 120.59C77.2651 120.631 77.131 120.673 76.9979 120.717C76.9717 120.725 76.9454 120.733 76.9192 120.742C76.8395 120.767 76.7608 120.794 76.6821 120.822C76.6025 120.848 76.5238 120.876 76.4451 120.904C76.3761 120.929 76.3071 120.954 76.2382 120.98C76.1837 120.999 76.1293 121.019 76.0759 121.04C75.9865 121.073 75.8981 121.108 75.8097 121.143C75.7475 121.168 75.6853 121.192 75.6241 121.218C75.5095 121.264 75.3958 121.311 75.2831 121.36C75.1957 121.397 75.1092 121.435 75.0218 121.474C74.9353 121.512 74.8498 121.551 74.7633 121.591C74.6847 121.627 74.605 121.665 74.5263 121.703C74.3495 121.786 74.1736 121.874 73.9997 121.964C73.9162 122.007 73.8326 122.051 73.7491 122.095C73.5169 122.218 73.2876 122.346 73.0612 122.478C73.0437 122.489 73.0272 122.499 73.0097 122.508C72.967 122.534 72.9242 122.559 72.8824 122.584C72.7532 122.662 72.624 122.74 72.4958 122.821C72.4297 122.863 72.3636 122.905 72.2976 122.947C72.2947 122.949 72.2908 122.951 72.2859 122.954C72.1994 123.011 72.113 123.067 72.0265 123.125C71.8196 123.263 71.6146 123.406 71.4125 123.552C71.396 123.563 71.3795 123.576 71.3629 123.588C71.3455 123.6 71.328 123.614 71.3105 123.627C71.257 123.665 71.2036 123.704 71.1511 123.744C71.1463 123.747 71.1414 123.751 71.1366 123.755C71.0997 123.782 71.0627 123.81 71.0258 123.838C70.9879 123.866 70.95 123.896 70.9131 123.925C70.8665 123.961 70.8198 123.997 70.7732 124.034C70.7674 124.037 70.7625 124.041 70.7577 124.045C70.7178 124.076 70.678 124.108 70.6382 124.14C70.6061 124.166 70.574 124.191 70.542 124.217L70.5099 124.243C70.4934 124.255 70.4769 124.269 70.4604 124.283C70.438 124.301 70.4147 124.319 70.3924 124.34C70.3836 124.346 70.3749 124.353 70.3671 124.36C70.3302 124.39 70.2942 124.42 70.2583 124.45C70.1728 124.522 70.0873 124.595 70.0028 124.669C69.9853 124.684 69.9688 124.698 69.9523 124.713C69.9299 124.732 69.9085 124.751 69.8862 124.771C69.8318 124.819 69.7774 124.867 69.723 124.916C69.7162 124.922 69.7094 124.928 69.7026 124.934C69.6851 124.95 69.6676 124.965 69.6501 124.982C69.6258 125.003 69.6025 125.025 69.5792 125.047C69.5598 125.063 69.5413 125.081 69.5219 125.099C69.4898 125.129 69.4568 125.159 69.4247 125.19C69.4092 125.203 69.3946 125.218 69.379 125.232C69.3237 125.284 69.2693 125.336 69.2149 125.389C69.1877 125.414 69.1614 125.44 69.1342 125.467C69.1119 125.488 69.0905 125.509 69.0682 125.533C69.0614 125.538 69.0555 125.544 69.0487 125.551C68.9729 125.625 68.8981 125.7 68.8243 125.776C68.8214 125.778 68.8194 125.78 68.8165 125.783C68.7709 125.83 68.7252 125.877 68.6795 125.924C68.6047 126.002 68.5299 126.08 68.4571 126.159C68.4347 126.183 68.4133 126.207 68.391 126.23C68.2929 126.336 68.1967 126.443 68.1015 126.551C68.0743 126.582 68.0461 126.613 68.0189 126.644C67.9266 126.75 67.8353 126.857 67.7449 126.965C67.605 127.13 67.469 127.297 67.3359 127.467C67.1348 127.722 66.9405 127.981 66.7539 128.245C66.683 128.344 66.614 128.444 66.5451 128.544C66.4071 128.745 66.274 128.949 66.1438 129.154C66.0787 129.257 66.0146 129.361 65.9514 129.465C65.7824 129.742 65.6201 130.025 65.4647 130.311C65.3879 130.453 65.3131 130.594 65.2393 130.738L65.2364 130.744C65.1625 130.889 65.0897 131.036 65.0188 131.182C64.9789 131.264 64.9401 131.346 64.9022 131.429C64.874 131.49 64.8458 131.55 64.8177 131.612C64.8128 131.623 64.807 131.635 64.8021 131.648C64.771 131.716 64.7409 131.784 64.7118 131.852C64.6787 131.926 64.6457 132.002 64.6136 132.078C64.5825 132.153 64.5505 132.229 64.5194 132.305C64.4883 132.381 64.4582 132.457 64.4281 132.534C64.3979 132.61 64.3678 132.687 64.3387 132.764C64.3056 132.85 64.2736 132.938 64.2415 133.025C64.2172 133.092 64.1929 133.16 64.1687 133.228C64.1405 133.308 64.1123 133.389 64.0861 133.469C64.0598 133.545 64.0346 133.621 64.0103 133.698C63.9841 133.776 63.9588 133.855 63.9345 133.935C63.9102 134.013 63.8859 134.093 63.8626 134.172C63.8412 134.244 63.8199 134.315 63.7995 134.387C63.7703 134.489 63.7422 134.591 63.714 134.694C63.68 134.825 63.646 134.957 63.6129 135.088C63.5682 135.272 63.5245 135.457 63.4847 135.644C63.4682 135.719 63.4526 135.795 63.4371 135.871C63.4206 135.949 63.405 136.026 63.3905 136.104C63.3885 136.116 63.3856 136.127 63.3837 136.138C63.37 136.21 63.3564 136.282 63.3438 136.354C63.3283 136.441 63.3137 136.528 63.2991 136.616C63.2875 136.686 63.2758 136.756 63.2651 136.826C63.2331 137.034 63.2039 137.243 63.1787 137.454C63.1709 137.51 63.1641 137.566 63.1583 137.624C63.1408 137.774 63.1252 137.926 63.1106 138.077C63.1048 138.146 63.099 138.215 63.0941 138.284C63.0864 138.375 63.0796 138.465 63.0737 138.556C63.0679 138.626 63.064 138.697 63.0601 138.768C63.0543 138.865 63.0494 138.963 63.0456 139.061C63.0426 139.12 63.0407 139.178 63.0388 139.236C63.0329 139.385 63.03 139.534 63.0281 139.682C63.0271 139.77 63.0261 139.856 63.0261 139.944C63.0261 142.036 63.3438 144.055 63.9345 145.954C63.9841 146.112 64.0346 146.269 64.088 146.425C64.2464 146.895 64.4222 147.356 64.6136 147.81C64.6777 147.961 64.7438 148.111 64.8108 148.26C64.9459 148.559 65.0887 148.854 65.2364 149.144C65.3112 149.29 65.387 149.434 65.4647 149.576C65.5813 149.79 65.7018 150.003 65.8261 150.212C65.8679 150.283 65.9097 150.353 65.9514 150.423C66.0777 150.631 66.2079 150.836 66.342 151.039C66.3867 151.107 66.4324 151.175 66.477 151.243C66.5684 151.377 66.6607 151.509 66.7539 151.641C66.8482 151.774 66.9444 151.904 67.0405 152.033C67.1377 152.164 67.2368 152.292 67.3359 152.419C67.5234 152.659 67.7167 152.893 67.914 153.123C68.0461 153.275 68.1802 153.427 68.3162 153.575C68.4532 153.725 68.5911 153.872 68.732 154.016C68.8729 154.161 69.0157 154.304 69.1605 154.445C69.3052 154.586 69.4519 154.724 69.6015 154.861C69.7502 154.997 69.9017 155.131 70.0543 155.263C70.2836 155.46 70.5177 155.653 70.7567 155.841H70.7577C70.8849 155.94 71.0132 156.039 71.1424 156.136H71.1434C71.2726 156.232 71.4028 156.329 71.5349 156.423H71.5359C71.668 156.516 71.8001 156.608 71.9342 156.7C72.0022 156.744 72.0702 156.79 72.1382 156.835C72.3413 156.969 72.5463 157.099 72.7542 157.225C72.8241 157.267 72.8941 157.309 72.965 157.351C73.1739 157.475 73.3867 157.596 73.6004 157.712C73.7432 157.79 73.887 157.866 74.0327 157.94C74.3232 158.088 74.6176 158.231 74.9169 158.366C75.0655 158.433 75.2161 158.499 75.3667 158.563C75.8204 158.755 76.2819 158.93 76.7521 159.089C76.9075 159.142 77.0649 159.193 77.2233 159.242C79.1217 159.833 81.1406 160.151 83.2333 160.151C85.326 160.151 87.3448 159.833 89.2432 159.242C89.4016 159.193 89.559 159.142 89.7144 159.089C90.1847 158.93 90.6461 158.755 91.0999 158.563C91.2504 158.499 91.401 158.433 91.5497 158.366C91.8489 158.231 92.1433 158.088 92.4338 157.94C92.5795 157.866 92.7233 157.79 92.8661 157.712C93.0799 157.596 93.2926 157.475 93.5015 157.351C93.5724 157.309 93.6424 157.267 93.7123 157.225C93.9203 157.099 94.1252 156.969 94.3283 156.835C94.3963 156.79 94.4643 156.744 94.5323 156.7C94.6664 156.608 94.7985 156.516 94.9307 156.423H94.9316C95.0638 156.329 95.1939 156.232 95.3232 156.136H95.3241C95.4533 156.039 95.5816 155.94 95.7089 155.841H95.7098C95.9488 155.653 96.183 155.46 96.4123 155.263C96.5648 155.131 96.7164 154.997 96.865 154.861C97.0146 154.724 97.1613 154.586 97.3061 154.445C97.4508 154.304 97.5937 154.161 97.7345 154.016C97.8754 153.872 98.0134 153.725 98.1504 153.575C98.2864 153.427 98.4204 153.275 98.5526 153.123C98.7498 152.893 98.9431 152.659 99.1306 152.42C99.2317 152.292 99.3298 152.164 99.426 152.034C99.5241 151.904 99.6193 151.774 99.7126 151.642C99.8068 151.509 99.8991 151.377 99.9895 151.243C100.034 151.175 100.08 151.107 100.125 151.039C100.259 150.836 100.389 150.631 100.515 150.423C100.557 150.353 100.599 150.283 100.64 150.212C100.765 150.003 100.885 149.79 101.002 149.576C101.08 149.434 101.155 149.29 101.23 149.144C101.378 148.854 101.521 148.559 101.656 148.26C101.723 148.111 101.789 147.961 101.853 147.81C102.044 147.356 102.22 146.895 102.379 146.425C102.432 146.269 102.482 146.112 102.532 145.954C103.123 144.055 103.44 142.036 103.44 139.944C103.44 139.827 103.439 139.711 103.437 139.596H103.438ZM85.5659 141.498C85.5659 142.79 84.5264 143.83 83.2342 143.83C81.9421 143.83 80.9025 142.79 80.9025 141.498V129.062C80.9025 127.77 81.9421 126.731 83.2342 126.731C84.5264 126.731 85.5659 127.77 85.5659 129.062V141.498Z" fill="#70D4FF"/>
<path d="M102.529 126.604L100.189 128.945C99.0491 127.189 97.6433 125.623 96.0295 124.302L98.1281 122.203C99.3425 120.989 101.315 120.989 102.529 122.203C103.744 123.418 103.744 125.39 102.529 126.604Z" fill="#7093FF"/>
<path d="M83.2344 119.736C77.5887 119.736 72.4842 122.05 68.8176 125.782C71.7974 122.747 75.7263 120.649 80.1254 119.969V116.627H78.571C76.8513 116.627 75.462 115.237 75.462 113.518C75.462 111.798 76.8513 110.409 78.571 110.409H87.8978C89.6174 110.409 91.0067 111.798 91.0067 113.518C91.0067 115.237 89.6174 116.627 87.8978 116.627H86.3433V119.969C88.4477 120.294 90.4413 120.945 92.2765 121.867C89.5562 120.503 86.4852 119.736 83.2344 119.736Z" fill="#7093FF"/>
<defs>
<filter id="filter0_d_52_1139" x="0" y="63.5867" width="430.502" height="414.413" filterUnits="userSpaceOnUse" color-interpolation-filters="sRGB">
<feFlood flood-opacity="0" result="BackgroundImageFix"/>
<feColorMatrix in="SourceAlpha" type="matrix" values="0 0 0 0 0 0 0 0 0 0 0 0 0 0 0 0 0 0 127 0" result="hardAlpha"/>
<feOffset dx="-4" dy="4"/>
<feGaussianBlur stdDeviation="2"/>
<feComposite in2="hardAlpha" operator="out"/>
<feColorMatrix type="matrix" values="0 0 0 0 0 0 0 0 0 0 0 0 0 0 0 0 0 0 0.1 0"/>
<feBlend mode="normal" in2="BackgroundImageFix" result="effect1_dropShadow_52_1139"/>
<feBlend mode="normal" in="SourceGraphic" in2="effect1_dropShadow_52_1139" result="shape"/>
</filter>
<linearGradient id="paint0_linear_52_1139" x1="219.25" y1="63.58" x2="219.25" y2="439.58" gradientUnits="userSpaceOnUse">
<stop stop-color="white"/>
<stop offset="1" stop-color="#FDFDFD"/>
</linearGradient>
<linearGradient id="paint1_linear_52_1139" x1="315.7" y1="302.24" x2="424.47" y2="302.24" gradientUnits="userSpaceOnUse">
<stop stop-color="#FF689C" stop-opacity="0"/>
<stop offset="0.16" stop-color="#FF688E" stop-opacity="0.18"/>
<stop offset="0.58" stop-color="#FF686D" stop-opacity="0.61"/>
<stop offset="0.87" stop-color="#FF6859" stop-opacity="0.89"/>
<stop offset="1" stop-color="#FF6851"/>
</linearGradient>
<linearGradient id="paint2_linear_52_1139" x1="386.56" y1="397" x2="212.92" y2="397" gradientUnits="userSpaceOnUse">
<stop stop-color="#FF6851"/>
<stop offset="0.13" stop-color="#FF6859" stop-opacity="0.89"/>
<stop offset="0.42" stop-color="#FF686D" stop-opacity="0.61"/>
<stop offset="0.84" stop-color="#FF688E" stop-opacity="0.18"/>
<stop offset="1" stop-color="#FF689C" stop-opacity="0"/>
</linearGradient>
<linearGradient id="paint3_linear_52_1139" x1="315.17" y1="136.43" x2="149.9" y2="136.43" gradientUnits="userSpaceOnUse">
<stop stop-color="#FF689C" stop-opacity="0"/>
<stop offset="0.16" stop-color="#FF688E" stop-opacity="0.18"/>
<stop offset="0.58" stop-color="#FF686D" stop-opacity="0.61"/>
<stop offset="0.87" stop-color="#FF6859" stop-opacity="0.89"/>
<stop offset="1" stop-color="#FF6851"/>
</linearGradient>
<linearGradient id="paint4_linear_52_1139" x1="64" y1="126.5" x2="39.3333" y2="126.5" gradientUnits="userSpaceOnUse">
<stop stop-color="#7093FF"/>
<stop offset="1" stop-color="#7093FF" stop-opacity="0"/>
</linearGradient>
<linearGradient id="paint5_linear_52_1139" x1="60.2778" y1="139.5" x2="36.6389" y2="139.5" gradientUnits="userSpaceOnUse">
<stop stop-color="#7093FF"/>
<stop offset="1" stop-color="#7093FF" stop-opacity="0"/>
</linearGradient>
<linearGradient id="paint6_linear_52_1139" x1="64.6667" y1="152.5" x2="39.3333" y2="152.5" gradientUnits="userSpaceOnUse">
<stop stop-color="#7093FF"/>
<stop offset="1" stop-color="#7093FF" stop-opacity="0"/>
</linearGradient>
</defs>
</svg>
