<?xml version="1.0" encoding="UTF-8"?>
<svg id="Capa_2" data-name="Capa 2" xmlns="http://www.w3.org/2000/svg" viewBox="0 0 54.64 36.67">
  <defs>
    <style>
      .cls-1 {
        fill: #377dff;
      }

      .cls-2 {
        fill: #fff;
      }

      .cls-3 {
        fill: #c3d8ff;
      }
    </style>
  </defs>
  <g id="Capa_1-2" data-name="Capa 1">
    <g>
      <path class="cls-3" d="M48.98,6.39v19.67c-3.53,0-6.39,2.86-6.39,6.39H6.39c0-3.53-2.86-6.39-6.39-6.39V6.39c3.53,0,6.39-2.86,6.39-6.39h36.2c0,3.53,2.86,6.39,6.39,6.39Z"/>
      <path class="cls-1" d="M48.98,26.06v6.39s-6.39,0-6.39,0c0-3.53,2.86-6.39,6.39-6.39Z"/>
      <path class="cls-1" d="M48.98,0v6.39c-3.53,0-6.39-2.86-6.39-6.39h6.39Z"/>
      <path class="cls-1" d="M6.39,0c0,3.53-2.86,6.39-6.39,6.39V0s6.39,0,6.39,0Z"/>
      <path class="cls-1" d="M6.39,32.45H0s0-6.39,0-6.39c3.53,0,6.39,2.86,6.39,6.39Z"/>
      <ellipse class="cls-2" cx="23.78" cy="16.23" rx="8.27" ry="12.4"/>
      <g>
        <rect class="cls-3" x="34.16" y="16.19" width="16.86" height="16.86" rx="5.18" ry="5.18"/>
        <path class="cls-1" d="M42.59,12.58c-6.65,0-12.04,5.39-12.04,12.04s5.39,12.04,12.04,12.04,12.04-5.39,12.04-12.04c0-6.65-5.39-12.04-12.04-12.04ZM48.71,26.93h-3.82v3.82c0,1.27-1.04,2.31-2.31,2.31s-2.31-1.04-2.31-2.31v-3.82h-3.82c-1.27,0-2.31-1.04-2.31-2.31s1.04-2.31,2.31-2.31h3.82v-3.82c0-1.27,1.04-2.31,2.31-2.31s2.31,1.04,2.31,2.31v3.82h3.82c1.27,0,2.31,1.04,2.31,2.31s-1.04,2.31-2.31,2.31Z"/>
      </g>
    </g>
  </g>
</svg>