<?xml version="1.0" encoding="UTF-8"?>
<svg id="Capa_2" xmlns="http://www.w3.org/2000/svg" viewBox="0 0 178.87 178.87">
  <defs>
    <style>
      .cls-1 {
        fill: #4871b7;
      }

      .cls-2 {
        fill: #fff;
      }

      .cls-3 {
        fill: #c5d7f0;
      }
    </style>
  </defs>
  <g id="Capa_1-2" data-name="Capa_1">
    <g>
      <path class="cls-2" d="M15.73,73.77C7.3,73.5,0,80.77,0,89.43c0,8.66,7.29,15.93,15.73,15.67,8.42.22,15.68-6.99,15.71-15.58.03-8.71-7.23-15.98-15.71-15.75ZM89.45,52.43c-5.39-.07-9.63,2.22-12.88,6.4-4.73,6.08-4.1,15.07,1.22,20.58,2.75,2.84,6.1,4.29,9.85,5.07-9.33.78-17.02,4.69-22.91,12.03-6.02,7.51-7.29,16.27-6.63,25.49.18,2.56,2.43,4.45,5.02,4.46,8.78.03,17.56-.02,26.33-.04,8.78.02,17.56.07,26.34.04,2.65,0,5.01-2.02,4.99-4.64-.04-4.4,0-8.89-.87-13.16-2.39-11.59-12.44-22.73-28.33-24.17,0-.09,0-.17.01-.26,3.89-.38,7.02-2.21,9.69-5,4.24-4.44,5.45-11.44,2.92-17.2-2.6-5.91-8.51-9.76-14.73-9.6ZM89.44,147.48c-3.54-.02-7.08-.1-10.62-.03-2.85.05-5.06,2.29-5.08,5.15-.05,7.03-.05,14.05,0,21.08.02,2.84,2.25,5.11,5.08,5.16,3.54.06,7.08-.02,10.62-.03,3.54.02,7.08.1,10.62.03,2.85-.05,5.05-2.28,5.08-5.16.05-7.03.05-14.05,0-21.08-.02-2.88-2.22-5.11-5.08-5.16-3.54-.07-7.08.02-10.62.03ZM133.37,154.64c2.75-2.21,5.41-4.19,7.9-6.36,7.98-6.99,14.26-15.29,18.86-24.85,1.39-2.89.38-5.99-2.32-7.29-2.64-1.27-5.57-.2-7.07,2.59-.22.41-.41.84-.62,1.25-5.18,10.14-12.4,18.52-21.72,25.08-.35.25-.73.44-1.26.75.16-1.8.29-3.36.45-4.92.34-3.33-1.51-5.88-4.59-6.3-2.78-.37-5.41,1.69-5.79,4.82-.62,5.2-1.12,10.41-1.56,15.63-.22,2.62,1.02,4.5,3.47,5.45,4.87,1.89,9.75,3.75,14.66,5.53,2.83,1.03,5.69-.33,6.73-3.02,1.03-2.67-.24-5.59-3-6.76-1.33-.57-2.71-1.04-4.16-1.6ZM154.73,45.26c-3.44-3.94-6.65-7.93-10.2-11.59-6.09-6.27-13.22-11.18-21.11-14.94-3.39-1.62-7.11.17-7.72,3.65-.44,2.54.83,4.65,3.67,6.05,10.11,4.99,18.45,12.08,25.1,21.16.45.62.87,1.27,1.47,2.13-1.94-.18-3.5-.31-5.06-.47-3.32-.34-5.88,1.53-6.28,4.61-.36,2.77,1.71,5.4,4.84,5.77,5.2.62,10.41,1.12,15.63,1.55,2.61.22,4.48-1.03,5.44-3.49,1.87-4.81,3.7-9.65,5.47-14.5,1.08-2.94-.24-5.83-3-6.88-2.75-1.04-5.62.29-6.81,3.19-.52,1.29-1,2.59-1.44,3.75ZM32.9,127.64c.12-.15.25-.31.37-.46,1.54.13,3.07.25,4.61.4,3.49.33,6.05-1.54,6.39-4.67.31-2.86-1.83-5.36-5.1-5.74-5.03-.57-10.07-1.07-15.11-1.5-2.86-.25-4.78,1.04-5.81,3.74-1.79,4.66-3.55,9.34-5.29,14.02-1.13,3.05.09,5.98,2.89,7.08,2.79,1.1,5.68-.28,6.89-3.3.5-1.25.99-2.51,1.56-3.96.5.68.85,1.14,1.18,1.61,7.86,10.95,17.84,19.4,29.97,25.28,2.81,1.36,5.86.41,7.19-2.19,1.35-2.62.34-5.61-2.4-7.12-.41-.22-.83-.43-1.24-.64-6.5-3.27-12.41-7.39-17.45-12.63-3.04-3.16-5.78-6.6-8.65-9.92ZM45.63,24.26c-.58.45-.93.73-1.3.99-5.69,4.01-10.76,8.69-15.22,14.03-4.15,4.98-7.63,10.39-10.43,16.24-.9,1.87-.83,3.73.36,5.46,1.16,1.67,2.81,2.43,4.82,2.2,2.15-.24,3.53-1.54,4.46-3.46,3.9-8.05,9.21-15.06,15.91-20.98,2.28-2.02,4.74-3.83,7.5-6.03-.18,2.12-.31,3.67-.45,5.21-.32,3.4,1.45,5.89,4.52,6.34,2.83.41,5.47-1.7,5.85-4.93.61-5.14,1.1-10.29,1.54-15.44.22-2.62-1.01-4.53-3.43-5.48-4.87-1.9-9.75-3.74-14.65-5.54-2.83-1.03-5.7.28-6.75,2.96-1.08,2.74.23,5.66,3.09,6.85,1.29.53,2.6.99,4.19,1.59Z"/>
      <path class="cls-3" d="M101.31,0c3.02,1.39,3.98,3.78,3.89,7.03-.17,6.16-.04,12.33-.05,18.5,0,3.81-2.12,5.91-5.94,5.91-3.26,0-6.51-.03-9.77-.05,0-10.46,0-20.92,0-31.38h11.88Z"/>
      <path class="cls-3" d="M89.43,0c0,10.46,0,20.92,0,31.38-3.55.02-7.1.1-10.64.03-2.84-.05-5.05-2.32-5.07-5.19-.05-6.98-.02-13.96-.01-20.94,0-2.68,1.69-4.15,3.84-5.29h11.88Z"/>
      <path class="cls-3" d="M163.16,73.77c6.71-.19,13.2,4.63,15.03,11.14.2.7.46,1.39.69,2.08v5.24c-.57,1.43-1.02,2.92-1.74,4.27-2.96,5.58-7.63,8.46-13.97,8.6,0-10.44,0-20.89,0-31.33Z"/>
      <path class="cls-1" d="M89.44,126.43c-8.78.02-17.56.07-26.33.04-2.59,0-4.84-1.9-5.02-4.46-.66-9.22.61-17.99,6.63-25.49,5.89-7.34,13.58-11.25,22.91-12.03.6.04,1.21.07,1.81.11,0,13.95,0,27.89,0,41.84Z"/>
      <path class="cls-1" d="M89.44,126.43c0-13.95,0-27.89,0-41.84.71-.03,1.41-.07,2.12-.1,15.89,1.44,25.94,12.58,28.33,24.17.88,4.27.83,8.76.87,13.16.02,2.63-2.34,4.64-4.99,4.64-8.78.03-17.56-.02-26.34-.04Z"/>
      <path class="cls-1" d="M133.37,154.64c1.46.55,2.83,1.03,4.16,1.6,2.75,1.17,4.02,4.09,3,6.76-1.04,2.69-3.9,4.05-6.73,3.02-4.91-1.78-9.79-3.64-14.66-5.53-2.45-.95-3.69-2.83-3.47-5.45.44-5.22.94-10.43,1.56-15.63.37-3.13,3.01-5.19,5.79-4.82,3.08.41,4.93,2.97,4.59,6.3-.16,1.56-.29,3.12-.45,4.92.53-.31.92-.51,1.26-.75,9.32-6.56,16.53-14.94,21.72-25.08.21-.41.4-.84.62-1.25,1.49-2.79,4.43-3.86,7.07-2.59,2.69,1.3,3.71,4.4,2.32,7.29-4.6,9.56-10.88,17.86-18.86,24.85-2.49,2.18-5.14,4.16-7.9,6.36Z"/>
      <path class="cls-1" d="M154.73,45.26c.44-1.16.91-2.46,1.44-3.75,1.18-2.89,4.06-4.23,6.81-3.19,2.76,1.04,4.07,3.93,3,6.88-1.77,4.85-3.6,9.69-5.47,14.5-.96,2.46-2.83,3.71-5.44,3.49-5.22-.43-10.43-.93-15.63-1.55-3.13-.37-5.2-3-4.84-5.77.4-3.08,2.96-4.95,6.28-4.61,1.56.16,3.12.29,5.06.47-.59-.86-1.01-1.51-1.47-2.13-6.66-9.08-15-16.17-25.1-21.16-2.84-1.4-4.12-3.51-3.67-6.05.61-3.48,4.33-5.27,7.72-3.65,7.89,3.77,15.02,8.68,21.11,14.94,3.56,3.66,6.76,7.65,10.2,11.59Z"/>
      <path class="cls-1" d="M32.9,127.64c2.87,3.32,5.61,6.76,8.65,9.92,5.05,5.24,10.96,9.35,17.45,12.63.42.21.83.41,1.24.64,2.74,1.5,3.75,4.5,2.4,7.12-1.34,2.6-4.38,3.55-7.19,2.19-12.14-5.88-22.11-14.33-29.97-25.28-.33-.46-.68-.92-1.18-1.61-.57,1.45-1.06,2.71-1.56,3.96-1.21,3.02-4.1,4.4-6.89,3.3-2.81-1.11-4.03-4.03-2.89-7.08,1.74-4.68,3.5-9.36,5.29-14.02,1.04-2.7,2.95-3.98,5.81-3.74,5.04.43,10.08.93,15.11,1.5,3.28.37,5.42,2.88,5.1,5.74-.34,3.13-2.9,5-6.39,4.67-1.54-.14-3.07-.27-4.61-.4-.12.15-.25.31-.37.46Z"/>
      <path class="cls-1" d="M45.63,24.26c-1.58-.6-2.9-1.06-4.19-1.59-2.86-1.19-4.17-4.11-3.09-6.85,1.05-2.67,3.93-3.99,6.75-2.96,4.9,1.79,9.79,3.64,14.65,5.54,2.42.94,3.65,2.85,3.43,5.48-.44,5.15-.93,10.3-1.54,15.44-.38,3.23-3.03,5.34-5.85,4.93-3.07-.45-4.85-2.94-4.52-6.34.15-1.54.27-3.09.45-5.21-2.75,2.2-5.21,4.02-7.5,6.03-6.7,5.93-12.01,12.93-15.91,20.98-.93,1.92-2.3,3.22-4.46,3.46-2.01.23-3.67-.54-4.82-2.2-1.2-1.72-1.26-3.58-.36-5.46,2.8-5.84,6.28-11.26,10.43-16.24,4.46-5.34,9.53-10.03,15.22-14.03.37-.26.72-.55,1.3-.99Z"/>
      <path class="cls-3" d="M89.44,147.48c3.54-.02,7.08-.1,10.62-.03,2.85.05,5.05,2.28,5.08,5.16.05,7.03.05,14.05,0,21.08-.02,2.87-2.22,5.1-5.08,5.16-3.54.07-7.08-.02-10.62-.03,0-10.44,0-20.88,0-31.33Z"/>
      <path class="cls-3" d="M89.44,147.48c0,10.44,0,20.88,0,31.33-3.54.02-7.08.1-10.62.03-2.83-.05-5.06-2.31-5.08-5.16-.05-7.03-.05-14.05,0-21.08.02-2.86,2.24-5.1,5.08-5.15,3.54-.06,7.08.02,10.62.03Z"/>
      <path class="cls-3" d="M91.56,84.49c-.71.03-1.41.07-2.12.1-.6-.04-1.21-.07-1.81-.11-3.75-.78-7.1-2.22-9.85-5.07-5.32-5.51-5.95-14.5-1.22-20.58,3.25-4.18,7.49-6.47,12.88-6.4,0,10.53,0,21.06,0,31.67.87.05,1.49.09,2.12.13,0,.09-.01.17-.01.26Z"/>
      <path class="cls-3" d="M91.57,84.23c-.63-.04-1.26-.07-2.12-.13,0-10.61,0-21.14,0-31.67,6.23-.17,12.14,3.68,14.73,9.6,2.53,5.76,1.32,12.76-2.92,17.2-2.66,2.79-5.8,4.62-9.69,5Z"/>
      <path class="cls-3" d="M15.73,105.1C7.29,105.36,0,98.1,0,89.43c0-8.66,7.3-15.93,15.73-15.67,0,10.44,0,20.89,0,31.33Z"/>
      <path class="cls-3" d="M15.73,105.1c0-10.44,0-20.89,0-31.33,8.48-.23,15.74,7.04,15.71,15.75-.03,8.59-7.29,15.8-15.71,15.58Z"/>
      <path class="cls-3" d="M163.16,73.77c0,10.44,0,20.89,0,31.33-8.44.26-15.73-7.01-15.73-15.67,0-8.66,7.3-15.93,15.73-15.67Z"/>
    </g>
  </g>
</svg>