<?xml version="1.0" encoding="UTF-8"?>
<svg id="Capa_2" data-name="Capa 2" xmlns="http://www.w3.org/2000/svg" viewBox="0 0 95.61 95.61">
  <defs>
    <style>
      .cls-1 {
        fill: #377dff;
      }

      .cls-2 {
        fill: #c3d8ff;
      }
    </style>
  </defs>
  <g id="Capa_1-2" data-name="Capa 1">
    <g>
      <path class="cls-2" d="M90.33,0H5.28C2.38,0,0,2.38,0,5.28v85.04c0,2.91,2.38,5.28,5.28,5.28h85.04c2.91,0,5.28-2.38,5.28-5.28V5.28c0-2.91-2.38-5.28-5.28-5.28ZM27.1,89.12H7.53v-15.16h19.57v15.16ZM27.1,62.97H7.53v-15.16h19.57v15.16ZM27.1,36.82H7.53v-15.16h19.57v15.16ZM57.59,89.12h-19.57v-15.16h19.57v15.16ZM57.59,62.97h-19.57v-15.16h19.57v15.16ZM57.59,36.82h-19.57v-15.16h19.57v15.16ZM88.08,89.12h-19.57v-15.16h19.57v15.16ZM88.08,62.97h-19.57v-15.16h19.57v15.16ZM88.08,36.82h-19.57v-15.16h19.57v15.16Z"/>
      <rect class="cls-1" x="0" y="0" width="95.61" height="26.21" rx="5.28" ry="5.28"/>
    </g>
  </g>
</svg>