<?xml version="1.0" encoding="UTF-8"?>
<svg id="Capa_2" data-name="Capa 2" xmlns="http://www.w3.org/2000/svg" viewBox="0 0 94.52 94.5">
  <defs>
    <style>
      .cls-1 {
        fill: #377dff;
      }

      .cls-2 {
        fill: #c3d8ff;
      }
    </style>
  </defs>
  <g id="Capa_1-2" data-name="Capa 1">
    <g>
      <path class="cls-2" d="M4.31.07L89.71,0c3.31-.14,5.71,3.02,4.49,6.09-10.93,11.74-22.74,22.74-33.9,34.31l-.03,49.34c.16,3.8-3.95,6.15-7.05,3.86l-18.11-18.17-.58-1.21c-.6-11.22-.04-22.55-.29-33.81L.89,6.93C-1.33,4.24.9.05,4.31.07Z"/>
      <g>
        <circle class="cls-1" cx="28.35" cy="41.77" r="23.31"/>
        <path class="cls-2" d="M42.32,37.17h-8.45c-.5,0-.91-.41-.91-.91v-8.45c0-.5-.41-.91-.91-.91h-7.4c-.5,0-.91.41-.91.91v8.45c0,.5-.41.91-.91.91h-8.45c-.5,0-.91.41-.91.91v7.4c0,.5.41.91.91.91h8.45c.5,0,.91.41.91.91v8.45c0,.5.41.91.91.91h7.4c.5,0,.91-.41.91-.91v-8.45c0-.5.41-.91.91-.91h8.45c.5,0,.91-.41.91-.91v-7.4c0-.5-.41-.91-.91-.91Z"/>
      </g>
    </g>
  </g>
</svg>