<?xml version="1.0" encoding="UTF-8"?>
<svg id="Capa_2" data-name="Capa 2" xmlns="http://www.w3.org/2000/svg" viewBox="0 0 131.75 95.45">
  <defs>
    <style>
      .cls-1 {
        fill: #377dff;
      }

      .cls-2 {
        fill: #c2d7fe;
      }
    </style>
  </defs>
  <g id="Capa_1-2" data-name="Capa 1">
    <g>
      <path class="cls-2" d="M52.48,1.48c1.86,1.85,1.98,8.67,2.64,9.42.36.41,9.7,3.45,10.24,3.43,3.9-.12,5.28-6.67,12.05-2.15,10.81,7.2-.06,12.23.97,16.45.17.71,3.66,9.44,4.11,9.72,3.65,2.27,12.54-2.88,9.68,11.63-1.12,5.68-8,2.79-10.73,6.81-.42.62-3.32,7.87-3.27,8.4.25,2.6,4.58,5.13,4.2,8.9-.16,1.52-4.77,6.5-6.01,7.23-5.87,3.48-8.25-4.01-12.67-2.9-.72.18-8.19,3.83-8.48,4.2-3.47,4.32,2.26,10.67-10.71,9.59-8.82-.73-3.78-6.53-7.58-9.94-.34-.31-7.67-3.72-8.3-3.88-4.43-1.11-7.93,9.86-15.91-.41-5.76-7.41,2.75-10.45,2.31-13.22-.08-.52-3.82-9.2-4.19-9.57-2.71-2.74-11.61,2.14-10.78-9.56.7-9.85,8.47-5.29,10.84-8.98.69-1.08,3.64-8.54,3.52-9.64-.37-3.43-6.47-5.05-2.7-11.44,6.59-11.17,12.35-.63,17.21-1.38.7-.11,8.78-3.77,9.05-4.18,1.3-1.95.07-7.56,3.81-9.34,2.26-1.08,8.97-.92,10.71.8ZM42.42,69.09c36.26,4.94,35.87-51.52-2.03-44.59-21.36,3.91-22.31,41.27,2.03,44.59Z"/>
      <path class="cls-1" d="M44.77,37.59c12.11-2.5,15.38,16.98,2.77,18.22-11.38,1.12-13.8-15.94-2.77-18.22Z"/>
      <g>
        <path class="cls-1" d="M100.2,47.05c1.35.51,2.96,3.9,3.46,4.13.27.12,5.65-.47,5.92-.6,1.93-.95,1.13-4.55,5.56-3.82,7.06,1.16,2.75,6.15,4.23,8.04.25.32,3.98,3.91,4.27,3.94,2.35.31,5.64-4.3,7.5,3.64.73,3.1-3.38,3.22-3.84,5.85-.07.41.12,4.7.27,4.96.72,1.25,3.47,1.53,4.13,3.51.27.8-.92,4.35-1.37,5-2.16,3.08-5.05-.14-7.02,1.43-.32.25-3.24,3.79-3.3,4.04-.76,2.95,3.56,4.84-3.19,7.25-4.6,1.64-3.38-2.42-6.06-3.27-.24-.08-4.69-.12-5.05-.06-2.48.45-1.74,6.75-8.08,3.41-4.57-2.41-.99-5.87-1.85-7.16-.16-.24-4.01-3.75-4.28-3.85-1.98-.76-5.34,3.71-7.58-2.35-1.89-5.1,3.05-4.58,3.4-6.97.1-.7-.12-5.12-.42-5.64-.96-1.64-4.4-1.07-3.96-5.13.77-7.1,6.06-3.12,8.32-4.61.32-.21,3.55-3.89,3.59-4.16.21-1.27-1.68-3.81-.21-5.55.89-1.05,4.3-2.5,5.56-2.03ZM110.52,83.27c19.32-5.76,6.29-34.01-11.15-21.92-9.84,6.82-1.82,25.79,11.15,21.92Z"/>
        <path class="cls-2" d="M104.54,66.92c5.51-4.01,11.58,5.03,5.53,8.51-5.46,3.15-10.55-4.87-5.53-8.51Z"/>
      </g>
    </g>
  </g>
</svg>