<?xml version="1.0" encoding="UTF-8"?>
<svg id="Capa_2" xmlns="http://www.w3.org/2000/svg" viewBox="0 0 178.6 178.68">
  <defs>
    <style>
      .cls-1 {
        fill: #4871b7;
      }

      .cls-2 {
        fill: #c5d7f0;
      }
    </style>
  </defs>
  <g id="Capa_1-2" data-name="Capa_1">
    <g>
      <path class="cls-2" d="M48.83,0c1.9.82,3.1,2.3,4.06,4.08,1.32,2.45,2.79,4.81,4.15,7.24,1.65,2.96.89,6.01-1.8,7.53-2.63,1.49-5.59.62-7.29-2.21-1.49-2.48-2.91-5.01-4.36-7.52-2.44-4.24-1.76-6.77,2.45-9.13h2.79Z"/>
      <path class="cls-2" d="M132.56,0c4.21,2.36,4.89,4.88,2.45,9.13-1.42,2.46-2.81,4.94-4.26,7.38-1.75,2.95-4.71,3.87-7.39,2.35-2.76-1.57-3.45-4.6-1.71-7.69,1.34-2.37,2.77-4.7,4.06-7.1.96-1.79,2.16-3.26,4.06-4.08h2.79Z"/>
      <path class="cls-2" d="M178.6,80.23c-1.28,2.9-3.48,4.06-6.64,3.87-2.95-.18-5.92-.02-8.88-.04-3.2-.02-5.44-2.25-5.41-5.31.03-2.96,2.29-5.12,5.41-5.14,2.96-.02,5.93.13,8.88-.04,3.17-.19,5.36.98,6.64,3.87v2.79Z"/>
      <path class="cls-1" d="M115.75,146.78h-21.13c-.03-.56-.08-1.12-.08-1.67,0-7.15-.03-14.3.03-21.45,0-.91.34-1.94.85-2.71,5.85-8.87,11.74-17.71,17.66-26.54.8-1.2,1.76-2.31,2.76-3.34,2.83-2.92,5.79-5.73,8.58-8.68,2.06-2.18,1.94-5.18-.09-7.19-2.03-2.02-4.97-2.08-7.2-.07-1.21,1.09-2.33,2.27-3.48,3.43-1.09,1.11-2.15,2.25-3.41,3.55-2.1-2.14-4-4.09-5.92-6.02-3.26-3.26-5.87-3.28-9.09-.05-1.92,1.93-3.81,3.9-5.91,6.06-2.11-2.14-4.04-4.12-6-6.08-3.18-3.17-5.81-3.19-8.96-.03-1.93,1.93-3.81,3.91-5.9,6.07-1.57-1.56-2.98-2.98-4.41-4.39-.91-.9-1.78-1.84-2.75-2.67-2.2-1.89-5.09-1.77-7.06.21-1.97,1.99-2.14,4.94-.16,7.05,2.94,3.13,6.05,6.11,9.06,9.19.77.78,1.48,1.64,2.08,2.55,6.05,9.02,12.07,18.05,18.07,27.1.39.59.73,1.36.73,2.05.05,7.62.03,15.23.03,22.85,0,.22-.05.44-.08.76h-21.28c-.61-2.56-1.11-5.17-1.87-7.7-2.25-7.51-6.43-13.82-12.01-19.29-6.8-6.67-11.61-14.59-14.42-23.7-8.56-27.74,4.03-56.8,30.16-69.33,9.58-4.59,19.74-6.27,30.32-5.15,25.32,2.67,45.35,20.23,50.63,45.06,4.11,19.36-.91,36.53-14.04,51.32-2.78,3.13-5.82,6.04-8.36,9.34-4.37,5.68-6.75,12.23-7.37,19.46Z"/>
      <path class="cls-2" d="M115.42,157.45c.05,4.51.46,8.93-1.91,12.99-2.95,5.06-7.32,7.94-13.15,8.1-7.37.2-14.76.16-22.13.02-8.16-.16-14.82-6.92-15.07-15.09-.06-1.97,0-3.94,0-6.02h52.27Z"/>
      <path class="cls-1" d="M78.69,85.91c2.38,2.42,4.35,4.47,6.36,6.47,2.87,2.85,5.61,2.87,8.46.04,2.05-2.04,4.03-4.14,5.99-6.17,1.39,1.42,2.56,2.6,3.89,3.95-4.56,6.85-9.24,13.87-14.03,21.06-.44-.58-.76-.97-1.04-1.38-4.12-6.18-8.2-12.38-12.38-18.51-.75-1.1-.68-1.74.27-2.6.85-.76,1.52-1.73,2.47-2.85Z"/>
      <path class="cls-2" d="M153.2,47.44c-2.76,0-4.77-1.45-5.47-3.62-.67-2.07-.04-4.57,1.84-5.75,3.34-2.1,6.75-4.09,10.24-5.91,2.29-1.2,5.17-.11,6.5,2.11,1.36,2.26,1,5.3-1.19,6.72-3.4,2.2-6.99,4.12-10.53,6.1-.53.3-1.22.31-1.39.35Z"/>
      <path class="cls-2" d="M17.26,125.92c-2.74.02-4.65-1.33-5.43-3.56-.76-2.17-.13-4.59,1.87-5.85,3.29-2.06,6.65-4.03,10.09-5.84,2.31-1.21,5.17-.19,6.54,2.01,1.36,2.2,1.06,5.33-1.09,6.74-3.44,2.25-7.09,4.17-10.67,6.19-.48.27-1.11.27-1.29.31Z"/>
      <path class="cls-2" d="M25.74,47.65c-.96-.36-1.98-.62-2.87-1.11-2.8-1.54-5.56-3.13-8.3-4.76-2.95-1.75-3.86-4.72-2.33-7.4,1.51-2.66,4.6-3.41,7.55-1.76,2.98,1.67,5.96,3.36,8.88,5.16,2.08,1.29,2.91,3.68,2.25,5.92-.65,2.22-2.74,3.75-5.18,3.95Z"/>
      <path class="cls-2" d="M161.74,126.14c-1.01-.38-2.09-.65-3.03-1.17-2.75-1.5-5.46-3.08-8.15-4.67-3.01-1.78-3.93-4.83-2.31-7.54,1.58-2.64,4.57-3.29,7.59-1.58,2.98,1.69,5.96,3.37,8.86,5.18,2.04,1.27,2.8,3.61,2.14,5.76-.72,2.35-2.64,3.8-5.11,4.02Z"/>
      <path class="cls-2" d="M10.37,84.07c-1.74,0-3.48.03-5.22,0C2.19,84,0,81.75,0,78.84c0-2.91,2.2-5.18,5.15-5.21,3.54-.04,7.08-.04,10.62,0,2.95.04,5.15,2.31,5.15,5.22,0,2.91-2.2,5.16-5.15,5.22-1.8.04-3.6,0-5.4,0Z"/>
    </g>
  </g>
</svg>