<?xml version="1.0" encoding="UTF-8"?>
<svg id="Capa_2" data-name="Capa 2" xmlns="http://www.w3.org/2000/svg" viewBox="0 0 76.01 95.61">
  <defs>
    <style>
      .cls-1 {
        fill: #377dff;
      }

      .cls-2 {
        fill: #3d80fe;
      }

      .cls-3 {
        fill: #c3d8ff;
      }
    </style>
  </defs>
  <g id="Capa_1-2" data-name="Capa 1">
    <g>
      <path class="cls-3" d="M76.01,27.1v62.36c0,3.4-2.75,6.15-6.15,6.15H6.16c-3.4,0-6.16-2.76-6.16-6.16V6.15C0,2.75,2.75,0,6.15,0h42.3l27.56,27.1Z"/>
      <path class="cls-1" d="M48.45,0v22.64c0,2.22,1.78,4.04,4.01,4.07l23.56.38"/>
      <g>
        <path class="cls-2" d="M35.88,36.86c1.22-.12,3.42-.15,4.6,0,3.85.5,9.67,3.8,9.21,8.32-.18,1.82-2.47,3.04-4.2,2.51s-1.58-3.86-5.01-5.08c-1.66-.6-2.69-.81-4.6-.58-2.87.35-5.63,3.37-3.19,5.78,1.12,1.11,2.17.76,3.19,1.12,1.66.58,3.41.74,4.6,1.15,3.74,1.29,9.16,3.11,10.11,7.44,1.67,7.63-2.69,12.44-10.11,13.27-1.26.14-3.32.11-4.6,0-3.79-.34-7.68-2.13-9.69-5.55-1.86-3.16-1.76-8.67,2.99-7.01,1.64.57,1.58,5.41,6.71,6.81,2.07.57,2.28.79,4.6,0,3.06-1.05,4.92-4.2,2.64-6.96-1.02-1.23-1.76-.76-2.64-1.1-1.83-.7-3.37-.71-4.6-1.15-6.07-2.15-12.48-5.25-9.91-13.07,1.23-3.75,6.33-5.56,9.91-5.91Z"/>
        <path class="cls-2" d="M40.48,56.99v8.05c-2.32.79-2.53.57-4.6,0v-9.2c1.24.44,2.77.46,4.6,1.15Z"/>
        <path class="cls-2" d="M40.48,42.61v7.48c-1.19-.41-2.94-.57-4.6-1.15v-6.9c1.91-.23,2.94-.02,4.6.58Z"/>
        <path class="cls-2" d="M40.48,70.8c1.55,9.92-6.14,9.96-4.6,0,1.28.11,3.35.14,4.6,0Z"/>
        <path class="cls-2" d="M40.48,36.86c-1.18-.15-3.38-.12-4.6,0-1.47-9.17,6.08-9.14,4.6,0Z"/>
      </g>
    </g>
  </g>
</svg>