<?xml version="1.0" encoding="UTF-8"?>
<svg id="Capa_2" xmlns="http://www.w3.org/2000/svg" viewBox="0 0 152.25 178.69">
  <defs>
    <style>
      .cls-1 {
        fill: #4871b7;
      }

      .cls-2 {
        fill: #c5d7f0;
      }
    </style>
  </defs>
  <g id="Capa_1-2" data-name="Capa_1">
    <g>
      <path class="cls-1" d="M73.3,178.69c-.26-.58-.85-.53-1.32-.69-16.88-5.94-32.25-14.35-44.73-27.44-10.18-10.68-17.05-23.27-21.28-37.35C2.45,101.45.99,89.36.35,77.14c-.61-11.57-.29-23.14.02-34.7.25-9.17,7.57-17.13,16.73-18.08,6.93-.72,13.85-1.42,20.59-3.37,10.04-2.91,18.98-7.78,26.88-14.6,1.58-1.37,3.11-2.81,4.75-4.09C71.39.67,73.79-.12,76.45.01c.59.61.54,1.38.54,2.13.02,13.51.02,27.02,0,40.53,0,.52-.02,1.04-.16,1.55-.09.31-.24.58-.48.8-.6.46-1.31.4-2,.42-8.68.25-16.56,2.9-23.6,7.97-10.74,7.73-17.04,18.21-18.39,31.35-1.12,10.83,1.34,20.94,7.8,29.89,7.74,10.73,18.23,16.82,31.33,18.49,1.6.2,3.27-.31,4.82.46.25.21.42.48.51.79.23.86.18,1.73.18,2.6,0,12.9,0,25.8,0,38.69,0,1.03.19,2.11-.55,3.01h-3.14Z"/>
      <path class="cls-1" d="M76.44,178.69c0-14.9,0-29.79,0-44.69.8-.7,1.81-.73,2.79-.79,9.38-.54,17.63-3.97,24.85-9.89,9.01-7.38,14.26-16.96,15.72-28.46,1.57-12.42-1.69-23.65-9.58-33.39-7.32-9.04-16.92-14.17-28.38-15.89-.81-.12-1.62-.12-2.43-.16-1.04-.05-2.1-.06-2.96-.79,0-14.88,0-29.76.01-44.63,3.03-.07,5.5,1.23,7.67,3.19,4.27,3.86,8.69,7.52,13.66,10.49,8.12,4.86,16.89,7.79,26.18,9.35,3.9.65,7.85.79,11.76,1.32,8.71,1.18,15.81,9.17,16.14,17.9.39,10.06.5,20.13.22,30.18-.4,14.18-1.92,28.24-6.2,41.87-6.72,21.43-19.39,38.35-38.3,50.57-8.43,5.44-17.46,9.61-26.85,13.04-.73.27-1.6.16-2.2.78h-2.09Z"/>
      <path class="cls-2" d="M76.44,44.65c5.57.38,11.08,1.09,16.25,3.35,15.3,6.67,24.66,18.12,27.37,34.67,3.11,19.01-6.73,36.9-22.2,45.52-5.74,3.2-11.87,5.16-18.47,5.51-.98.05-1.96.2-2.95.3-.12-.09-.25-.18-.37-.27-.36-.48-.51-1.04-.51-1.63.01-9.44-.14-18.88.08-28.31.04-.41.18-.79.4-1.13,6.35-6.54,12.87-12.92,19.31-19.38,1.25-1.25,2.09-2.59,1.97-4.45-.2-3.35-3.72-5.44-6.72-3.94-1.1.55-2.04,1.33-2.9,2.2-3.48,3.51-6.99,6.98-10.47,10.48-.47.48-1.05,1.46-1.56-.02-.17-.81-.13-1.63-.13-2.44,0-12.39,0-24.78,0-37.17,0-1.03-.16-2.11.53-3.03.12-.09.25-.18.37-.27Z"/>
      <path class="cls-2" d="M76.09,103.27c0,10.15-.02,20.31-.02,30.46-24.35.23-44.44-20-44.44-44.41,0-24.4,20.09-44.64,44.44-44.41,0,14.45.02,28.91.03,43.36.1.15.13.31.08.48-2.03,2.47-4.43,4.59-6.68,6.85-.86.87-1.75.74-2.6-.07-1.51-1.45-2.95-2.96-4.45-4.42-2.2-2.13-4.94-2.2-7-.2-1.81,1.75-1.74,4.84.25,6.88,3,3.08,6.04,6.12,9.12,9.12,2.1,2.04,4.7,2.02,6.84.02.98-.91,1.88-1.9,2.85-2.82.44-.42.82-1.03,1.59-.85Z"/>
      <path class="cls-1" d="M76.09,103.27c-1.38,1.33-2.75,2.66-4.13,3.98-2.26,2.16-5.22,2.2-7.45,0-3.11-3.05-6.19-6.13-9.24-9.24-2.07-2.11-2.13-5.42-.21-7.37,2.17-2.21,5.28-2.19,7.6.07,1.49,1.46,3,2.91,4.42,4.44.83.89,1.41.89,2.26.01,2.18-2.24,4.46-4.4,6.7-6.58.45.36.55.89.55,1.41,0,4.22.23,8.45-.13,12.67-.13.2-.25.4-.38.59Z"/>
      <path class="cls-1" d="M76.47,102.68c-.52-.52-.34-1.19-.34-1.81-.04-4.09-.05-8.18-.07-12.28.02-.1.04-.21.04-.31,4.13-4.16,8.22-8.37,12.42-12.47,2.53-2.47,5.77-2.46,7.89-.21,2.06,2.19,1.86,5.35-.55,7.76-6.45,6.45-12.93,12.88-19.39,19.31Z"/>
    </g>
  </g>
</svg>