<?xml version="1.0" encoding="UTF-8"?>
<svg id="Capa_2" data-name="Capa 2" xmlns="http://www.w3.org/2000/svg" viewBox="0 0 95.14 95.45">
  <defs>
    <style>
      .cls-1 {
        fill: #c3d7fe;
      }

      .cls-2 {
        fill: #3b80fe;
      }

      .cls-3 {
        fill: #3d80fe;
      }

      .cls-4 {
        fill: #c3d8ff;
      }
    </style>
  </defs>
  <g id="Capa_1-2" data-name="Capa 1">
    <g>
      <g>
        <path class="cls-1" d="M58.32,60.81l-.06-.07-.67-.7.31-.34c-1.3-.96-2.05-1.55-2.66-2.1-.87-.78-1.44-1.46-2.86-2.96l-.25-.26c-1.37-1.44-4.94-5.52-6.69-3.37-1.39,1.71,1.02,3.19.89,3.97-.2,1.16-8.99,8.21-10.1,10.32-1.48,2.82,1.18,4.85.76,6.5-.33,1.31-6.08,5.44-7.08,7.6-1.02,2.22.8,3.48,2.86,2.41,1.81-.94,5.95-6.65,7.25-6.97,1.65-.42,3.68,2.24,6.5.76,2.11-1.1,9.16-9.89,10.32-10.1.78-.14,2.23,2.27,3.96.89,2.08-1.67-1.28-4.43-2.49-5.59ZM44.72,72.06c-.55.15-3.79-.69-4.02-.92-.23-.23-1.07-3.47-.92-4.02.2-.71,4.05-4.5,4.94-4.26.67.17,4.49,4.07,4.26,4.96-.1.39-3.85,4.12-4.27,4.24Z"/>
        <path class="cls-2" d="M57.9,59.71c-3.27-2.41-3.1-2.53-5.76-5.32.85-.75,4.18-3.51,4.39-4.3.3-1.15-.95-1.41-1.21-2.22-.61-1.94,1.1-3.39,2.82-2.38.5.29,7.91,7.71,8.21,8.21.9,1.52.18,2.96-1.58,2.95-1.43,0-1.87-1.48-2.6-1.35-.53.09-3.67,3.65-4.27,4.41Z"/>
        <path class="cls-2" d="M40.7,71.14c-.23-.23-1.07-3.47-.92-4.02.19-.71,4.05-4.5,4.95-4.26.66.18,4.49,4.07,4.25,4.96-.1.39-3.85,4.12-4.26,4.24-.55.15-3.79-.69-4.02-.92Z"/>
        <polygon class="cls-2" points="52.13 54.39 57.89 59.71 57.59 60.05 55.24 57.61 52.38 54.65 52.13 54.39"/>
      </g>
      <path class="cls-4" d="M92.43,31.92H2.71C1.21,31.92,0,33.14,0,34.63v58.11c0,1.5,1.21,2.71,2.71,2.71h89.72c1.5,0,2.71-1.21,2.71-2.71v-58.11c0-1.5-1.21-2.71-2.71-2.71ZM88.18,85.92c0,1.5-1.21,2.71-2.71,2.71H9.67c-1.5,0-2.71-1.21-2.71-2.71v-44.47c0-1.5,1.21-2.71,2.71-2.71h75.8c1.5,0,2.71,1.21,2.71,2.71v44.47Z"/>
      <g>
        <path class="cls-3" d="M41.63,7.53c-.75-.47-1.62-.71-2.59-.71-.69,0-1.34.13-1.92.39-.59.26-1.1.64-1.52,1.14-.43.5-.76,1.14-1.01,1.91s-.37,1.65-.37,2.61c0,1.97.46,3.49,1.38,4.56.92,1.06,2.08,1.6,3.49,1.6.58,0,1.17-.12,1.78-.36-.37-.27-.82-.55-1.37-.82-.55-.27-.93-.48-1.13-.63-.2-.15-.3-.36-.3-.63,0-.23.1-.44.29-.62.19-.18.41-.27.64-.27.71,0,1.9.59,3.57,1.78.48-.55.84-1.21,1.07-1.96.23-.76.34-1.63.34-2.63,0-1.25-.2-2.34-.61-3.26-.41-.92-.98-1.62-1.74-2.09Z"/>
        <path class="cls-3" d="M89.1,0H6.04C2.71,0,0,2.71,0,6.04v13.95c0,3.34,2.71,6.04,6.04,6.04h83.06c3.34,0,6.04-2.71,6.04-6.04V6.04c0-3.34-2.71-6.04-6.04-6.04ZM48.08,22.7c-.23.25-.51.37-.84.37-.26,0-.59-.09-.96-.26-.38-.17-.82-.42-1.33-.75-.51-.33-1.07-.71-1.68-1.15-1.13.58-2.52.87-4.16.87-1.33,0-2.53-.21-3.58-.64-1.06-.42-1.94-1.04-2.66-1.84-.72-.8-1.26-1.75-1.62-2.85-.36-1.1-.54-2.3-.54-3.59s.19-2.53.57-3.62.93-2.03,1.64-2.81c.72-.77,1.59-1.36,2.62-1.77,1.03-.41,2.2-.61,3.51-.61,1.78,0,3.3.36,4.58,1.08,1.28.72,2.24,1.75,2.89,3.08.66,1.33.98,2.89.98,4.68,0,2.72-.74,4.88-2.21,6.47.51.34,1.06.68,1.66,1,.6.32,1,.58,1.19.77.19.19.29.46.29.81,0,.25-.11.5-.34.75ZM62.36,21.05c-.13.23-.32.41-.56.54-.24.13-.51.2-.82.2-.33,0-.6-.07-.83-.2s-.41-.31-.55-.51c-.14-.2-.4-.6-.78-1.18l-3.02-4.75-3.2,4.89c-.25.39-.43.66-.53.82-.11.16-.23.31-.38.46-.15.15-.32.27-.53.35-.2.09-.44.13-.71.13-.42,0-.77-.13-1.05-.39-.28-.26-.41-.63-.41-1.12,0-.58.28-1.28.85-2.12l3.84-5.6-3.23-4.98c-.3-.48-.53-.9-.68-1.25s-.23-.68-.23-1,.15-.62.44-.88c.29-.26.65-.39,1.07-.39.48,0,.86.14,1.13.43.27.28.64.81,1.12,1.58l2.57,4.16,2.75-4.16c.23-.35.42-.65.58-.9s.31-.46.46-.62c.15-.16.31-.29.5-.37s.4-.12.64-.12c.44,0,.79.13,1.07.39.28.26.42.57.42.93,0,.52-.3,1.23-.9,2.13l-3.38,5.05,3.64,5.6c.33.49.56.9.71,1.22.15.32.22.63.22.92,0,.27-.07.52-.2.75Z"/>
      </g>
    </g>
  </g>
</svg>