<svg width="746" height="466" viewBox="0 0 746 466" fill="none" xmlns="http://www.w3.org/2000/svg">
<g filter="url(#filter0_d_766_6853)">
<rect x="0.5" y="-0.5" width="737" height="457" rx="27.5" transform="matrix(1 0 0 -1 4 457)" fill="url(#paint0_linear_766_6853)" stroke="#B8CDEB"/>
<rect opacity="0.1" x="29.25" y="21.7083" width="688.75" height="414.833" fill="url(#paint1_linear_766_6853)"/>
<path d="M718 21.994H29.25V57.5042H718V21.994Z" fill="#4D648D"/>
<path d="M498.281 29.9299C498.281 28.8156 499.228 27.9123 500.396 27.9123H630.07C631.238 27.9123 632.184 28.8156 632.184 29.9299V48.0885C632.184 49.2028 631.238 50.1062 630.07 50.1062H500.396C499.228 50.1062 498.281 49.2028 498.281 48.0885V29.9299Z" fill="white"/>
<mask id="mask0_766_6853" style="mask-type:alpha" maskUnits="userSpaceOnUse" x="615" y="33" width="12" height="12">
<path d="M626.111 43.0529L624.029 40.971C623.935 40.877 623.808 40.8248 623.674 40.8248H623.334C623.91 40.0877 624.253 39.1606 624.253 38.152C624.253 35.7527 622.308 33.8086 619.909 33.8086C617.509 33.8086 615.564 35.7527 615.564 38.152C615.564 40.5513 617.509 42.4954 619.909 42.4954C620.917 42.4954 621.845 42.1529 622.582 41.5766V41.9169C622.582 42.0506 622.634 42.178 622.728 42.2719L624.81 44.3538C625.007 44.5501 625.324 44.5501 625.518 44.3538L626.109 43.7629C626.306 43.5666 626.306 43.2492 626.111 43.0529ZM619.909 40.8248C618.432 40.8248 617.235 39.6304 617.235 38.152C617.235 36.6756 618.43 35.4791 619.909 35.4791C621.385 35.4791 622.582 36.6736 622.582 38.152C622.582 39.6283 621.387 40.8248 619.909 40.8248Z" fill="white"/>
</mask>
<g mask="url(#mask0_766_6853)">
<path d="M626.111 43.0529L624.029 40.971C623.935 40.877 623.808 40.8248 623.674 40.8248H623.334C623.91 40.0877 624.253 39.1606 624.253 38.152C624.253 35.7527 622.308 33.8086 619.909 33.8086C617.509 33.8086 615.564 35.7527 615.564 38.152C615.564 40.5513 617.509 42.4954 619.909 42.4954C620.917 42.4954 621.845 42.1529 622.582 41.5766V41.9169C622.582 42.0506 622.634 42.178 622.728 42.2719L624.81 44.3538C625.007 44.5501 625.324 44.5501 625.518 44.3538L626.109 43.7629C626.306 43.5666 626.306 43.2492 626.111 43.0529ZM619.909 40.8248C618.432 40.8248 617.235 39.6304 617.235 38.152C617.235 36.6756 618.43 35.4791 619.909 35.4791C621.385 35.4791 622.582 36.6736 622.582 38.152C622.582 39.6283 621.387 40.8248 619.909 40.8248Z" fill="black"/>
<path d="M626.257 33.8086H615.564V44.5011H626.257V33.8086Z" fill="#4D648D"/>
</g>
<path fill-rule="evenodd" clip-rule="evenodd" d="M56.4527 36.5844L53.3159 45.5163C52.9391 46.5894 51.7941 47.1427 50.7587 46.7521C49.7232 46.3615 49.1893 45.175 49.5662 44.1018L52.703 35.17C53.0799 34.0968 54.2248 33.5435 55.2603 33.9341C56.2957 34.3247 56.8296 35.5113 56.4527 36.5844Z" fill="white"/>
<path fill-rule="evenodd" clip-rule="evenodd" d="M64.7602 34.3452L60.7505 45.449C60.3439 46.5751 59.1085 47.1558 57.9913 46.7459C56.874 46.336 56.298 45.0909 56.7046 43.9648L60.7143 32.861C61.1209 31.7349 62.3563 31.1543 63.4735 31.5641C64.5908 31.974 65.1668 33.2191 64.7602 34.3452Z" fill="white"/>
<path fill-rule="evenodd" clip-rule="evenodd" d="M73.0677 33.1021L68.1826 45.476C67.7465 46.5809 66.4214 47.1505 65.2231 46.7484C64.0247 46.3463 63.4068 45.1246 63.843 44.0198L68.728 31.6459C69.1642 30.5411 70.4892 29.9715 71.6876 30.3736C72.8859 30.7757 73.5038 31.9973 73.0677 33.1021Z" fill="white"/>
<path d="M84.5377 43.3132V34.9968H83.7181L81.2807 40.8954L78.7786 34.9968H77.959V43.3132H78.7786V36.9942L80.914 42.005H81.615L83.7181 36.9942V43.3132H84.5377Z" fill="white"/>
<path d="M94.2269 43.3132V42.5189H90.2797V39.5171H93.6445V38.7228H90.2797V35.7911H94.2269V34.9968H89.46V43.3132H94.2269Z" fill="white"/>
<path d="M103.951 39.155C103.951 37.8819 103.951 36.6671 103.271 35.8728C102.754 35.2655 102.117 34.9968 101.254 34.9968H98.6229V43.3132H101.254C102.117 43.3132 102.754 43.0445 103.271 42.4372C103.951 41.6429 103.951 40.4282 103.951 39.155ZM103.131 39.155C103.131 40.3114 103.12 41.3392 102.624 41.9116C102.236 42.3788 101.697 42.5189 101.114 42.5189H99.4426V35.7911H101.114C101.697 35.7911 102.236 35.9312 102.624 36.3985C103.12 36.9708 103.131 37.9987 103.131 39.155Z" fill="white"/>
<path d="M109.395 43.3132V34.9968H108.576V43.3132H109.395Z" fill="white"/>
<path d="M119.989 43.3132V34.9968H119.169V41.6429L115.092 34.9968H114.316V43.3132H115.135V36.6437L119.212 43.3132H119.989Z" fill="white"/>
<path d="M129.678 43.3132V42.5189H125.731V39.5171H129.095V38.7228H125.731V35.7911H129.678V34.9968H124.911V43.3132H129.678Z" fill="white"/>
<path d="M138.55 35.7911V34.9968H133.287V35.7911H135.508V43.3132H136.328V35.7911H138.55Z" fill="white"/>
<path d="M661.327 43.5165C660.721 42.8566 659.587 41.8638 659.587 38.6119C659.587 36.142 657.877 34.1648 655.572 33.6797V33.0172C655.572 32.4555 655.123 32 654.569 32C654.015 32 653.566 32.4555 653.566 33.0172V33.6797C651.261 34.1648 649.552 36.142 649.552 38.6119C649.552 41.8638 648.417 42.8566 647.811 43.5165C647.623 43.7215 647.539 43.9666 647.541 44.2066C647.544 44.728 647.948 45.2239 648.548 45.2239H660.59C661.19 45.2239 661.594 44.728 661.597 44.2066C661.599 43.9666 661.515 43.7212 661.327 43.5165V43.5165ZM649.66 43.698C650.326 42.8089 651.053 41.3352 651.057 38.6304C651.057 38.624 651.055 38.6183 651.055 38.6119C651.055 36.6455 652.628 35.0517 654.569 35.0517C656.51 35.0517 658.083 36.6455 658.083 38.6119C658.083 38.6183 658.081 38.624 658.081 38.6304C658.085 41.3355 658.813 42.8092 659.478 43.698H649.66ZM654.569 48.2755C655.677 48.2755 656.576 47.3648 656.576 46.2411H652.562C652.562 47.3648 653.461 48.2755 654.569 48.2755Z" fill="white"/>
<g clip-path="url(#clip0_766_6853)">
<path d="M689.591 42.0147C688.691 42.0147 688.258 42.5233 686.78 42.5233C685.302 42.5233 684.872 42.0147 683.969 42.0147C681.641 42.0147 679.752 43.9284 679.752 46.287V47.1008C679.752 47.9432 680.427 48.6266 681.258 48.6266H692.302C693.134 48.6266 693.808 47.9432 693.808 47.1008V46.287C693.808 43.9284 691.919 42.0147 689.591 42.0147ZM692.302 47.1008H681.258V46.287C681.258 44.7739 682.475 43.5405 683.969 43.5405C684.427 43.5405 685.17 44.0492 686.78 44.0492C688.402 44.0492 689.13 43.5405 689.591 43.5405C691.085 43.5405 692.302 44.7739 692.302 46.287V47.1008ZM686.78 41.5061C689.274 41.5061 691.298 39.4558 691.298 36.9286C691.298 34.4015 689.274 32.3511 686.78 32.3511C684.286 32.3511 682.262 34.4015 682.262 36.9286C682.262 39.4558 684.286 41.5061 686.78 41.5061ZM686.78 33.877C688.44 33.877 689.792 35.247 689.792 36.9286C689.792 38.6102 688.44 39.9803 686.78 39.9803C685.12 39.9803 683.768 38.6102 683.768 36.9286C683.768 35.247 685.12 33.877 686.78 33.877Z" fill="white"/>
</g>
<rect x="157.234" y="36.0501" width="48.0867" height="8.87755" fill="#8292AF"/>
<rect x="227.516" y="36.0501" width="48.0867" height="8.87755" fill="#70CCFF"/>
<rect x="294.098" y="36.0501" width="48.0867" height="8.87755" fill="white" fill-opacity="0.3"/>
<rect x="362.158" y="36.0501" width="48.0867" height="8.87755" fill="white" fill-opacity="0.3"/>
<rect x="433.18" y="36.0501" width="48.0867" height="8.87755" fill="white" fill-opacity="0.3"/>
<path d="M48.25 147.262C48.25 146.504 48.8638 145.891 49.6211 145.891H151.994C152.751 145.891 153.365 146.504 153.365 147.262V411.42C153.365 412.178 152.751 412.792 151.994 412.792H49.6211C48.8638 412.792 48.25 412.178 48.25 411.42V147.262Z" fill="white"/>
<path fill-rule="evenodd" clip-rule="evenodd" d="M151.994 146.348H49.6211C49.1163 146.348 48.707 146.757 48.707 147.262V411.42C48.707 411.925 49.1163 412.335 49.6211 412.335H151.994C152.499 412.335 152.908 411.925 152.908 411.42V147.262C152.908 146.757 152.499 146.348 151.994 146.348ZM49.6211 145.891C48.8638 145.891 48.25 146.504 48.25 147.262V411.42C48.25 412.178 48.8638 412.792 49.6211 412.792H151.994C152.751 412.792 153.365 412.178 153.365 411.42V147.262C153.365 146.504 152.751 145.891 151.994 145.891H49.6211Z" fill="#B8CDEB"/>
<path d="M157.936 147.262C157.936 146.504 158.549 145.891 159.307 145.891H515.327C516.084 145.891 516.698 146.504 516.698 147.262V411.42C516.698 412.178 516.084 412.792 515.327 412.792H159.307C158.549 412.792 157.936 412.178 157.936 411.42V147.262Z" fill="white"/>
<path fill-rule="evenodd" clip-rule="evenodd" d="M515.327 146.348H159.307C158.802 146.348 158.393 146.757 158.393 147.262V411.42C158.393 411.925 158.802 412.335 159.307 412.335H515.327C515.832 412.335 516.241 411.925 516.241 411.42V147.262C516.241 146.757 515.832 146.348 515.327 146.348ZM159.307 145.891C158.549 145.891 157.936 146.504 157.936 147.262V411.42C157.936 412.178 158.549 412.792 159.307 412.792H515.327C516.084 412.792 516.698 412.178 516.698 411.42V147.262C516.698 146.504 516.084 145.891 515.327 145.891H159.307Z" fill="#B8CDEB"/>
<path d="M522.182 147.262C522.182 146.504 522.795 145.891 523.553 145.891H694.022C694.779 145.891 695.393 146.504 695.393 147.262V411.42C695.393 412.178 694.779 412.792 694.022 412.792H523.553C522.795 412.792 522.182 412.178 522.182 411.42V147.262Z" fill="white"/>
<path fill-rule="evenodd" clip-rule="evenodd" d="M694.022 146.348H523.553C523.048 146.348 522.639 146.757 522.639 147.262V411.42C522.639 411.925 523.048 412.335 523.553 412.335H694.022C694.527 412.335 694.936 411.925 694.936 411.42V147.262C694.936 146.757 694.527 146.348 694.022 146.348ZM523.553 145.891C522.795 145.891 522.182 146.504 522.182 147.262V411.42C522.182 412.178 522.795 412.792 523.553 412.792H694.022C694.779 412.792 695.393 412.178 695.393 411.42V147.262C695.393 146.504 694.779 145.891 694.022 145.891H523.553Z" fill="#B8CDEB"/>
<path d="M57.3906 164.628C57.3906 161.852 59.6414 159.601 62.4179 159.601H126.401C129.177 159.601 131.428 161.852 131.428 164.628V164.628C131.428 167.405 129.177 169.656 126.401 169.656H62.4179C59.6414 169.656 57.3906 167.405 57.3906 164.628V164.628Z" fill="white"/>
<path d="M57.3906 164.628C57.3906 161.852 59.6414 159.601 62.4179 159.601H126.401C129.177 159.601 131.428 161.852 131.428 164.628V164.628C131.428 167.405 129.177 169.656 126.401 169.656H62.4179C59.6414 169.656 57.3906 167.405 57.3906 164.628V164.628Z" fill="white"/>
<path d="M57.3906 164.628C57.3906 161.852 59.6414 159.601 62.4179 159.601H126.401C129.177 159.601 131.428 161.852 131.428 164.628V164.628C131.428 167.405 129.177 169.656 126.401 169.656H62.4179C59.6414 169.656 57.3906 167.405 57.3906 164.628V164.628Z" fill="#E2E9FF"/>
<path d="M57.3906 181.538C57.3906 178.762 59.6414 176.511 62.4179 176.511H111.776C114.553 176.511 116.804 178.762 116.804 181.538V181.538C116.804 184.315 114.553 186.566 111.776 186.566H62.4179C59.6414 186.566 57.3906 184.315 57.3906 181.538V181.538Z" fill="white"/>
<path d="M57.3906 181.538C57.3906 178.762 59.6414 176.511 62.4179 176.511H111.776C114.553 176.511 116.804 178.762 116.804 181.538V181.538C116.804 184.315 114.553 186.566 111.776 186.566H62.4179C59.6414 186.566 57.3906 184.315 57.3906 181.538V181.538Z" fill="white"/>
<path d="M57.3906 181.538C57.3906 178.762 59.6414 176.511 62.4179 176.511H111.776C114.553 176.511 116.804 178.762 116.804 181.538V181.538C116.804 184.315 114.553 186.566 111.776 186.566H62.4179C59.6414 186.566 57.3906 184.315 57.3906 181.538V181.538Z" fill="#E2E9FF"/>
<path d="M57.3906 197.991C57.3906 195.215 59.6414 192.964 62.4179 192.964H126.401C129.177 192.964 131.428 195.215 131.428 197.991V197.991C131.428 200.768 129.177 203.018 126.401 203.018H62.4179C59.6414 203.018 57.3906 200.768 57.3906 197.991V197.991Z" fill="white"/>
<path d="M57.3906 197.991C57.3906 195.215 59.6414 192.964 62.4179 192.964H126.401C129.177 192.964 131.428 195.215 131.428 197.991V197.991C131.428 200.768 129.177 203.018 126.401 203.018H62.4179C59.6414 203.018 57.3906 200.768 57.3906 197.991V197.991Z" fill="white"/>
<path d="M57.3906 197.991C57.3906 195.215 59.6414 192.964 62.4179 192.964H126.401C129.177 192.964 131.428 195.215 131.428 197.991V197.991C131.428 200.768 129.177 203.018 126.401 203.018H62.4179C59.6414 203.018 57.3906 200.768 57.3906 197.991V197.991Z" fill="#E2E9FF"/>
<path d="M57.3906 214.901C57.3906 212.125 59.6414 209.874 62.4179 209.874H111.776C114.553 209.874 116.804 212.125 116.804 214.901V214.901C116.804 217.678 114.553 219.928 111.776 219.928H62.4179C59.6414 219.928 57.3906 217.678 57.3906 214.901V214.901Z" fill="white"/>
<path d="M57.3906 214.901C57.3906 212.125 59.6414 209.874 62.4179 209.874H111.776C114.553 209.874 116.804 212.125 116.804 214.901V214.901C116.804 217.678 114.553 219.928 111.776 219.928H62.4179C59.6414 219.928 57.3906 217.678 57.3906 214.901V214.901Z" fill="white"/>
<path d="M57.3906 214.901C57.3906 212.125 59.6414 209.874 62.4179 209.874H111.776C114.553 209.874 116.804 212.125 116.804 214.901V214.901C116.804 217.678 114.553 219.928 111.776 219.928H62.4179C59.6414 219.928 57.3906 217.678 57.3906 214.901V214.901Z" fill="#E2E9FF"/>
<path d="M57.3906 338.297C57.3906 335.52 59.6414 333.269 62.4179 333.269H126.401C129.177 333.269 131.428 335.52 131.428 338.297V338.297C131.428 341.073 129.177 343.324 126.401 343.324H62.4179C59.6414 343.324 57.3906 341.073 57.3906 338.297V338.297Z" fill="white"/>
<path d="M57.3906 338.297C57.3906 335.52 59.6414 333.269 62.4179 333.269H126.401C129.177 333.269 131.428 335.52 131.428 338.297V338.297C131.428 341.073 129.177 343.324 126.401 343.324H62.4179C59.6414 343.324 57.3906 341.073 57.3906 338.297V338.297Z" fill="white"/>
<path d="M57.3906 338.297C57.3906 335.52 59.6414 333.269 62.4179 333.269H126.401C129.177 333.269 131.428 335.52 131.428 338.297V338.297C131.428 341.073 129.177 343.324 126.401 343.324H62.4179C59.6414 343.324 57.3906 341.073 57.3906 338.297V338.297Z" fill="#E2E9FF"/>
<path d="M57.3906 355.207C57.3906 352.43 59.6414 350.179 62.4179 350.179H111.776C114.553 350.179 116.804 352.43 116.804 355.207V355.207C116.804 357.983 114.553 360.234 111.776 360.234H62.4179C59.6414 360.234 57.3906 357.983 57.3906 355.207V355.207Z" fill="white"/>
<path d="M57.3906 355.207C57.3906 352.43 59.6414 350.179 62.4179 350.179H111.776C114.553 350.179 116.804 352.43 116.804 355.207V355.207C116.804 357.983 114.553 360.234 111.776 360.234H62.4179C59.6414 360.234 57.3906 357.983 57.3906 355.207V355.207Z" fill="white"/>
<path d="M57.3906 355.207C57.3906 352.43 59.6414 350.179 62.4179 350.179H111.776C114.553 350.179 116.804 352.43 116.804 355.207V355.207C116.804 357.983 114.553 360.234 111.776 360.234H62.4179C59.6414 360.234 57.3906 357.983 57.3906 355.207V355.207Z" fill="#E2E9FF"/>
<path d="M57.3906 371.659C57.3906 368.883 59.6414 366.632 62.4179 366.632H126.401C129.177 366.632 131.428 368.883 131.428 371.659V371.659C131.428 374.436 129.177 376.687 126.401 376.687H62.4179C59.6414 376.687 57.3906 374.436 57.3906 371.659V371.659Z" fill="white"/>
<path d="M57.3906 371.659C57.3906 368.883 59.6414 366.632 62.4179 366.632H126.401C129.177 366.632 131.428 368.883 131.428 371.659V371.659C131.428 374.436 129.177 376.687 126.401 376.687H62.4179C59.6414 376.687 57.3906 374.436 57.3906 371.659V371.659Z" fill="white"/>
<path d="M57.3906 371.659C57.3906 368.883 59.6414 366.632 62.4179 366.632H126.401C129.177 366.632 131.428 368.883 131.428 371.659V371.659C131.428 374.436 129.177 376.687 126.401 376.687H62.4179C59.6414 376.687 57.3906 374.436 57.3906 371.659V371.659Z" fill="#E2E9FF"/>
<path d="M57.3906 388.569C57.3906 385.793 59.6414 383.542 62.4179 383.542H111.776C114.553 383.542 116.804 385.793 116.804 388.569V388.569C116.804 391.346 114.553 393.597 111.776 393.597H62.4179C59.6414 393.597 57.3906 391.346 57.3906 388.569V388.569Z" fill="white"/>
<path d="M57.3906 388.569C57.3906 385.793 59.6414 383.542 62.4179 383.542H111.776C114.553 383.542 116.804 385.793 116.804 388.569V388.569C116.804 391.346 114.553 393.597 111.776 393.597H62.4179C59.6414 393.597 57.3906 391.346 57.3906 388.569V388.569Z" fill="white"/>
<path d="M57.3906 388.569C57.3906 385.793 59.6414 383.542 62.4179 383.542H111.776C114.553 383.542 116.804 385.793 116.804 388.569V388.569C116.804 391.346 114.553 393.597 111.776 393.597H62.4179C59.6414 393.597 57.3906 391.346 57.3906 388.569V388.569Z" fill="#E2E9FF"/>
<path d="M165.705 163.714C165.705 160.938 167.956 158.687 170.732 158.687H220.091C222.867 158.687 225.118 160.938 225.118 163.714V163.714C225.118 166.491 222.867 168.742 220.091 168.742H170.732C167.956 168.742 165.705 166.491 165.705 163.714V163.714Z" fill="white"/>
<path d="M165.705 163.714C165.705 160.938 167.956 158.687 170.732 158.687H220.091C222.867 158.687 225.118 160.938 225.118 163.714V163.714C225.118 166.491 222.867 168.742 220.091 168.742H170.732C167.956 168.742 165.705 166.491 165.705 163.714V163.714Z" fill="white"/>
<path d="M165.705 163.714C165.705 160.938 167.956 158.687 170.732 158.687H220.091C222.867 158.687 225.118 160.938 225.118 163.714V163.714C225.118 166.491 222.867 168.742 220.091 168.742H170.732C167.956 168.742 165.705 166.491 165.705 163.714V163.714Z" fill="#E2E9FF"/>
<path d="M165.705 163.714C165.705 160.938 167.956 158.687 170.732 158.687H220.091C222.867 158.687 225.118 160.938 225.118 163.714V163.714C225.118 166.491 222.867 168.742 220.091 168.742H170.732C167.956 168.742 165.705 166.491 165.705 163.714V163.714Z" fill="white"/>
<path d="M165.705 163.714C165.705 160.938 167.956 158.687 170.732 158.687H220.091C222.867 158.687 225.118 160.938 225.118 163.714V163.714C225.118 166.491 222.867 168.742 220.091 168.742H170.732C167.956 168.742 165.705 166.491 165.705 163.714V163.714Z" fill="white"/>
<path d="M165.705 163.714C165.705 160.938 167.956 158.687 170.732 158.687H220.091C222.867 158.687 225.118 160.938 225.118 163.714V163.714C225.118 166.491 222.867 168.742 220.091 168.742H170.732C167.956 168.742 165.705 166.491 165.705 163.714V163.714Z" fill="#E2E9FF"/>
<path d="M165.705 250.091C165.705 247.315 167.956 245.064 170.732 245.064H220.091C222.867 245.064 225.118 247.315 225.118 250.091V250.091C225.118 252.868 222.867 255.119 220.091 255.119H170.732C167.956 255.119 165.705 252.868 165.705 250.091V250.091Z" fill="white"/>
<path d="M165.705 250.091C165.705 247.315 167.956 245.064 170.732 245.064H220.091C222.867 245.064 225.118 247.315 225.118 250.091V250.091C225.118 252.868 222.867 255.119 220.091 255.119H170.732C167.956 255.119 165.705 252.868 165.705 250.091V250.091Z" fill="white"/>
<path d="M165.705 250.091C165.705 247.315 167.956 245.064 170.732 245.064H220.091C222.867 245.064 225.118 247.315 225.118 250.091V250.091C225.118 252.868 222.867 255.119 220.091 255.119H170.732C167.956 255.119 165.705 252.868 165.705 250.091V250.091Z" fill="#E2E9FF"/>
<g filter="url(#filter1_d_766_6853)">
<path d="M504.359 174.683H166.619C166.114 174.683 165.705 175.092 165.705 175.597V239.123C165.705 239.628 166.114 240.037 166.619 240.037H504.359C504.863 240.037 505.273 239.628 505.273 239.123V175.597C505.273 175.092 504.863 174.683 504.359 174.683Z" fill="black"/>
</g>
<path d="M504.132 174.912H166.85C166.345 174.912 165.936 175.322 165.936 175.826V238.896C165.936 239.4 166.345 239.81 166.85 239.81H504.132C504.637 239.81 505.046 239.4 505.046 238.896V175.826C505.046 175.322 504.637 174.912 504.132 174.912Z" fill="white"/>
<path fill-rule="evenodd" clip-rule="evenodd" d="M166.848 175.14C166.469 175.14 166.162 175.447 166.162 175.826V238.895C166.162 239.273 166.469 239.58 166.848 239.58H504.13C504.509 239.58 504.816 239.273 504.816 238.895V175.826C504.816 175.447 504.509 175.14 504.13 175.14H166.848ZM165.705 175.826C165.705 175.195 166.217 174.683 166.848 174.683H504.13C504.761 174.683 505.273 175.195 505.273 175.826V238.895C505.273 239.526 504.761 240.037 504.13 240.037H166.848C166.217 240.037 165.705 239.526 165.705 238.895V175.826Z" fill="#B8CDEB"/>
<g filter="url(#filter2_d_766_6853)">
<path d="M504.359 259.232H166.619C166.114 259.232 165.705 259.641 165.705 260.146V279.798C165.705 280.303 166.114 280.712 166.619 280.712H504.359C504.863 280.712 505.273 280.303 505.273 279.798V260.146C505.273 259.641 504.863 259.232 504.359 259.232Z" fill="black"/>
</g>
<path d="M504.132 259.461H166.85C166.345 259.461 165.936 259.87 165.936 260.375V279.57C165.936 280.075 166.345 280.484 166.85 280.484H504.132C504.637 280.484 505.046 280.075 505.046 279.57V260.375C505.046 259.87 504.637 259.461 504.132 259.461Z" fill="white"/>
<path fill-rule="evenodd" clip-rule="evenodd" d="M166.848 259.689C166.469 259.689 166.162 259.996 166.162 260.375V279.57C166.162 279.948 166.469 280.255 166.848 280.255H504.13C504.509 280.255 504.816 279.948 504.816 279.57V260.375C504.816 259.996 504.509 259.689 504.13 259.689H166.848ZM165.705 260.375C165.705 259.744 166.217 259.232 166.848 259.232H504.13C504.761 259.232 505.273 259.744 505.273 260.375V279.57C505.273 280.201 504.761 280.712 504.13 280.712H166.848C166.217 280.712 165.705 280.201 165.705 279.57V260.375Z" fill="#B8CDEB"/>
<g filter="url(#filter3_d_766_6853)">
<path d="M158.85 123.496H515.784C516.289 123.496 516.698 123.905 516.698 124.41V146.347H157.936V124.41C157.936 123.905 158.345 123.496 158.85 123.496Z" fill="black"/>
</g>
<path fill-rule="evenodd" clip-rule="evenodd" d="M158.166 146.119H516.472V124.411C516.472 124.032 516.165 123.725 515.786 123.725H158.852C158.473 123.725 158.166 124.032 158.166 124.411V146.119Z" fill="url(#paint2_linear_766_6853)"/>
<path fill-rule="evenodd" clip-rule="evenodd" d="M157.936 124.41C157.936 123.905 158.345 123.496 158.85 123.496H515.784C516.289 123.496 516.698 123.905 516.698 124.41V146.347H157.936V124.41ZM158.85 123.953C158.597 123.953 158.393 124.158 158.393 124.41V145.89H516.241V124.41C516.241 124.158 516.036 123.953 515.784 123.953H158.85Z" fill="#7091F5"/>
<g filter="url(#filter4_d_766_6853)">
<path d="M508.929 126.696H449.516C449.011 126.696 448.602 127.105 448.602 127.61V142.234C448.602 142.739 449.011 143.148 449.516 143.148H508.929C509.433 143.148 509.843 142.739 509.843 142.234V127.61C509.843 127.105 509.433 126.696 508.929 126.696Z" fill="black"/>
</g>
<path d="M508.929 126.696H449.516C449.011 126.696 448.602 127.105 448.602 127.61V142.234C448.602 142.739 449.011 143.148 449.516 143.148H508.929C509.433 143.148 509.843 142.739 509.843 142.234V127.61C509.843 127.105 509.433 126.696 508.929 126.696Z" fill="#243E6D"/>
<path fill-rule="evenodd" clip-rule="evenodd" d="M449.516 126.924C449.137 126.924 448.83 127.231 448.83 127.61V142.234C448.83 142.613 449.137 142.92 449.516 142.92H508.929C509.307 142.92 509.614 142.613 509.614 142.234V127.61C509.614 127.231 509.307 126.924 508.929 126.924H449.516ZM448.373 127.61C448.373 126.979 448.885 126.467 449.516 126.467H508.929C509.56 126.467 510.071 126.979 510.071 127.61V142.234C510.071 142.865 509.56 143.377 508.929 143.377H449.516C448.885 143.377 448.373 142.865 448.373 142.234V127.61Z" fill="#233D6C"/>
<g filter="url(#filter5_d_766_6853)">
<path d="M522.639 123.496H694.479C694.984 123.496 695.393 123.905 695.393 124.41V146.347H521.725V124.41C521.725 123.905 522.134 123.496 522.639 123.496Z" fill="black"/>
</g>
<path fill-rule="evenodd" clip-rule="evenodd" d="M521.953 146.119H695.165V124.41C695.165 124.032 694.858 123.725 694.479 123.725H522.639C522.26 123.725 521.953 124.032 521.953 124.41V146.119Z" fill="url(#paint3_linear_766_6853)"/>
<path fill-rule="evenodd" clip-rule="evenodd" d="M521.725 124.41C521.725 123.905 522.134 123.496 522.639 123.496H694.479C694.984 123.496 695.393 123.905 695.393 124.41V146.347H521.725V124.41ZM522.639 123.953C522.386 123.953 522.182 124.158 522.182 124.41V145.89H694.936V124.41C694.936 124.158 694.731 123.953 694.479 123.953H522.639Z" fill="#7091F5"/>
<path d="M549.971 136.316H549.368V134.213H547.074V136.316H546.475V131.767H547.074V133.723H549.368V131.767H549.971V136.316Z" fill="white"/>
<path d="M551.679 136.316H551.08V131.767H551.679V136.316Z" fill="white"/>
<path d="M554.119 134.288C553.605 134.14 553.23 133.959 552.995 133.745C552.761 133.528 552.645 133.261 552.645 132.945C552.645 132.587 552.788 132.291 553.073 132.057C553.36 131.822 553.733 131.704 554.191 131.704C554.504 131.704 554.782 131.765 555.025 131.886C555.271 132.006 555.461 132.173 555.594 132.386C555.729 132.598 555.797 132.83 555.797 133.082H555.194C555.194 132.807 555.107 132.592 554.932 132.436C554.757 132.277 554.51 132.198 554.191 132.198C553.896 132.198 553.664 132.264 553.498 132.395C553.333 132.524 553.251 132.704 553.251 132.935C553.251 133.121 553.329 133.278 553.485 133.407C553.644 133.534 553.911 133.651 554.288 133.757C554.667 133.863 554.963 133.981 555.175 134.11C555.39 134.237 555.548 134.386 555.65 134.557C555.754 134.728 555.807 134.929 555.807 135.16C555.807 135.528 555.663 135.824 555.375 136.047C555.088 136.268 554.704 136.378 554.223 136.378C553.91 136.378 553.619 136.319 553.348 136.2C553.077 136.079 552.868 135.915 552.72 135.707C552.574 135.498 552.501 135.262 552.501 134.997H553.104C553.104 135.272 553.205 135.49 553.407 135.65C553.611 135.809 553.883 135.888 554.223 135.888C554.539 135.888 554.782 135.823 554.95 135.694C555.119 135.565 555.204 135.389 555.204 135.166C555.204 134.943 555.125 134.771 554.969 134.651C554.813 134.528 554.53 134.407 554.119 134.288Z" fill="white"/>
<path d="M559.721 132.261H558.259V136.316H557.662V132.261H556.203V131.767H559.721V132.261Z" fill="white"/>
<path d="M563.808 134.188C563.808 134.634 563.733 135.023 563.583 135.357C563.433 135.688 563.22 135.941 562.945 136.116C562.67 136.291 562.35 136.378 561.983 136.378C561.625 136.378 561.307 136.291 561.03 136.116C560.753 135.939 560.538 135.688 560.383 135.363C560.231 135.036 560.153 134.658 560.149 134.229V133.901C560.149 133.463 560.225 133.077 560.377 132.742C560.529 132.406 560.744 132.15 561.021 131.973C561.3 131.794 561.619 131.704 561.977 131.704C562.341 131.704 562.662 131.793 562.939 131.97C563.218 132.145 563.433 132.4 563.583 132.735C563.733 133.069 563.808 133.457 563.808 133.901V134.188ZM563.211 133.895C563.211 133.355 563.103 132.942 562.886 132.654C562.669 132.365 562.366 132.22 561.977 132.22C561.598 132.22 561.299 132.365 561.08 132.654C560.864 132.942 560.752 133.342 560.746 133.854V134.188C560.746 134.711 560.855 135.122 561.074 135.422C561.295 135.72 561.598 135.869 561.983 135.869C562.37 135.869 562.67 135.728 562.883 135.447C563.095 135.164 563.205 134.759 563.211 134.232V133.895Z" fill="white"/>
<path d="M566.376 134.476H565.307V136.316H564.704V131.767H566.21C566.722 131.767 567.116 131.884 567.391 132.117C567.668 132.35 567.806 132.69 567.806 133.135C567.806 133.419 567.729 133.665 567.575 133.876C567.423 134.086 567.211 134.243 566.938 134.348L568.006 136.278V136.316H567.363L566.376 134.476ZM565.307 133.985H566.229C566.527 133.985 566.763 133.908 566.938 133.754C567.115 133.6 567.204 133.394 567.204 133.135C567.204 132.854 567.119 132.639 566.95 132.489C566.784 132.339 566.542 132.263 566.226 132.261H565.307V133.985Z" fill="white"/>
<path d="M569.294 136.316H568.694V131.767H569.294V136.316Z" fill="white"/>
<path d="M572.961 135.129H571.056L570.628 136.316H570.009L571.746 131.767H572.271L574.011 136.316H573.396L572.961 135.129ZM571.237 134.635H572.783L572.009 132.507L571.237 134.635Z" fill="white"/>
<path d="M575.226 135.825H577.382V136.316H574.623V131.767H575.226V135.825Z" fill="white"/>
<mask id="mask1_766_6853" style="mask-type:alpha" maskUnits="userSpaceOnUse" x="533" y="130" width="10" height="10">
<path d="M542.15 134.571C542.154 137.071 540.165 139.116 537.726 139.118C536.672 139.118 535.704 138.742 534.944 138.113C534.746 137.949 534.731 137.645 534.911 137.461L535.112 137.255C535.266 137.098 535.511 137.08 535.681 137.219C536.242 137.674 536.951 137.947 537.722 137.947C539.538 137.947 541.007 136.44 541.007 134.58C541.007 132.718 539.538 131.213 537.722 131.213C536.851 131.213 536.059 131.56 535.472 132.126L536.378 133.055C536.558 133.239 536.43 133.555 536.176 133.555H533.581C533.423 133.555 533.295 133.424 533.295 133.262V130.602C533.295 130.341 533.603 130.21 533.783 130.395L534.664 131.298C535.459 130.52 536.536 130.041 537.722 130.041C540.165 130.041 542.145 132.069 542.15 134.571ZM538.92 136.013L539.095 135.781C539.241 135.59 539.207 135.314 539.02 135.165L538.294 134.586V132.676C538.294 132.434 538.102 132.237 537.865 132.237H537.58C537.343 132.237 537.151 132.434 537.151 132.676V135.159L538.319 136.09C538.506 136.239 538.775 136.204 538.92 136.013Z" fill="white"/>
</mask>
<g mask="url(#mask1_766_6853)">
<path d="M542.15 134.571C542.154 137.071 540.165 139.116 537.726 139.118C536.672 139.118 535.704 138.742 534.944 138.113C534.746 137.949 534.731 137.645 534.911 137.461L535.112 137.255C535.266 137.098 535.511 137.08 535.681 137.219C536.242 137.674 536.951 137.947 537.722 137.947C539.538 137.947 541.007 136.44 541.007 134.58C541.007 132.718 539.538 131.213 537.722 131.213C536.851 131.213 536.059 131.56 535.472 132.126L536.378 133.055C536.558 133.239 536.43 133.555 536.176 133.555H533.581C533.423 133.555 533.295 133.424 533.295 133.262V130.602C533.295 130.341 533.603 130.21 533.783 130.395L534.664 131.298C535.459 130.52 536.536 130.041 537.722 130.041C540.165 130.041 542.145 132.069 542.15 134.571ZM538.92 136.013L539.095 135.781C539.241 135.59 539.207 135.314 539.02 135.165L538.294 134.586V132.676C538.294 132.434 538.102 132.237 537.865 132.237H537.58C537.343 132.237 537.151 132.434 537.151 132.676V135.159L538.319 136.09C538.506 136.239 538.775 136.204 538.92 136.013Z" fill="black"/>
<path d="M542.293 129.894H533.152V139.263H542.293V129.894Z" fill="white"/>
</g>
<g opacity="0.523042">
<mask id="mask2_766_6853" style="mask-type:alpha" maskUnits="userSpaceOnUse" x="489" y="162" width="8" height="8">
<g opacity="0.523042">
<path opacity="0.523042" d="M495.781 165.676H495.424V164.605C495.424 163.358 494.409 162.344 493.163 162.344C491.916 162.344 490.901 163.358 490.901 164.605V165.676H490.544C490.15 165.676 489.83 165.996 489.83 166.39V169.247C489.83 169.641 490.15 169.961 490.544 169.961H495.781C496.175 169.961 496.495 169.641 496.495 169.247V166.39C496.495 165.996 496.175 165.676 495.781 165.676ZM494.234 165.676H492.091V164.605C492.091 164.014 492.572 163.534 493.163 163.534C493.753 163.534 494.234 164.014 494.234 164.605V165.676Z" fill="white"/>
</g>
</mask>
<g mask="url(#mask2_766_6853)">
<path opacity="0.523042" d="M495.781 165.676H495.424V164.605C495.424 163.358 494.409 162.344 493.163 162.344C491.916 162.344 490.901 163.358 490.901 164.605V165.676H490.544C490.15 165.676 489.83 165.996 489.83 166.39V169.247C489.83 169.641 490.15 169.961 490.544 169.961H495.781C496.175 169.961 496.495 169.641 496.495 169.247V166.39C496.495 165.996 496.175 165.676 495.781 165.676ZM494.234 165.676H492.091V164.605C492.091 164.014 492.572 163.534 493.163 163.534C493.753 163.534 494.234 164.014 494.234 164.605V165.676Z" fill="black"/>
<g opacity="0.523042">
<g opacity="0.523042">
<path opacity="0.523042" d="M496.973 162.344H489.355V169.961H496.973V162.344Z" fill="#4D648D"/>
</g>
</g>
</g>
</g>
<g opacity="0.523042">
<mask id="mask3_766_6853" style="mask-type:alpha" maskUnits="userSpaceOnUse" x="489" y="246" width="8" height="9">
<g opacity="0.523042">
<path opacity="0.523042" d="M495.781 250.225H495.424V249.154C495.424 247.907 494.409 246.893 493.163 246.893C491.916 246.893 490.901 247.907 490.901 249.154V250.225H490.544C490.15 250.225 489.83 250.545 489.83 250.939V253.796C489.83 254.19 490.15 254.51 490.544 254.51H495.781C496.175 254.51 496.495 254.19 496.495 253.796V250.939C496.495 250.545 496.175 250.225 495.781 250.225ZM494.234 250.225H492.091V249.154C492.091 248.563 492.572 248.083 493.163 248.083C493.753 248.083 494.234 248.563 494.234 249.154V250.225Z" fill="white"/>
</g>
</mask>
<g mask="url(#mask3_766_6853)">
<path opacity="0.523042" d="M495.781 250.225H495.424V249.154C495.424 247.907 494.409 246.893 493.163 246.893C491.916 246.893 490.901 247.907 490.901 249.154V250.225H490.544C490.15 250.225 489.83 250.545 489.83 250.939V253.796C489.83 254.19 490.15 254.51 490.544 254.51H495.781C496.175 254.51 496.495 254.19 496.495 253.796V250.939C496.495 250.545 496.175 250.225 495.781 250.225ZM494.234 250.225H492.091V249.154C492.091 248.563 492.572 248.083 493.163 248.083C493.753 248.083 494.234 248.563 494.234 249.154V250.225Z" fill="black"/>
<g opacity="0.523042">
<g opacity="0.523042">
<path opacity="0.523042" d="M496.973 246.892H489.355V254.509H496.973V246.892Z" fill="#4D648D"/>
</g>
</g>
</g>
</g>
<g opacity="0.523042">
<mask id="mask4_766_6853" style="mask-type:alpha" maskUnits="userSpaceOnUse" x="489" y="287" width="8" height="9">
<g opacity="0.523042">
<path opacity="0.523042" d="M495.781 290.9H495.424V289.829C495.424 288.582 494.409 287.568 493.163 287.568C491.916 287.568 490.901 288.582 490.901 289.829V290.9H490.544C490.15 290.9 489.83 291.22 489.83 291.614V294.471C489.83 294.865 490.15 295.185 490.544 295.185H495.781C496.175 295.185 496.495 294.865 496.495 294.471V291.614C496.495 291.22 496.175 290.9 495.781 290.9ZM494.234 290.9H492.091V289.829C492.091 289.238 492.572 288.758 493.163 288.758C493.753 288.758 494.234 289.238 494.234 289.829V290.9Z" fill="white"/>
</g>
</mask>
<g mask="url(#mask4_766_6853)">
<path opacity="0.523042" d="M495.781 290.9H495.424V289.829C495.424 288.582 494.409 287.568 493.163 287.568C491.916 287.568 490.901 288.582 490.901 289.829V290.9H490.544C490.15 290.9 489.83 291.22 489.83 291.614V294.471C489.83 294.865 490.15 295.185 490.544 295.185H495.781C496.175 295.185 496.495 294.865 496.495 294.471V291.614C496.495 291.22 496.175 290.9 495.781 290.9ZM494.234 290.9H492.091V289.829C492.091 289.238 492.572 288.758 493.163 288.758C493.753 288.758 494.234 289.238 494.234 289.829V290.9Z" fill="black"/>
<g opacity="0.523042">
<g opacity="0.523042">
<path opacity="0.523042" d="M496.973 287.568H489.355V295.185H496.973V287.568Z" fill="#4D648D"/>
</g>
</g>
</g>
</g>
<g filter="url(#filter6_d_766_6853)">
<path d="M695.394 78.7083H48.707V115.27H695.394V78.7083Z" fill="black"/>
</g>
<path d="M695.169 78.9374H48.9316V115.042H695.169V78.9374Z" fill="white"/>
<path fill-rule="evenodd" clip-rule="evenodd" d="M48.707 78.7083H695.394V115.27H48.707V78.7083ZM49.1561 79.1653V114.813H694.945V79.1653H49.1561Z" fill="white"/>
<path d="M446.237 83.7354H394.142C393.646 83.7354 393.244 84.1446 393.244 84.6495V110.243C393.244 110.748 393.646 111.157 394.142 111.157H446.237C446.733 111.157 447.135 110.748 447.135 110.243V84.6495C447.135 84.1446 446.733 83.7354 446.237 83.7354Z" fill="#E54435" fill-opacity="0.8"/>
<path d="M61.5041 102.93C64.8524 102.93 67.5668 100.168 67.5668 96.7605C67.5668 93.353 64.8524 90.5907 61.5041 90.5907C58.1558 90.5907 55.4414 93.353 55.4414 96.7605C55.4414 100.168 58.1558 102.93 61.5041 102.93Z" fill="white"/>
<path fill-rule="evenodd" clip-rule="evenodd" d="M61.5059 91.048C58.4056 91.048 55.8923 93.6057 55.8923 96.7607C55.8923 99.9158 58.4056 102.474 61.5059 102.474C64.6062 102.474 67.1195 99.9158 67.1195 96.7607C67.1195 93.6057 64.6062 91.048 61.5059 91.048ZM54.9941 96.7607C54.9941 93.1008 57.9096 90.1339 61.5059 90.1339C65.1023 90.1339 68.0177 93.1008 68.0177 96.7607C68.0177 100.421 65.1023 103.388 61.5059 103.388C57.9096 103.388 54.9941 100.421 54.9941 96.7607Z" fill="#7093FF"/>
<path d="M61.6424 96.5201H60.5925V98.3602H60V93.8114H61.4797C61.9832 93.8114 62.37 93.928 62.6401 94.1613C62.9123 94.3946 63.0484 94.7341 63.0484 95.1798C63.0484 95.463 62.9727 95.7099 62.8213 95.9202C62.6719 96.1306 62.4631 96.2878 62.195 96.392L63.2449 98.3227V98.3602H62.6125L61.6424 96.5201ZM60.5925 96.0296H61.4981C61.7908 96.0296 62.0231 95.9525 62.195 95.7984C62.369 95.6443 62.456 95.4381 62.456 95.1798C62.456 94.8986 62.3731 94.683 62.2073 94.5331C62.0436 94.3831 61.8061 94.3071 61.4951 94.305H60.5925V96.0296Z" fill="#4D648D"/>
<path d="M72.9297 104.759C72.9297 102.992 74.362 101.559 76.1288 101.559H157.479C159.246 101.559 160.678 102.992 160.678 104.759V104.759C160.678 106.525 159.246 107.958 157.479 107.958H76.1288C74.362 107.958 72.9297 106.525 72.9297 104.759V104.759Z" fill="white"/>
<path d="M72.9297 104.759C72.9297 102.992 74.362 101.559 76.1288 101.559H157.479C159.246 101.559 160.678 102.992 160.678 104.759V104.759C160.678 106.525 159.246 107.958 157.479 107.958H76.1288C74.362 107.958 72.9297 106.525 72.9297 104.759V104.759Z" fill="white"/>
<path d="M72.9297 104.759C72.9297 102.992 74.362 101.559 76.1288 101.559H157.479C159.246 101.559 160.678 102.992 160.678 104.759V104.759C160.678 106.525 159.246 107.958 157.479 107.958H76.1288C74.362 107.958 72.9297 106.525 72.9297 104.759V104.759Z" fill="#E2E9FF"/>
<path d="M175.76 92.4189C175.76 90.6521 177.192 89.2198 178.959 89.2198H235.173C236.94 89.2198 238.372 90.6521 238.372 92.4189V92.4189C238.372 94.1858 236.94 95.6181 235.173 95.6181H178.959C177.192 95.6181 175.76 94.1858 175.76 92.4189V92.4189Z" fill="white"/>
<path d="M175.76 92.4189C175.76 90.6521 177.192 89.2198 178.959 89.2198H235.173C236.94 89.2198 238.372 90.6521 238.372 92.4189V92.4189C238.372 94.1858 236.94 95.6181 235.173 95.6181H178.959C177.192 95.6181 175.76 94.1858 175.76 92.4189V92.4189Z" fill="white"/>
<path d="M175.76 92.4189C175.76 90.6521 177.192 89.2198 178.959 89.2198H235.173C236.94 89.2198 238.372 90.6521 238.372 92.4189V92.4189C238.372 94.1858 236.94 95.6181 235.173 95.6181H178.959C177.192 95.6181 175.76 94.1858 175.76 92.4189V92.4189Z" fill="#E2E9FF"/>
<path d="M283.16 92.4189C283.16 90.6521 284.592 89.2198 286.359 89.2198H342.573C344.34 89.2198 345.772 90.6521 345.772 92.4189V92.4189C345.772 94.1858 344.34 95.6181 342.573 95.6181H286.359C284.592 95.6181 283.16 94.1858 283.16 92.4189V92.4189Z" fill="white"/>
<path d="M283.16 92.4189C283.16 90.6521 284.592 89.2198 286.359 89.2198H342.573C344.34 89.2198 345.772 90.6521 345.772 92.4189V92.4189C345.772 94.1858 344.34 95.6181 342.573 95.6181H286.359C284.592 95.6181 283.16 94.1858 283.16 92.4189V92.4189Z" fill="white"/>
<path d="M283.16 92.4189C283.16 90.6521 284.592 89.2198 286.359 89.2198H342.573C344.34 89.2198 345.772 90.6521 345.772 92.4189V92.4189C345.772 94.1858 344.34 95.6181 342.573 95.6181H286.359C284.592 95.6181 283.16 94.1858 283.16 92.4189V92.4189Z" fill="#E2E9FF"/>
<path d="M175.76 104.302C175.76 102.535 177.192 101.103 178.959 101.103H266.25C268.017 101.103 269.449 102.535 269.449 104.302V104.302C269.449 106.069 268.017 107.501 266.25 107.501H178.959C177.192 107.501 175.76 106.069 175.76 104.302V104.302Z" fill="white"/>
<path d="M175.76 104.302C175.76 102.535 177.192 101.103 178.959 101.103H266.25C268.017 101.103 269.449 102.535 269.449 104.302V104.302C269.449 106.069 268.017 107.501 266.25 107.501H178.959C177.192 107.501 175.76 106.069 175.76 104.302V104.302Z" fill="white"/>
<path d="M175.76 104.302C175.76 102.535 177.192 101.103 178.959 101.103H266.25C268.017 101.103 269.449 102.535 269.449 104.302V104.302C269.449 106.069 268.017 107.501 266.25 107.501H178.959C177.192 107.501 175.76 106.069 175.76 104.302V104.302Z" fill="#E2E9FF"/>
<path d="M283.16 104.302C283.16 102.535 284.592 101.103 286.359 101.103H373.651C375.417 101.103 376.85 102.535 376.85 104.302V104.302C376.85 106.069 375.417 107.501 373.651 107.501H286.359C284.592 107.501 283.16 106.069 283.16 104.302V104.302Z" fill="white"/>
<path d="M283.16 104.302C283.16 102.535 284.592 101.103 286.359 101.103H373.651C375.417 101.103 376.85 102.535 376.85 104.302V104.302C376.85 106.069 375.417 107.501 373.651 107.501H286.359C284.592 107.501 283.16 106.069 283.16 104.302V104.302Z" fill="white"/>
<path d="M283.16 104.302C283.16 102.535 284.592 101.103 286.359 101.103H373.651C375.417 101.103 376.85 102.535 376.85 104.302V104.302C376.85 106.069 375.417 107.501 373.651 107.501H286.359C284.592 107.501 283.16 106.069 283.16 104.302V104.302Z" fill="#E2E9FF"/>
<path d="M467.34 92.4189C467.34 90.6521 468.772 89.2198 470.539 89.2198H526.753C528.52 89.2198 529.952 90.6521 529.952 92.4189V92.4189C529.952 94.1858 528.52 95.6181 526.753 95.6181H470.539C468.772 95.6181 467.34 94.1858 467.34 92.4189V92.4189Z" fill="white"/>
<path d="M467.34 92.4189C467.34 90.6521 468.772 89.2198 470.539 89.2198H526.753C528.52 89.2198 529.952 90.6521 529.952 92.4189V92.4189C529.952 94.1858 528.52 95.6181 526.753 95.6181H470.539C468.772 95.6181 467.34 94.1858 467.34 92.4189V92.4189Z" fill="white"/>
<path d="M467.34 92.4189C467.34 90.6521 468.772 89.2198 470.539 89.2198H526.753C528.52 89.2198 529.952 90.6521 529.952 92.4189V92.4189C529.952 94.1858 528.52 95.6181 526.753 95.6181H470.539C468.772 95.6181 467.34 94.1858 467.34 92.4189V92.4189Z" fill="#E2E9FF"/>
<path d="M467.34 104.302C467.34 102.535 468.772 101.103 470.539 101.103H557.83C559.597 101.103 561.029 102.535 561.029 104.302V104.302C561.029 106.069 559.597 107.501 557.83 107.501H470.539C468.772 107.501 467.34 106.069 467.34 104.302V104.302Z" fill="white"/>
<path d="M467.34 104.302C467.34 102.535 468.772 101.103 470.539 101.103H557.83C559.597 101.103 561.029 102.535 561.029 104.302V104.302C561.029 106.069 559.597 107.501 557.83 107.501H470.539C468.772 107.501 467.34 106.069 467.34 104.302V104.302Z" fill="white"/>
<path d="M467.34 104.302C467.34 102.535 468.772 101.103 470.539 101.103H557.83C559.597 101.103 561.029 102.535 561.029 104.302V104.302C561.029 106.069 559.597 107.501 557.83 107.501H470.539C468.772 107.501 467.34 106.069 467.34 104.302V104.302Z" fill="#E2E9FF"/>
<path d="M582.51 92.4189C582.51 90.6521 583.942 89.2198 585.709 89.2198H641.923C643.69 89.2198 645.122 90.6521 645.122 92.4189V92.4189C645.122 94.1858 643.69 95.6181 641.923 95.6181H585.709C583.942 95.6181 582.51 94.1858 582.51 92.4189V92.4189Z" fill="white"/>
<path d="M582.51 92.4189C582.51 90.6521 583.942 89.2198 585.709 89.2198H641.923C643.69 89.2198 645.122 90.6521 645.122 92.4189V92.4189C645.122 94.1858 643.69 95.6181 641.923 95.6181H585.709C583.942 95.6181 582.51 94.1858 582.51 92.4189V92.4189Z" fill="white"/>
<path d="M582.51 92.4189C582.51 90.6521 583.942 89.2198 585.709 89.2198H641.923C643.69 89.2198 645.122 90.6521 645.122 92.4189V92.4189C645.122 94.1858 643.69 95.6181 641.923 95.6181H585.709C583.942 95.6181 582.51 94.1858 582.51 92.4189V92.4189Z" fill="#E2E9FF"/>
<path d="M582.51 104.302C582.51 102.535 583.942 101.103 585.709 101.103H673C674.767 101.103 676.199 102.535 676.199 104.302V104.302C676.199 106.069 674.767 107.501 673 107.501H585.709C583.942 107.501 582.51 106.069 582.51 104.302V104.302Z" fill="white"/>
<path d="M582.51 104.302C582.51 102.535 583.942 101.103 585.709 101.103H673C674.767 101.103 676.199 102.535 676.199 104.302V104.302C676.199 106.069 674.767 107.501 673 107.501H585.709C583.942 107.501 582.51 106.069 582.51 104.302V104.302Z" fill="white"/>
<path d="M582.51 104.302C582.51 102.535 583.942 101.103 585.709 101.103H673C674.767 101.103 676.199 102.535 676.199 104.302V104.302C676.199 106.069 674.767 107.501 673 107.501H585.709C583.942 107.501 582.51 106.069 582.51 104.302V104.302Z" fill="#E2E9FF"/>
<g opacity="0.5">
<path d="M402.441 93.1045C402.441 91.9686 403.362 91.0479 404.498 91.0479H438.775C439.911 91.0479 440.831 91.9686 440.831 93.1045V93.1045C440.831 94.2403 439.911 95.1611 438.775 95.1611H404.498C403.362 95.1611 402.441 94.2403 402.441 93.1045V93.1045Z" fill="white"/>
<path d="M402.441 93.1045C402.441 91.9686 403.362 91.0479 404.498 91.0479H438.775C439.911 91.0479 440.831 91.9686 440.831 93.1045V93.1045C440.831 94.2403 439.911 95.1611 438.775 95.1611H404.498C403.362 95.1611 402.441 94.2403 402.441 93.1045V93.1045Z" fill="white"/>
<path d="M402.441 93.1045C402.441 91.9686 403.362 91.0479 404.498 91.0479H438.775C439.911 91.0479 440.831 91.9686 440.831 93.1045V93.1045C440.831 94.2403 439.911 95.1611 438.775 95.1611H404.498C403.362 95.1611 402.441 94.2403 402.441 93.1045V93.1045Z" fill="#E2E9FF"/>
</g>
<g opacity="0.5">
<path d="M406.557 102.245C406.557 101.109 407.477 100.188 408.613 100.188H432.378C433.514 100.188 434.435 101.109 434.435 102.245V102.245C434.435 103.381 433.514 104.301 432.378 104.301H408.613C407.477 104.301 406.557 103.381 406.557 102.245V102.245Z" fill="white"/>
<path d="M406.557 102.245C406.557 101.109 407.477 100.188 408.613 100.188H432.378C433.514 100.188 434.435 101.109 434.435 102.245V102.245C434.435 103.381 433.514 104.301 432.378 104.301H408.613C407.477 104.301 406.557 103.381 406.557 102.245V102.245Z" fill="white"/>
<path d="M406.557 102.245C406.557 101.109 407.477 100.188 408.613 100.188H432.378C433.514 100.188 434.435 101.109 434.435 102.245V102.245C434.435 103.381 433.514 104.301 432.378 104.301H408.613C407.477 104.301 406.557 103.381 406.557 102.245V102.245Z" fill="#E2E9FF"/>
</g>
<g filter="url(#filter7_d_766_6853)">
<path d="M49.164 123.496H152.451C152.956 123.496 153.365 123.905 153.365 124.41V146.347H48.25V124.41C48.25 123.905 48.6592 123.496 49.164 123.496Z" fill="black"/>
</g>
<path fill-rule="evenodd" clip-rule="evenodd" d="M48.4785 146.119H153.137V124.41C153.137 124.032 152.83 123.725 152.451 123.725H49.164C48.7854 123.725 48.4785 124.032 48.4785 124.41V146.119Z" fill="url(#paint4_linear_766_6853)"/>
<path fill-rule="evenodd" clip-rule="evenodd" d="M48.25 124.41C48.25 123.905 48.6592 123.496 49.164 123.496H152.451C152.956 123.496 153.365 123.905 153.365 124.41V146.347H48.25V124.41ZM49.164 123.953C48.9116 123.953 48.707 124.158 48.707 124.41V145.89H152.908V124.41C152.908 124.158 152.704 123.953 152.451 123.953H49.164Z" fill="#7091F5"/>
<path d="M71.8566 135.563H69.9509L69.5229 136.75H68.9043L70.6413 132.201H71.1662L72.9064 136.75H72.2909L71.8566 135.563ZM70.1321 135.069H71.6786L70.9038 132.942L70.1321 135.069Z" fill="white"/>
<path d="M76.8272 135.307C76.771 135.788 76.5929 136.16 76.293 136.422C75.9951 136.682 75.5984 136.813 75.1027 136.813C74.5653 136.813 74.1342 136.62 73.8093 136.235C73.4864 135.849 73.325 135.334 73.325 134.688V134.251C73.325 133.828 73.4 133.456 73.5499 133.135C73.702 132.815 73.9165 132.569 74.1935 132.398C74.4705 132.225 74.7913 132.139 75.1558 132.139C75.639 132.139 76.0264 132.274 76.318 132.545C76.6096 132.814 76.7793 133.186 76.8272 133.663H76.2242C76.1722 133.301 76.0587 133.039 75.8837 132.876C75.7108 132.714 75.4682 132.632 75.1558 132.632C74.7725 132.632 74.4716 132.774 74.2529 133.057C74.0363 133.341 73.928 133.744 73.928 134.266V134.707C73.928 135.201 74.0311 135.593 74.2373 135.885C74.4435 136.176 74.7319 136.322 75.1027 136.322C75.4359 136.322 75.691 136.247 75.8681 136.097C76.0472 135.945 76.1659 135.682 76.2242 135.307H76.8272Z" fill="white"/>
<path d="M80.9949 135.307C80.9386 135.788 80.7605 136.16 80.4606 136.422C80.1628 136.682 79.766 136.813 79.2703 136.813C78.733 136.813 78.3018 136.62 77.9769 136.235C77.6541 135.849 77.4927 135.334 77.4927 134.688V134.251C77.4927 133.828 77.5676 133.456 77.7176 133.135C77.8696 132.815 78.0842 132.569 78.3612 132.398C78.6382 132.225 78.9589 132.139 79.3234 132.139C79.8066 132.139 80.194 132.274 80.4856 132.545C80.7772 132.814 80.947 133.186 80.9949 133.663H80.3919C80.3398 133.301 80.2263 133.039 80.0514 132.876C79.8785 132.714 79.6358 132.632 79.3234 132.632C78.9402 132.632 78.6392 132.774 78.4205 133.057C78.2039 133.341 78.0956 133.744 78.0956 134.266V134.707C78.0956 135.201 78.1987 135.593 78.4049 135.885C78.6111 136.176 78.8996 136.322 79.2703 136.322C79.6036 136.322 79.8587 136.247 80.0357 136.097C80.2149 135.945 80.3336 135.682 80.3919 135.307H80.9949Z" fill="white"/>
<path d="M82.4601 136.75H81.8603V132.201H82.4601V136.75Z" fill="white"/>
<path d="M87.0589 134.623C87.0589 135.068 86.9839 135.458 86.8339 135.791C86.684 136.122 86.4715 136.375 86.1966 136.55C85.9217 136.725 85.6009 136.813 85.2344 136.813C84.8761 136.813 84.5585 136.725 84.2815 136.55C84.0045 136.373 83.7889 136.122 83.6348 135.797C83.4827 135.47 83.4046 135.092 83.4005 134.663V134.335C83.4005 133.898 83.4765 133.511 83.6285 133.176C83.7806 132.841 83.9951 132.585 84.2721 132.408C84.5512 132.228 84.8699 132.139 85.2281 132.139C85.5926 132.139 85.9134 132.227 86.1904 132.404C86.4695 132.579 86.684 132.835 86.8339 133.17C86.9839 133.503 87.0589 133.892 87.0589 134.335V134.623ZM86.4622 134.329C86.4622 133.789 86.3539 133.376 86.1373 133.089C85.9206 132.799 85.6176 132.654 85.2281 132.654C84.8491 132.654 84.5502 132.799 84.3315 133.089C84.1149 133.376 84.0034 133.776 83.9972 134.288V134.623C83.9972 135.145 84.1065 135.557 84.3252 135.857C84.546 136.154 84.8491 136.303 85.2344 136.303C85.6218 136.303 85.9217 136.163 86.1341 135.882C86.3466 135.598 86.4559 135.193 86.4622 134.666V134.329Z" fill="white"/>
<path d="M91.4546 136.75H90.8516L88.5616 133.245V136.75H87.9586V132.201H88.5616L90.8579 135.722V132.201H91.4546V136.75Z" fill="white"/>
<path d="M95.0911 134.648H93.1198V136.26H95.4098V136.75H92.5199V132.201H95.3786V132.695H93.1198V134.157H95.0911V134.648Z" fill="white"/>
<path d="M97.4968 134.723C96.9823 134.575 96.6074 134.393 96.3721 134.179C96.1388 133.962 96.0221 133.696 96.0221 133.379C96.0221 133.021 96.1648 132.725 96.4502 132.492C96.7376 132.257 97.1104 132.139 97.5686 132.139C97.881 132.139 98.1591 132.199 98.4028 132.32C98.6485 132.441 98.8381 132.607 98.9714 132.82C99.1068 133.032 99.1744 133.265 99.1744 133.517H98.5715C98.5715 133.242 98.484 133.026 98.309 132.87C98.1341 132.712 97.8873 132.632 97.5686 132.632C97.2729 132.632 97.0417 132.698 96.875 132.829C96.7105 132.958 96.6282 133.139 96.6282 133.37C96.6282 133.555 96.7063 133.712 96.8626 133.842C97.0208 133.969 97.2885 134.085 97.6655 134.191C98.0445 134.298 98.3403 134.415 98.5527 134.544C98.7673 134.672 98.9255 134.82 99.0276 134.991C99.1317 135.162 99.1838 135.363 99.1838 135.594C99.1838 135.963 99.0401 136.259 98.7527 136.481C98.4653 136.702 98.081 136.813 97.5999 136.813C97.2874 136.813 96.9958 136.753 96.7251 136.635C96.4543 136.514 96.245 136.349 96.0971 136.141C95.9513 135.933 95.8784 135.696 95.8784 135.432H96.4814C96.4814 135.707 96.5824 135.924 96.7844 136.085C96.9886 136.243 97.2604 136.322 97.5999 136.322C97.9164 136.322 98.1591 136.258 98.3278 136.128C98.4965 135.999 98.5808 135.823 98.5808 135.6C98.5808 135.378 98.5027 135.206 98.3465 135.085C98.1903 134.962 97.9071 134.841 97.4968 134.723Z" fill="white"/>
<mask id="mask5_766_6853" style="mask-type:alpha" maskUnits="userSpaceOnUse" x="56" y="130" width="8" height="10">
<path d="M63.1034 132.351V138.635C63.1034 139.108 62.7197 139.492 62.2465 139.492H57.105C56.6317 139.492 56.248 139.108 56.248 138.635V132.351C56.248 131.878 56.6317 131.494 57.105 131.494H58.5332C58.5332 130.864 59.0457 130.352 59.6757 130.352C60.3057 130.352 60.8183 130.864 60.8183 131.494H62.2465C62.7197 131.494 63.1034 131.878 63.1034 132.351ZM59.6757 131.066C59.4391 131.066 59.2473 131.258 59.2473 131.494C59.2473 131.731 59.4391 131.923 59.6757 131.923C59.9123 131.923 60.1042 131.731 60.1042 131.494C60.1042 131.258 59.9123 131.066 59.6757 131.066ZM61.3895 133.101V132.744C61.3895 132.685 61.3416 132.637 61.2824 132.637H58.069C58.0098 132.637 57.9619 132.685 57.9619 132.744V133.101C57.9619 133.16 58.0098 133.208 58.069 133.208H61.2824C61.3416 133.208 61.3895 133.16 61.3895 133.101Z" fill="white"/>
</mask>
<g mask="url(#mask5_766_6853)">
<path d="M63.1034 132.351V138.635C63.1034 139.108 62.7197 139.492 62.2465 139.492H57.105C56.6317 139.492 56.248 139.108 56.248 138.635V132.351C56.248 131.878 56.6317 131.494 57.105 131.494H58.5332C58.5332 130.864 59.0457 130.352 59.6757 130.352C60.3057 130.352 60.8183 130.864 60.8183 131.494H62.2465C62.7197 131.494 63.1034 131.878 63.1034 132.351ZM59.6757 131.066C59.4391 131.066 59.2473 131.258 59.2473 131.494C59.2473 131.731 59.4391 131.923 59.6757 131.923C59.9123 131.923 60.1042 131.731 60.1042 131.494C60.1042 131.258 59.9123 131.066 59.6757 131.066ZM61.3895 133.101V132.744C61.3895 132.685 61.3416 132.637 61.2824 132.637H58.069C58.0098 132.637 57.9619 132.685 57.9619 132.744V133.101C57.9619 133.16 58.0098 133.208 58.069 133.208H61.2824C61.3416 133.208 61.3895 133.16 61.3895 133.101Z" fill="black"/>
<path d="M64.2459 130.352H55.1055V139.492H64.2459V130.352Z" fill="white"/>
</g>
<g filter="url(#filter8_d_766_6853)">
<path d="M688.995 155.945H526.752V172.398H688.995V155.945Z" fill="black"/>
</g>
<path d="M688.995 155.945H526.752V172.398H688.995V155.945Z" fill="#4D648D"/>
<path d="M688.995 155.945H526.752V172.398H688.995V155.945Z" fill="url(#paint5_linear_766_6853)"/>
<g opacity="0.3">
<path d="M533.15 164.4C533.15 162.254 534.89 160.515 537.035 160.515H609.702C611.847 160.515 613.586 162.254 613.586 164.4V164.4C613.586 166.545 611.847 168.285 609.702 168.285H537.035C534.89 168.285 533.15 166.545 533.15 164.4V164.4Z" fill="white"/>
<path d="M533.15 164.4C533.15 162.254 534.89 160.515 537.035 160.515H609.702C611.847 160.515 613.586 162.254 613.586 164.4V164.4C613.586 166.545 611.847 168.285 609.702 168.285H537.035C534.89 168.285 533.15 166.545 533.15 164.4V164.4Z" fill="white"/>
<path d="M533.15 164.4C533.15 162.254 534.89 160.515 537.035 160.515H609.702C611.847 160.515 613.586 162.254 613.586 164.4V164.4C613.586 166.545 611.847 168.285 609.702 168.285H537.035C534.89 168.285 533.15 166.545 533.15 164.4V164.4Z" fill="#E2E9FF" fill-opacity="0.3"/>
</g>
<g opacity="0.3">
<path d="M455.914 133.779C455.914 131.634 457.653 129.894 459.799 129.894H500.931C503.076 129.894 504.815 131.634 504.815 133.779V133.779C504.815 135.925 503.076 137.664 500.931 137.664H459.799C457.653 137.664 455.914 135.925 455.914 133.779V133.779Z" fill="white"/>
<path d="M455.914 133.779C455.914 131.634 457.653 129.894 459.799 129.894H500.931C503.076 129.894 504.815 131.634 504.815 133.779V133.779C504.815 135.925 503.076 137.664 500.931 137.664H459.799C457.653 137.664 455.914 135.925 455.914 133.779V133.779Z" fill="white"/>
<path d="M455.914 133.779C455.914 131.634 457.653 129.894 459.799 129.894H500.931C503.076 129.894 504.815 131.634 504.815 133.779V133.779C504.815 135.925 503.076 137.664 500.931 137.664H459.799C457.653 137.664 455.914 135.925 455.914 133.779V133.779Z" fill="#E2E9FF" fill-opacity="0.3"/>
</g>
<mask id="mask6_766_6853" style="mask-type:alpha" maskUnits="userSpaceOnUse" x="677" y="162" width="6" height="5">
<path d="M679.554 166.342L677.126 163.914C676.958 163.746 676.958 163.474 677.126 163.308L677.529 162.905C677.697 162.737 677.968 162.737 678.135 162.905L679.855 164.626L681.576 162.905C681.744 162.737 682.016 162.737 682.182 162.905L682.585 163.308C682.753 163.476 682.753 163.748 682.585 163.914L680.157 166.342C679.993 166.509 679.722 166.509 679.554 166.342Z" fill="white"/>
</mask>
<g mask="url(#mask6_766_6853)">
<path d="M679.554 166.342L677.126 163.914C676.958 163.746 676.958 163.474 677.126 163.308L677.529 162.905C677.697 162.737 677.968 162.737 678.135 162.905L679.855 164.626L681.576 162.905C681.744 162.737 682.016 162.737 682.182 162.905L682.585 163.308C682.753 163.476 682.753 163.748 682.585 163.914L680.157 166.342C679.993 166.509 679.722 166.509 679.554 166.342Z" fill="black"/>
<path d="M684.428 160.047L675.287 160.047L675.287 169.188L684.428 169.188L684.428 160.047Z" fill="white"/>
</g>
<g filter="url(#filter9_d_766_6853)">
<path d="M688.995 174.683H526.752V191.136H688.995V174.683Z" fill="black"/>
</g>
<path d="M688.995 174.683H526.752V191.136H688.995V174.683Z" fill="#4D648D"/>
<path d="M688.995 174.683H526.752V191.136H688.995V174.683Z" fill="url(#paint6_linear_766_6853)"/>
<g opacity="0.3">
<path d="M533.15 183.138C533.15 180.992 534.89 179.253 537.035 179.253H609.702C611.847 179.253 613.586 180.992 613.586 183.138V183.138C613.586 185.283 611.847 187.023 609.702 187.023H537.035C534.89 187.023 533.15 185.283 533.15 183.138V183.138Z" fill="white"/>
<path d="M533.15 183.138C533.15 180.992 534.89 179.253 537.035 179.253H609.702C611.847 179.253 613.586 180.992 613.586 183.138V183.138C613.586 185.283 611.847 187.023 609.702 187.023H537.035C534.89 187.023 533.15 185.283 533.15 183.138V183.138Z" fill="white"/>
<path d="M533.15 183.138C533.15 180.992 534.89 179.253 537.035 179.253H609.702C611.847 179.253 613.586 180.992 613.586 183.138V183.138C613.586 185.283 611.847 187.023 609.702 187.023H537.035C534.89 187.023 533.15 185.283 533.15 183.138V183.138Z" fill="#E2E9FF" fill-opacity="0.3"/>
</g>
<mask id="mask7_766_6853" style="mask-type:alpha" maskUnits="userSpaceOnUse" x="677" y="181" width="6" height="5">
<path d="M679.554 185.079L677.126 182.651C676.958 182.484 676.958 182.212 677.126 182.046L677.529 181.643C677.697 181.475 677.968 181.475 678.135 181.643L679.855 183.364L681.576 181.643C681.744 181.475 682.016 181.475 682.182 181.643L682.585 182.046C682.753 182.214 682.753 182.485 682.585 182.651L680.157 185.079C679.993 185.247 679.722 185.247 679.554 185.079Z" fill="white"/>
</mask>
<g mask="url(#mask7_766_6853)">
<path d="M679.554 185.079L677.126 182.651C676.958 182.484 676.958 182.212 677.126 182.046L677.529 181.643C677.697 181.475 677.968 181.475 678.135 181.643L679.855 183.364L681.576 181.643C681.744 181.475 682.016 181.475 682.182 181.643L682.585 182.046C682.753 182.214 682.753 182.485 682.585 182.651L680.157 185.079C679.993 185.247 679.722 185.247 679.554 185.079Z" fill="black"/>
<path d="M684.428 178.785L675.287 178.785L675.287 187.926L684.428 187.926L684.428 178.785Z" fill="white"/>
</g>
<mask id="mask8_766_6853" style="mask-type:alpha" maskUnits="userSpaceOnUse" x="681" y="223" width="7" height="4">
<path d="M684.124 226.669L681.696 224.241C681.528 224.073 681.528 223.801 681.696 223.635L682.1 223.232C682.267 223.064 682.539 223.064 682.705 223.232L684.426 224.953L686.147 223.232C686.315 223.064 686.586 223.064 686.752 223.232L687.155 223.635C687.323 223.803 687.323 224.075 687.155 224.241L684.728 226.669C684.563 226.836 684.292 226.836 684.124 226.669Z" fill="white"/>
</mask>
<g mask="url(#mask8_766_6853)">
<path d="M684.124 226.669L681.696 224.241C681.528 224.073 681.528 223.801 681.696 223.635L682.1 223.232C682.267 223.064 682.539 223.064 682.705 223.232L684.426 224.953L686.147 223.232C686.315 223.064 686.586 223.064 686.752 223.232L687.155 223.635C687.323 223.803 687.323 224.075 687.155 224.241L684.728 226.669C684.563 226.836 684.292 226.836 684.124 226.669Z" fill="black"/>
<path d="M688.996 220.375L679.855 220.375L679.855 229.515L688.996 229.515L688.996 220.375Z" fill="white"/>
</g>
<mask id="mask9_766_6853" style="mask-type:alpha" maskUnits="userSpaceOnUse" x="681" y="244" width="7" height="4">
<path d="M684.124 247.691L681.696 245.263C681.528 245.096 681.528 244.824 681.696 244.658L682.1 244.255C682.267 244.087 682.539 244.087 682.705 244.255L684.426 245.976L686.147 244.255C686.315 244.087 686.586 244.087 686.752 244.255L687.155 244.658C687.323 244.826 687.323 245.097 687.155 245.263L684.728 247.691C684.563 247.859 684.292 247.859 684.124 247.691Z" fill="white"/>
</mask>
<g mask="url(#mask9_766_6853)">
<path d="M684.124 247.691L681.696 245.263C681.528 245.096 681.528 244.824 681.696 244.658L682.1 244.255C682.267 244.087 682.539 244.087 682.705 244.255L684.426 245.976L686.147 244.255C686.315 244.087 686.586 244.087 686.752 244.255L687.155 244.658C687.323 244.826 687.323 245.097 687.155 245.263L684.728 247.691C684.563 247.859 684.292 247.859 684.124 247.691Z" fill="black"/>
<path d="M688.996 241.398L679.855 241.398L679.855 250.538L688.996 250.538L688.996 241.398Z" fill="white"/>
</g>
<mask id="mask10_766_6853" style="mask-type:alpha" maskUnits="userSpaceOnUse" x="681" y="265" width="7" height="4">
<path d="M684.124 268.714L681.696 266.286C681.528 266.119 681.528 265.847 681.696 265.681L682.1 265.278C682.267 265.11 682.539 265.11 682.705 265.278L684.426 266.999L686.147 265.278C686.315 265.11 686.586 265.11 686.752 265.278L687.155 265.681C687.323 265.849 687.323 266.12 687.155 266.287L684.728 268.714C684.563 268.882 684.292 268.882 684.124 268.714Z" fill="white"/>
</mask>
<g mask="url(#mask10_766_6853)">
<path d="M684.124 268.714L681.696 266.286C681.528 266.119 681.528 265.847 681.696 265.681L682.1 265.278C682.267 265.11 682.539 265.11 682.705 265.278L684.426 266.999L686.147 265.278C686.315 265.11 686.586 265.11 686.752 265.278L687.155 265.681C687.323 265.849 687.323 266.12 687.155 266.287L684.728 268.714C684.563 268.882 684.292 268.882 684.124 268.714Z" fill="black"/>
<path d="M688.996 262.421L679.855 262.421L679.855 271.561L688.996 271.561L688.996 262.421Z" fill="white"/>
</g>
<mask id="mask11_766_6853" style="mask-type:alpha" maskUnits="userSpaceOnUse" x="681" y="286" width="7" height="4">
<path d="M684.124 289.738L681.696 287.31C681.528 287.142 681.528 286.87 681.696 286.704L682.1 286.301C682.267 286.133 682.539 286.133 682.705 286.301L684.426 288.022L686.147 286.301C686.315 286.133 686.586 286.133 686.752 286.301L687.155 286.704C687.323 286.872 687.323 287.144 687.155 287.31L684.728 289.738C684.563 289.905 684.292 289.905 684.124 289.738Z" fill="white"/>
</mask>
<g mask="url(#mask11_766_6853)">
<path d="M684.124 289.738L681.696 287.31C681.528 287.142 681.528 286.87 681.696 286.704L682.1 286.301C682.267 286.133 682.539 286.133 682.705 286.301L684.426 288.022L686.147 286.301C686.315 286.133 686.586 286.133 686.752 286.301L687.155 286.704C687.323 286.872 687.323 287.144 687.155 287.31L684.728 289.738C684.563 289.905 684.292 289.905 684.124 289.738Z" fill="black"/>
<path d="M688.996 283.444L679.855 283.444L679.855 292.584L688.996 292.584L688.996 283.444Z" fill="white"/>
</g>
<path d="M689.027 387.655H672.283C671.543 387.655 670.943 388.255 670.943 388.995V405.739C670.943 406.479 671.543 407.079 672.283 407.079H689.027C689.767 407.079 690.367 406.479 690.367 405.739V388.995C690.367 388.255 689.767 387.655 689.027 387.655Z" fill="#6BBF59"/>
<path fill-rule="evenodd" clip-rule="evenodd" d="M689.027 388.325H672.283C671.913 388.325 671.613 388.625 671.613 388.995V405.739C671.613 406.109 671.913 406.409 672.283 406.409H689.027C689.397 406.409 689.697 406.109 689.697 405.739V388.995C689.697 388.625 689.397 388.325 689.027 388.325ZM672.283 387.655H689.027C689.767 387.655 690.367 388.255 690.367 388.995V405.739C690.367 406.479 689.767 407.079 689.027 407.079H672.283C671.543 407.079 670.943 406.479 670.943 405.739V388.995C670.943 388.255 671.543 387.655 672.283 387.655Z" fill="#6BBF59"/>
<mask id="mask12_766_6853" style="mask-type:alpha" maskUnits="userSpaceOnUse" x="676" y="392" width="10" height="10">
<path d="M685.092 398.116V396.617C685.092 396.356 684.882 396.146 684.621 396.146H681.917V393.442C681.917 393.181 681.707 392.971 681.446 392.971H679.947C679.686 392.971 679.476 393.181 679.476 393.442V396.146H676.772C676.511 396.146 676.301 396.356 676.301 396.617V398.116C676.301 398.377 676.511 398.587 676.772 398.587H679.476V401.291C679.476 401.552 679.686 401.762 679.947 401.762H681.446C681.707 401.762 681.917 401.552 681.917 401.291V398.587H684.621C684.882 398.587 685.092 398.377 685.092 398.116Z" fill="white"/>
</mask>
<g mask="url(#mask12_766_6853)">
<path d="M685.092 398.116V396.617C685.092 396.356 684.882 396.146 684.621 396.146H681.917V393.442C681.917 393.181 681.707 392.971 681.446 392.971H679.947C679.686 392.971 679.476 393.181 679.476 393.442V396.146H676.772C676.511 396.146 676.301 396.356 676.301 396.617V398.116C676.301 398.377 676.511 398.587 676.772 398.587H679.476V401.291C679.476 401.552 679.686 401.762 679.947 401.762H681.446C681.707 401.762 681.917 401.552 681.917 401.291V398.587H684.621C684.882 398.587 685.092 398.377 685.092 398.116Z" fill="black"/>
<path d="M685.718 392.344H675.672V402.39H685.718V392.344Z" fill="white"/>
</g>
<path d="M81.8191 97.446H80.8028L78.1959 93.2967V97.446H77.1797V91.5976H78.1959L80.8109 95.763V91.5976H81.8191V97.446Z" fill="#4D648D"/>
<path d="M83.9641 97.446H82.988V93.0999H83.9641V97.446ZM82.9277 91.9712C82.9277 91.8212 82.9746 91.6967 83.0683 91.5976C83.1647 91.4985 83.3013 91.449 83.478 91.449C83.6548 91.449 83.7913 91.4985 83.8877 91.5976C83.9841 91.6967 84.0323 91.8212 84.0323 91.9712C84.0323 92.1184 83.9841 92.2416 83.8877 92.3407C83.7913 92.4371 83.6548 92.4853 83.478 92.4853C83.3013 92.4853 83.1647 92.4371 83.0683 92.3407C82.9746 92.2416 82.9277 92.1184 82.9277 91.9712Z" fill="#4D648D"/>
<path d="M84.8478 95.2408C84.8478 94.5714 85.0031 94.0344 85.3137 93.6301C85.6243 93.2231 86.0407 93.0195 86.5629 93.0195C87.0235 93.0195 87.3957 93.1802 87.6796 93.5016V91.2762H88.6557V97.446H87.772L87.7238 96.9962C87.4319 97.3496 87.0423 97.5264 86.5549 97.5264C86.0461 97.5264 85.6337 97.3215 85.3177 96.9118C85.0044 96.5021 84.8478 95.9451 84.8478 95.2408ZM85.8238 95.3252C85.8238 95.767 85.9082 96.1125 86.0769 96.3615C86.2483 96.6079 86.4906 96.7311 86.8039 96.7311C87.2029 96.7311 87.4948 96.553 87.6796 96.1968V94.3411C87.5002 93.9929 87.211 93.8189 86.812 93.8189C86.496 93.8189 86.2523 93.9447 86.0809 94.1965C85.9095 94.4455 85.8238 94.8217 85.8238 95.3252Z" fill="#4D648D"/>
<path d="M90.7123 97.446H89.7362V93.0999H90.7123V97.446ZM89.6759 91.9712C89.6759 91.8212 89.7228 91.6967 89.8165 91.5976C89.9129 91.4985 90.0495 91.449 90.2262 91.449C90.403 91.449 90.5396 91.4985 90.636 91.5976C90.7324 91.6967 90.7806 91.8212 90.7806 91.9712C90.7806 92.1184 90.7324 92.2416 90.636 92.3407C90.5396 92.4371 90.403 92.4853 90.2262 92.4853C90.0495 92.4853 89.9129 92.4371 89.8165 92.3407C89.7228 92.2416 89.6759 92.1184 89.6759 91.9712Z" fill="#4D648D"/>
<path d="M94.3756 97.446C94.3328 97.363 94.2953 97.2278 94.2631 97.0404C93.9525 97.3644 93.5722 97.5264 93.1224 97.5264C92.6859 97.5264 92.3297 97.4019 92.0539 97.1528C91.7781 96.9038 91.6402 96.5958 91.6402 96.229C91.6402 95.7657 91.8115 95.4109 92.1543 95.1645C92.4998 94.9155 92.9925 94.7909 93.6325 94.7909H94.231V94.5058C94.231 94.2808 94.1681 94.1014 94.0422 93.9675C93.9163 93.8309 93.7249 93.7626 93.4678 93.7626C93.2455 93.7626 93.0634 93.8189 92.9215 93.9313C92.7796 94.0411 92.7086 94.1817 92.7086 94.3531H91.7325C91.7325 94.1148 91.8115 93.8925 91.9695 93.6863C92.1275 93.4775 92.3418 93.3141 92.6122 93.1963C92.8854 93.0784 93.1893 93.0195 93.524 93.0195C94.0328 93.0195 94.4385 93.1481 94.7411 93.4051C95.0437 93.6595 95.199 94.0184 95.2071 94.4817V96.4418C95.2071 96.8328 95.262 97.1448 95.3718 97.3778V97.446H94.3756ZM93.3031 96.7431C93.4959 96.7431 93.6767 96.6962 93.8454 96.6025C94.0168 96.5088 94.1453 96.3829 94.231 96.2249V95.4055H93.7048C93.3433 95.4055 93.0715 95.4684 92.8894 95.5943C92.7073 95.7202 92.6162 95.8982 92.6162 96.1285C92.6162 96.316 92.6778 96.4659 92.801 96.5784C92.9269 96.6882 93.0942 96.7431 93.3031 96.7431Z" fill="#4D648D"/>
<path d="M100.433 96.1727L101.919 91.5976H103.036L100.931 97.446H99.9469L97.8501 91.5976H98.9628L100.433 96.1727Z" fill="#4D648D"/>
<path d="M106.016 97.446C105.973 97.363 105.936 97.2278 105.904 97.0404C105.593 97.3644 105.213 97.5264 104.763 97.5264C104.327 97.5264 103.97 97.4019 103.695 97.1528C103.419 96.9038 103.281 96.5958 103.281 96.229C103.281 95.7657 103.452 95.4109 103.795 95.1645C104.14 94.9155 104.633 94.7909 105.273 94.7909H105.872V94.5058C105.872 94.2808 105.809 94.1014 105.683 93.9675C105.557 93.8309 105.366 93.7626 105.108 93.7626C104.886 93.7626 104.704 93.8189 104.562 93.9313C104.42 94.0411 104.349 94.1817 104.349 94.3531H103.373C103.373 94.1148 103.452 93.8925 103.61 93.6863C103.768 93.4775 103.982 93.3141 104.253 93.1963C104.526 93.0784 104.83 93.0195 105.165 93.0195C105.674 93.0195 106.079 93.1481 106.382 93.4051C106.684 93.6595 106.84 94.0184 106.848 94.4817V96.4418C106.848 96.8328 106.903 97.1448 107.012 97.3778V97.446H106.016ZM104.944 96.7431C105.137 96.7431 105.317 96.6962 105.486 96.6025C105.657 96.5088 105.786 96.3829 105.872 96.2249V95.4055H105.345C104.984 95.4055 104.712 95.4684 104.53 95.5943C104.348 95.7202 104.257 95.8982 104.257 96.1285C104.257 96.316 104.319 96.4659 104.442 96.5784C104.568 96.6882 104.735 96.7431 104.944 96.7431Z" fill="#4D648D"/>
<path d="M108.908 97.446H107.932V91.2762H108.908V97.446Z" fill="#4D648D"/>
<path d="M109.792 95.2408C109.792 94.5714 109.947 94.0344 110.258 93.6301C110.569 93.2231 110.985 93.0195 111.507 93.0195C111.968 93.0195 112.34 93.1802 112.624 93.5016V91.2762H113.6V97.446H112.716L112.668 96.9962C112.376 97.3496 111.987 97.5264 111.499 97.5264C110.99 97.5264 110.578 97.3215 110.262 96.9118C109.949 96.5021 109.792 95.9451 109.792 95.2408ZM110.768 95.3252C110.768 95.767 110.853 96.1125 111.021 96.3615C111.193 96.6079 111.435 96.7311 111.748 96.7311C112.147 96.7311 112.439 96.553 112.624 96.1968V94.3411C112.444 93.9929 112.155 93.8189 111.756 93.8189C111.44 93.8189 111.197 93.9447 111.025 94.1965C110.854 94.4455 110.768 94.8217 110.768 95.3252Z" fill="#4D648D"/>
<path d="M116.532 97.5264C115.914 97.5264 115.412 97.3322 115.026 96.9439C114.643 96.553 114.452 96.0335 114.452 95.3854V95.2649C114.452 94.8311 114.535 94.4442 114.701 94.1041C114.869 93.7613 115.105 93.4949 115.408 93.3047C115.71 93.1146 116.048 93.0195 116.42 93.0195C117.012 93.0195 117.468 93.2083 117.79 93.5859C118.114 93.9635 118.276 94.4977 118.276 95.1886V95.5823H115.436C115.465 95.9411 115.584 96.2249 115.793 96.4338C116.005 96.6427 116.27 96.7471 116.588 96.7471C117.036 96.7471 117.4 96.5664 117.681 96.2049L118.207 96.707C118.033 96.9667 117.8 97.1689 117.508 97.3135C117.219 97.4554 116.894 97.5264 116.532 97.5264ZM116.416 93.8028C116.148 93.8028 115.931 93.8965 115.765 94.084C115.602 94.2714 115.497 94.5325 115.452 94.8673H117.312V94.795C117.29 94.4683 117.203 94.2219 117.05 94.0559C116.898 93.8872 116.686 93.8028 116.416 93.8028ZM116.637 91.2762H117.749L116.637 92.4933H115.853L116.637 91.2762Z" fill="#4D648D"/>
<path d="M121.473 96.2651C121.473 96.091 121.401 95.9585 121.256 95.8674C121.114 95.7764 120.877 95.6961 120.545 95.6264C120.213 95.5568 119.936 95.4684 119.714 95.3613C119.226 95.1257 118.983 94.7842 118.983 94.337C118.983 93.9621 119.14 93.6488 119.456 93.3971C119.772 93.1454 120.174 93.0195 120.662 93.0195C121.181 93.0195 121.6 93.1481 121.919 93.4051C122.24 93.6622 122.401 93.9956 122.401 94.4053H121.425C121.425 94.2179 121.355 94.0626 121.216 93.9394C121.077 93.8135 120.892 93.7506 120.662 93.7506C120.447 93.7506 120.272 93.8001 120.135 93.8992C120.001 93.9983 119.934 94.1308 119.934 94.2969C119.934 94.4468 119.997 94.5633 120.123 94.6463C120.249 94.7294 120.504 94.8137 120.886 94.8994C121.269 94.9824 121.569 95.0828 121.786 95.2007C122.006 95.3158 122.168 95.4551 122.272 95.6184C122.379 95.7818 122.433 95.9799 122.433 96.2129C122.433 96.6039 122.271 96.9212 121.947 97.1649C121.623 97.4059 121.198 97.5264 120.674 97.5264C120.317 97.5264 120 97.4621 119.722 97.3336C119.443 97.205 119.226 97.0283 119.071 96.8034C118.916 96.5784 118.838 96.3361 118.838 96.0763H119.786C119.799 96.3066 119.886 96.4847 120.047 96.6106C120.208 96.7337 120.421 96.7953 120.686 96.7953C120.943 96.7953 121.138 96.7471 121.272 96.6507C121.406 96.5516 121.473 96.4231 121.473 96.2651Z" fill="#4D648D"/>
</g>
<defs>
<filter id="filter0_d_766_6853" x="0" y="0" width="746" height="466" filterUnits="userSpaceOnUse" color-interpolation-filters="sRGB">
<feFlood flood-opacity="0" result="BackgroundImageFix"/>
<feColorMatrix in="SourceAlpha" type="matrix" values="0 0 0 0 0 0 0 0 0 0 0 0 0 0 0 0 0 0 127 0" result="hardAlpha"/>
<feOffset dy="4"/>
<feGaussianBlur stdDeviation="2"/>
<feComposite in2="hardAlpha" operator="out"/>
<feColorMatrix type="matrix" values="0 0 0 0 0 0 0 0 0 0 0 0 0 0 0 0 0 0 0.25 0"/>
<feBlend mode="normal" in2="BackgroundImageFix" result="effect1_dropShadow_766_6853"/>
<feBlend mode="normal" in="SourceGraphic" in2="effect1_dropShadow_766_6853" result="shape"/>
</filter>
<filter id="filter1_d_766_6853" x="161.705" y="172.683" width="347.568" height="73.3542" filterUnits="userSpaceOnUse" color-interpolation-filters="sRGB">
<feFlood flood-opacity="0" result="BackgroundImageFix"/>
<feColorMatrix in="SourceAlpha" type="matrix" values="0 0 0 0 0 0 0 0 0 0 0 0 0 0 0 0 0 0 127 0" result="hardAlpha"/>
<feOffset dy="2"/>
<feGaussianBlur stdDeviation="2"/>
<feColorMatrix type="matrix" values="0 0 0 0 0 0 0 0 0 0 0 0 0 0 0 0 0 0 0.0285457 0"/>
<feBlend mode="normal" in2="BackgroundImageFix" result="effect1_dropShadow_766_6853"/>
<feBlend mode="normal" in="SourceGraphic" in2="effect1_dropShadow_766_6853" result="shape"/>
</filter>
<filter id="filter2_d_766_6853" x="161.705" y="257.232" width="347.568" height="29.48" filterUnits="userSpaceOnUse" color-interpolation-filters="sRGB">
<feFlood flood-opacity="0" result="BackgroundImageFix"/>
<feColorMatrix in="SourceAlpha" type="matrix" values="0 0 0 0 0 0 0 0 0 0 0 0 0 0 0 0 0 0 127 0" result="hardAlpha"/>
<feOffset dy="2"/>
<feGaussianBlur stdDeviation="2"/>
<feColorMatrix type="matrix" values="0 0 0 0 0 0 0 0 0 0 0 0 0 0 0 0 0 0 0.0285457 0"/>
<feBlend mode="normal" in2="BackgroundImageFix" result="effect1_dropShadow_766_6853"/>
<feBlend mode="normal" in="SourceGraphic" in2="effect1_dropShadow_766_6853" result="shape"/>
</filter>
<filter id="filter3_d_766_6853" x="140.936" y="107.496" width="392.762" height="56.8511" filterUnits="userSpaceOnUse" color-interpolation-filters="sRGB">
<feFlood flood-opacity="0" result="BackgroundImageFix"/>
<feColorMatrix in="SourceAlpha" type="matrix" values="0 0 0 0 0 0 0 0 0 0 0 0 0 0 0 0 0 0 127 0" result="hardAlpha"/>
<feOffset dy="1"/>
<feGaussianBlur stdDeviation="8.5"/>
<feColorMatrix type="matrix" values="0 0 0 0 0 0 0 0 0 0 0 0 0 0 0 0 0 0 0.145542 0"/>
<feBlend mode="normal" in2="BackgroundImageFix" result="effect1_dropShadow_766_6853"/>
<feBlend mode="normal" in="SourceGraphic" in2="effect1_dropShadow_766_6853" result="shape"/>
</filter>
<filter id="filter4_d_766_6853" x="444.602" y="124.696" width="69.2402" height="24.4528" filterUnits="userSpaceOnUse" color-interpolation-filters="sRGB">
<feFlood flood-opacity="0" result="BackgroundImageFix"/>
<feColorMatrix in="SourceAlpha" type="matrix" values="0 0 0 0 0 0 0 0 0 0 0 0 0 0 0 0 0 0 127 0" result="hardAlpha"/>
<feOffset dy="2"/>
<feGaussianBlur stdDeviation="2"/>
<feColorMatrix type="matrix" values="0 0 0 0 0 0 0 0 0 0 0 0 0 0 0 0 0 0 0.131529 0"/>
<feBlend mode="normal" in2="BackgroundImageFix" result="effect1_dropShadow_766_6853"/>
<feBlend mode="normal" in="SourceGraphic" in2="effect1_dropShadow_766_6853" result="shape"/>
</filter>
<filter id="filter5_d_766_6853" x="504.725" y="107.496" width="207.668" height="56.8511" filterUnits="userSpaceOnUse" color-interpolation-filters="sRGB">
<feFlood flood-opacity="0" result="BackgroundImageFix"/>
<feColorMatrix in="SourceAlpha" type="matrix" values="0 0 0 0 0 0 0 0 0 0 0 0 0 0 0 0 0 0 127 0" result="hardAlpha"/>
<feOffset dy="1"/>
<feGaussianBlur stdDeviation="8.5"/>
<feColorMatrix type="matrix" values="0 0 0 0 0 0 0 0 0 0 0 0 0 0 0 0 0 0 0.145542 0"/>
<feBlend mode="normal" in2="BackgroundImageFix" result="effect1_dropShadow_766_6853"/>
<feBlend mode="normal" in="SourceGraphic" in2="effect1_dropShadow_766_6853" result="shape"/>
</filter>
<filter id="filter6_d_766_6853" x="31.707" y="62.7083" width="680.688" height="70.5618" filterUnits="userSpaceOnUse" color-interpolation-filters="sRGB">
<feFlood flood-opacity="0" result="BackgroundImageFix"/>
<feColorMatrix in="SourceAlpha" type="matrix" values="0 0 0 0 0 0 0 0 0 0 0 0 0 0 0 0 0 0 127 0" result="hardAlpha"/>
<feOffset dy="1"/>
<feGaussianBlur stdDeviation="8.5"/>
<feColorMatrix type="matrix" values="0 0 0 0 0 0 0 0 0 0 0 0 0 0 0 0 0 0 0.145542 0"/>
<feBlend mode="normal" in2="BackgroundImageFix" result="effect1_dropShadow_766_6853"/>
<feBlend mode="normal" in="SourceGraphic" in2="effect1_dropShadow_766_6853" result="shape"/>
</filter>
<filter id="filter7_d_766_6853" x="31.25" y="107.496" width="139.115" height="56.8511" filterUnits="userSpaceOnUse" color-interpolation-filters="sRGB">
<feFlood flood-opacity="0" result="BackgroundImageFix"/>
<feColorMatrix in="SourceAlpha" type="matrix" values="0 0 0 0 0 0 0 0 0 0 0 0 0 0 0 0 0 0 127 0" result="hardAlpha"/>
<feOffset dy="1"/>
<feGaussianBlur stdDeviation="8.5"/>
<feColorMatrix type="matrix" values="0 0 0 0 0 0 0 0 0 0 0 0 0 0 0 0 0 0 0.145542 0"/>
<feBlend mode="normal" in2="BackgroundImageFix" result="effect1_dropShadow_766_6853"/>
<feBlend mode="normal" in="SourceGraphic" in2="effect1_dropShadow_766_6853" result="shape"/>
</filter>
<filter id="filter8_d_766_6853" x="522.752" y="153.945" width="170.242" height="24.4528" filterUnits="userSpaceOnUse" color-interpolation-filters="sRGB">
<feFlood flood-opacity="0" result="BackgroundImageFix"/>
<feColorMatrix in="SourceAlpha" type="matrix" values="0 0 0 0 0 0 0 0 0 0 0 0 0 0 0 0 0 0 127 0" result="hardAlpha"/>
<feOffset dy="2"/>
<feGaussianBlur stdDeviation="2"/>
<feColorMatrix type="matrix" values="0 0 0 0 0 0 0 0 0 0 0 0 0 0 0 0 0 0 0.0933949 0"/>
<feBlend mode="normal" in2="BackgroundImageFix" result="effect1_dropShadow_766_6853"/>
<feBlend mode="normal" in="SourceGraphic" in2="effect1_dropShadow_766_6853" result="shape"/>
</filter>
<filter id="filter9_d_766_6853" x="522.752" y="172.683" width="170.242" height="24.4528" filterUnits="userSpaceOnUse" color-interpolation-filters="sRGB">
<feFlood flood-opacity="0" result="BackgroundImageFix"/>
<feColorMatrix in="SourceAlpha" type="matrix" values="0 0 0 0 0 0 0 0 0 0 0 0 0 0 0 0 0 0 127 0" result="hardAlpha"/>
<feOffset dy="2"/>
<feGaussianBlur stdDeviation="2"/>
<feColorMatrix type="matrix" values="0 0 0 0 0 0 0 0 0 0 0 0 0 0 0 0 0 0 0.0933949 0"/>
<feBlend mode="normal" in2="BackgroundImageFix" result="effect1_dropShadow_766_6853"/>
<feBlend mode="normal" in="SourceGraphic" in2="effect1_dropShadow_766_6853" result="shape"/>
</filter>
<linearGradient id="paint0_linear_766_6853" x1="369" y1="0" x2="144.769" y2="414.563" gradientUnits="userSpaceOnUse">
<stop stop-color="#FDFDFF"/>
<stop offset="1" stop-color="white"/>
</linearGradient>
<linearGradient id="paint1_linear_766_6853" x1="30.3537" y1="22.8874" x2="399.304" y2="633.933" gradientUnits="userSpaceOnUse">
<stop stop-color="#7DB8FF"/>
<stop offset="0.0621" stop-color="#7CB6FF"/>
<stop offset="1" stop-color="#7194FF"/>
</linearGradient>
<linearGradient id="paint2_linear_766_6853" x1="129.306" y1="134.73" x2="244.82" y2="190.036" gradientUnits="userSpaceOnUse">
<stop stop-color="#A1C0FF"/>
<stop offset="1" stop-color="#7093FF"/>
</linearGradient>
<linearGradient id="paint3_linear_766_6853" x1="508.002" y1="134.102" x2="543.282" y2="168.949" gradientUnits="userSpaceOnUse">
<stop stop-color="#A1C0FF"/>
<stop offset="1" stop-color="#7093FF"/>
</linearGradient>
<linearGradient id="paint4_linear_766_6853" x1="40.0489" y1="132.684" x2="52.7676" y2="153.404" gradientUnits="userSpaceOnUse">
<stop stop-color="#A1C0FF"/>
<stop offset="1" stop-color="#7093FF"/>
</linearGradient>
<linearGradient id="paint5_linear_766_6853" x1="581.509" y1="152.303" x2="581.743" y2="160.792" gradientUnits="userSpaceOnUse">
<stop stop-color="#7093FF"/>
<stop offset="1" stop-color="#243F6D"/>
</linearGradient>
<linearGradient id="paint6_linear_766_6853" x1="581.509" y1="171.041" x2="581.743" y2="179.53" gradientUnits="userSpaceOnUse">
<stop stop-color="#7093FF"/>
<stop offset="1" stop-color="#243F6D"/>
</linearGradient>
<clipPath id="clip0_766_6853">
<rect width="14.0561" height="16.2755" fill="white" transform="translate(679.752 32.3511)"/>
</clipPath>
</defs>
</svg>
