<?xml version="1.0" encoding="UTF-8"?>
<svg id="Capa_2" data-name="Capa 2" xmlns="http://www.w3.org/2000/svg" viewBox="0 0 41.96 54.46">
  <defs>
    <style>
      .cls-1 {
        fill: #377dff;
      }

      .cls-2 {
        fill: #c3d8ff;
      }
    </style>
  </defs>
  <g id="Capa_1-2" data-name="Capa 1">
    <g>
      <g>
        <path class="cls-2" d="M41.96,16.54v34.88c0,1.68-1.36,3.05-3.05,3.05H3.05c-1.68,0-3.05-1.36-3.05-3.05V3.05C0,1.36,1.36,0,3.05,0h20.85v13.49c0,1.68,1.36,3.05,3.05,3.05h15.01Z"/>
        <path class="cls-1" d="M41.96,16.54h-15.01c-1.68,0-3.05-1.36-3.05-3.05V0l18.06,16.54Z"/>
      </g>
      <g>
        <circle class="cls-1" cx="20.98" cy="32.54" r="14.11"/>
        <circle class="cls-2" cx="14.02" cy="39.22" r="6.68"/>
        <g>
          <path class="cls-2" d="M19.95,20.49c11.65-.81,17.69,13.4,8.98,21.13-1.99,1.76-5.6,3.29-8.28,2.96-.87-.1-.83-1.41.06-1.46,1.19-.06,2.05-.06,3.24-.4,6.68-1.93,9.73-9.8,6.06-15.76-4.38-7.1-14.94-6.58-18.59.91-.81,1.65-1.06,3.38-1.13,5.2-.3.66-1.29.5-1.38-.21-.16-1.3.26-3.22.71-4.46,1.55-4.3,5.72-7.59,10.32-7.91Z"/>
          <path class="cls-2" d="M20.86,25.86c.37-.05.76.2.82.58v5.71s3.65,2.85,3.65,2.85c.5.74-.24,1.53-1.01,1.06-1.11-1.05-2.77-1.92-3.83-2.96-.09-.09-.16-.18-.2-.3l-.02-6.31c0-.3.31-.58.6-.62Z"/>
        </g>
        <g>
          <path class="cls-1" d="M19.14,39.49c0,2.83-2.29,5.12-5.12,5.12s-5.12-2.29-5.12-5.12,2.29-5.12,5.12-5.12,5.12,2.29,5.12,5.12ZM17.68,39.49c0-2.02-1.64-3.66-3.66-3.66s-3.66,1.64-3.66,3.66,1.64,3.66,3.66,3.66,3.66-1.64,3.66-3.66Z"/>
          <path class="cls-1" d="M12.35,38.77h3.32c.82.2.74,1.34-.09,1.45-.58.08-2.55.08-3.12,0-.83-.12-.89-1.2-.1-1.44Z"/>
        </g>
      </g>
    </g>
  </g>
</svg>