<svg width="509" height="452" viewBox="0 0 509 452" fill="none" xmlns="http://www.w3.org/2000/svg">
<path d="M463.717 259.003C462.214 259.003 460.975 257.784 460.975 256.261C460.975 254.737 462.193 253.519 463.717 253.519C465.24 253.519 466.459 254.737 466.459 256.261C466.459 257.784 465.24 259.003 463.717 259.003Z" fill="#71869D"/>
<path d="M402.11 259.003C400.607 259.003 399.368 257.784 399.368 256.261C399.368 254.737 400.587 253.519 402.11 253.519C403.634 253.519 404.852 254.737 404.852 256.261C404.852 257.784 403.634 259.003 402.11 259.003Z" fill="#71869D"/>
<path d="M463.717 320.609C462.214 320.609 460.975 319.39 460.975 317.867C460.975 316.344 462.193 315.125 463.717 315.125C465.24 315.125 466.459 316.344 466.459 317.867C466.459 319.39 465.24 320.609 463.717 320.609Z" fill="#71869D"/>
<g filter="url(#filter0_d_425_820)">
<path d="M440.027 296.885C440.027 320.939 418.824 343.033 383.793 359.173C348.849 375.273 300.502 385.258 247.047 385.258C193.591 385.258 145.245 375.273 110.3 359.173C75.27 343.033 54.0664 320.939 54.0664 296.885C54.0664 272.831 75.27 250.736 110.3 234.597C145.245 218.497 193.591 208.512 247.047 208.512C300.502 208.512 348.849 218.497 383.793 234.597C418.824 250.736 440.027 272.831 440.027 296.885Z" stroke="#7093FF" stroke-width="2"/>
<g filter="url(#filter1_d_425_820)">
<path d="M360.251 274.46L154.626 274.332L154.78 0.328125L284.541 0.405049L360.404 79.3436L360.251 274.46Z" fill="white"/>
<path d="M361.84 79.1387L284.542 79.0875L284.593 0.405273" fill="#D8D8D8"/>
<path fill-rule="evenodd" clip-rule="evenodd" d="M268.318 44.7171L184.664 44.6659V34.7217L268.318 34.7729V44.7171Z" fill="#D6D6D6"/>
<path fill-rule="evenodd" clip-rule="evenodd" d="M268.292 72.807L184.638 72.7557V62.8115L268.292 62.8628V72.807Z" fill="#D6D6D6"/>
<path fill-rule="evenodd" clip-rule="evenodd" d="M336.595 105.128L184.612 105.051V95.1064L336.595 95.1833V105.153V105.128Z" fill="#D6D6D6"/>
<path fill-rule="evenodd" clip-rule="evenodd" d="M336.57 137.421L184.562 137.318V127.374L336.57 127.477V137.421Z" fill="#D6D6D6"/>
<path fill-rule="evenodd" clip-rule="evenodd" d="M336.519 169.688L184.562 169.586V159.642L336.519 159.744V169.688Z" fill="#D6D6D6"/>
<path fill-rule="evenodd" clip-rule="evenodd" d="M336.543 201.979L184.535 201.877V191.933L336.543 192.035V201.979Z" fill="#D6D6D6"/>
<path d="M322.78 254.239C319.013 254.239 315.63 253.522 312.606 252.086C311.298 251.471 309.991 250.677 308.71 249.908C305.762 248.114 302.969 246.448 301.098 247.396C300.457 247.729 300.021 248.268 299.56 248.883C298.894 249.754 298.022 250.779 296.51 250.779C294.691 250.728 293.614 249.139 292.743 247.858C292.461 247.448 292.025 246.807 291.743 246.551C291.692 246.653 291.615 246.756 291.564 246.858C291.256 247.422 290.769 248.268 289.795 249.062C287.566 250.882 283.516 251.651 281.004 249.831C279.697 248.883 279.287 247.55 279.005 246.679C278.954 246.55 278.928 246.422 278.877 246.294C278.749 246.525 278.493 246.884 278.288 247.14C277.493 248.216 276.519 249.549 274.905 250.036C273.495 250.446 271.727 250.164 269.907 249.242C268.677 250.651 267.344 251.548 265.857 251.523C264.294 251.497 262.859 250.446 261.552 248.396L263.705 247.012C264.499 248.242 265.268 248.934 265.883 248.934C266.268 248.934 266.96 248.626 267.703 247.806C264.243 245.115 262.244 241.271 262.397 237.529C262.603 232.634 266.242 228.866 269.574 226.995C270.727 226.355 273.572 224.971 275.469 226.021C277.263 226.995 277.365 230.507 275.776 236.401C274.93 239.528 273.393 243.859 271.393 247.089C272.547 247.601 273.521 247.729 274.11 247.524C274.905 247.294 275.571 246.371 276.161 245.577C276.929 244.526 277.929 243.193 279.441 243.526C280.723 243.808 281.107 244.987 281.363 245.833C281.594 246.551 281.825 247.243 282.44 247.704C283.747 248.678 286.489 248.345 288.078 247.037C288.668 246.551 288.95 246.038 289.231 245.551C289.59 244.91 290.103 244.013 291.256 243.859C292.896 243.654 293.896 245.09 294.742 246.371C295.254 247.14 295.972 248.165 296.485 248.191C296.664 248.191 296.997 247.858 297.433 247.268C297.997 246.551 298.689 245.654 299.842 245.064C302.994 243.475 306.506 245.628 309.94 247.678C311.145 248.421 312.4 249.165 313.605 249.729C318.705 252.138 325.19 252.24 332.878 250.011L333.596 252.471C329.675 253.599 326.01 254.188 322.652 254.188L322.78 254.239ZM274.059 228.149C273.623 228.149 272.47 228.354 270.906 229.225C268.292 230.712 265.191 233.787 265.037 237.631C264.909 241.04 267.139 244.039 269.317 245.756C269.548 245.372 269.804 244.962 270.035 244.5C273.598 237.888 275.033 229.379 274.187 228.174C274.161 228.174 274.11 228.174 274.033 228.174L274.059 228.149Z" fill="black"/>
</g>
</g>
<g filter="url(#filter2_d_425_820)">
<rect x="6.34766" y="207.512" width="121.873" height="121.873" rx="60" fill="white"/>
</g>
<path d="M51.4403 236.762C47.0709 236.762 43.5186 240.314 43.5186 244.683V256.566H51.4403V244.683H79.5005L83.1271 248.31V256.566H91.0489V248.31C91.0489 246.206 90.2195 244.188 88.7342 242.703L85.1076 239.076C83.6222 237.591 81.6047 236.762 79.5005 236.762H51.4403Z" fill="#70D4FF"/>
<path d="M91.0477 260.527H43.5174C39.1481 260.527 35.5957 264.08 35.5957 268.449V280.332C35.5957 282.522 37.3657 284.292 39.5566 284.292H43.5174V292.214C43.5174 296.584 47.0698 300.136 51.4391 300.136H83.126C87.4953 300.136 91.0477 296.584 91.0477 292.214V284.292H95.0086C97.1994 284.292 98.9694 282.522 98.9694 280.332V268.449C98.9694 264.08 95.417 260.527 91.0477 260.527ZM83.126 284.292V292.214H51.4391V280.332H83.126V284.292ZM89.0673 273.4C87.4211 273.4 86.0966 272.076 86.0966 270.429C86.0966 268.783 87.4211 267.459 89.0673 267.459C90.7135 267.459 92.0379 268.783 92.0379 270.429C92.0379 272.076 90.7135 273.4 89.0673 273.4Z" fill="#7093FF"/>
<g filter="url(#filter3_d_425_820)">
<rect x="189.156" y="307.04" width="138.122" height="138.122" rx="60" fill="#7093FF"/>
</g>
<path d="M265.683 342.033C265.683 339.486 263.584 337.429 260.987 337.429C258.39 337.429 256.292 339.486 256.292 342.033V376.954L245.522 366.393C243.687 364.595 240.709 364.595 238.875 366.393C237.04 368.192 237.04 371.113 238.875 372.911L257.656 391.329C259.49 393.127 262.469 393.127 264.303 391.329L283.085 372.911C284.919 371.113 284.919 368.192 283.085 366.393C281.251 364.595 278.272 364.595 276.438 366.393L265.683 376.954V342.033Z" fill="white"/>
<path d="M288.95 388.535H274.164L267.565 395.183C263.923 398.852 258.023 398.852 254.381 395.183L247.797 388.535H233.011C227.868 388.535 223.688 392.747 223.688 397.927V402.624C223.688 407.804 227.868 412.016 233.011 412.016H288.95C294.093 412.016 298.274 407.804 298.274 402.624V397.927C298.274 392.747 294.093 388.535 288.95 388.535ZM286.619 403.798C284.682 403.798 283.123 402.227 283.123 400.276C283.123 398.324 284.682 396.753 286.619 396.753C288.557 396.753 290.116 398.324 290.116 400.276C290.116 402.227 288.557 403.798 286.619 403.798Z" fill="white"/>
<g filter="url(#filter4_d_425_820)">
<rect x="384.153" y="207.512" width="121.873" height="121.873" rx="60" fill="white"/>
</g>
<path d="M421.438 245.293C418.348 245.293 415.84 247.75 415.84 250.778C415.84 252.503 416.668 254.126 418.079 255.166L443.459 273.814C444.789 274.785 446.608 274.785 447.938 273.814L473.318 255.166C474.729 254.126 475.557 252.503 475.557 250.778C475.557 247.75 473.05 245.293 469.959 245.293H421.438Z" fill="#70D4FF"/>
<path d="M415.84 259.917V283.216C415.84 287.17 419.187 290.385 423.305 290.385H468.093C472.21 290.385 475.557 287.17 475.557 283.216V259.917L450.177 278.198C447.518 280.113 443.879 280.113 441.22 278.198L415.84 259.917Z" fill="#7093FF"/>
<defs>
<filter id="filter0_d_425_820" x="45.0664" y="0.328125" width="395.961" height="393.93" filterUnits="userSpaceOnUse" color-interpolation-filters="sRGB">
<feFlood flood-opacity="0" result="BackgroundImageFix"/>
<feColorMatrix in="SourceAlpha" type="matrix" values="0 0 0 0 0 0 0 0 0 0 0 0 0 0 0 0 0 0 127 0" result="hardAlpha"/>
<feOffset dx="-4" dy="4"/>
<feGaussianBlur stdDeviation="2"/>
<feComposite in2="hardAlpha" operator="out"/>
<feColorMatrix type="matrix" values="0 0 0 0 0 0 0 0 0 0 0 0 0 0 0 0 0 0 0.15 0"/>
<feBlend mode="normal" in2="BackgroundImageFix" result="effect1_dropShadow_425_820"/>
<feBlend mode="normal" in="SourceGraphic" in2="effect1_dropShadow_425_820" result="shape"/>
</filter>
<filter id="filter1_d_425_820" x="146.626" y="0.328125" width="215.214" height="282.132" filterUnits="userSpaceOnUse" color-interpolation-filters="sRGB">
<feFlood flood-opacity="0" result="BackgroundImageFix"/>
<feColorMatrix in="SourceAlpha" type="matrix" values="0 0 0 0 0 0 0 0 0 0 0 0 0 0 0 0 0 0 127 0" result="hardAlpha"/>
<feOffset dx="-4" dy="4"/>
<feGaussianBlur stdDeviation="2"/>
<feComposite in2="hardAlpha" operator="out"/>
<feColorMatrix type="matrix" values="0 0 0 0 0 0 0 0 0 0 0 0 0 0 0 0 0 0 0.15 0"/>
<feBlend mode="normal" in2="BackgroundImageFix" result="effect1_dropShadow_425_820"/>
<feBlend mode="normal" in="SourceGraphic" in2="effect1_dropShadow_425_820" result="shape"/>
</filter>
<filter id="filter2_d_425_820" x="0.347656" y="205.512" width="129.873" height="129.873" filterUnits="userSpaceOnUse" color-interpolation-filters="sRGB">
<feFlood flood-opacity="0" result="BackgroundImageFix"/>
<feColorMatrix in="SourceAlpha" type="matrix" values="0 0 0 0 0 0 0 0 0 0 0 0 0 0 0 0 0 0 127 0" result="hardAlpha"/>
<feMorphology radius="2" operator="dilate" in="SourceAlpha" result="effect1_dropShadow_425_820"/>
<feOffset dx="-2" dy="2"/>
<feGaussianBlur stdDeviation="1"/>
<feComposite in2="hardAlpha" operator="out"/>
<feColorMatrix type="matrix" values="0 0 0 0 0 0 0 0 0 0 0 0 0 0 0 0 0 0 0.15 0"/>
<feBlend mode="normal" in2="BackgroundImageFix" result="effect1_dropShadow_425_820"/>
<feBlend mode="normal" in="SourceGraphic" in2="effect1_dropShadow_425_820" result="shape"/>
</filter>
<filter id="filter3_d_425_820" x="183.156" y="305.04" width="146.122" height="146.122" filterUnits="userSpaceOnUse" color-interpolation-filters="sRGB">
<feFlood flood-opacity="0" result="BackgroundImageFix"/>
<feColorMatrix in="SourceAlpha" type="matrix" values="0 0 0 0 0 0 0 0 0 0 0 0 0 0 0 0 0 0 127 0" result="hardAlpha"/>
<feMorphology radius="2" operator="dilate" in="SourceAlpha" result="effect1_dropShadow_425_820"/>
<feOffset dx="-2" dy="2"/>
<feGaussianBlur stdDeviation="1"/>
<feComposite in2="hardAlpha" operator="out"/>
<feColorMatrix type="matrix" values="0 0 0 0 0 0 0 0 0 0 0 0 0 0 0 0 0 0 0.15 0"/>
<feBlend mode="normal" in2="BackgroundImageFix" result="effect1_dropShadow_425_820"/>
<feBlend mode="normal" in="SourceGraphic" in2="effect1_dropShadow_425_820" result="shape"/>
</filter>
<filter id="filter4_d_425_820" x="378.153" y="205.512" width="129.873" height="129.873" filterUnits="userSpaceOnUse" color-interpolation-filters="sRGB">
<feFlood flood-opacity="0" result="BackgroundImageFix"/>
<feColorMatrix in="SourceAlpha" type="matrix" values="0 0 0 0 0 0 0 0 0 0 0 0 0 0 0 0 0 0 127 0" result="hardAlpha"/>
<feMorphology radius="2" operator="dilate" in="SourceAlpha" result="effect1_dropShadow_425_820"/>
<feOffset dx="-2" dy="2"/>
<feGaussianBlur stdDeviation="1"/>
<feComposite in2="hardAlpha" operator="out"/>
<feColorMatrix type="matrix" values="0 0 0 0 0 0 0 0 0 0 0 0 0 0 0 0 0 0 0.15 0"/>
<feBlend mode="normal" in2="BackgroundImageFix" result="effect1_dropShadow_425_820"/>
<feBlend mode="normal" in="SourceGraphic" in2="effect1_dropShadow_425_820" result="shape"/>
</filter>
</defs>
</svg>
