<svg width="219" height="186" viewBox="0 0 219 186" fill="none" xmlns="http://www.w3.org/2000/svg">
<g filter="url(#filter0_d_418_508)">
<path d="M164.869 152.956H18.1874C12.5618 152.956 8 148.394 8 142.769V10.1874C8 4.5618 12.5618 0 18.1874 0H164.869C170.494 0 175.056 4.5618 175.056 10.1874V142.769C175.056 148.394 170.494 152.956 164.869 152.956Z" fill="white"/>
</g>
<path d="M116.834 23.4763H156.106C157.566 23.4763 158.774 22.3043 158.774 20.8078C158.774 19.3112 157.566 18.1392 156.106 18.1392H116.834C115.374 18.1392 114.166 19.3112 114.166 20.8078C114.166 22.3043 115.374 23.4763 116.834 23.4763Z" fill="#1487E3"/>
<path d="M116.834 32.708H156.106C157.566 32.708 158.774 31.536 158.774 30.0394C158.774 28.5429 157.566 27.3708 156.106 27.3708H116.834C115.374 27.3708 114.166 28.5429 114.166 30.0394C114.166 31.536 115.374 32.708 116.834 32.708Z" fill="#70D4FF"/>
<path d="M116.834 41.9399H156.106C157.566 41.9399 158.774 40.7679 158.774 39.2713C158.774 37.7748 157.566 36.6028 156.106 36.6028H116.834C115.374 36.6028 114.166 37.7748 114.166 39.2713C114.166 40.7679 115.374 41.9399 116.834 41.9399Z" fill="#70D4FF"/>
<path d="M100.841 38.0452C95.0351 21.8354 79.5286 11.8643 63.2106 12.3512C59.2618 12.4593 55.259 13.1986 51.3102 14.6231C39.4098 18.8964 30.8632 28.3445 27.3652 39.5598C24.913 47.3311 24.913 55.9138 27.87 64.1719C28.1585 64.9833 28.4831 65.8127 28.8257 66.588C30.3944 70.1582 32.3958 73.3857 34.848 76.2346C44.9994 88.171 61.8222 93.2017 77.4189 87.6301C97.5775 80.4358 108.053 58.2398 100.859 38.0993V38.0452H100.841ZM74.1013 78.4524C62.3812 82.6536 49.7956 78.8491 42.2046 69.9058C40.3835 67.7962 38.8508 65.3439 37.7149 62.6754C37.4625 62.0984 37.21 61.4673 36.9937 60.8542C34.7759 54.6877 34.812 48.2146 36.6331 42.4267C39.2656 34.0243 45.6485 26.9201 54.5918 23.7286C57.5489 22.6648 60.542 22.1239 63.4991 22.0518C75.7601 21.6912 87.372 29.174 91.7174 41.3268C97.0906 56.4367 89.2291 73.0431 74.1193 78.4524H74.1013Z" fill="#7194FF"/>
<path d="M36.5971 42.4449L27.3292 39.5599C30.8272 28.3627 39.3739 18.8605 51.2742 14.6232C55.223 13.2348 59.1898 12.4775 63.1746 12.3513L63.4631 22.07C60.506 22.1421 57.4769 22.7191 54.5559 23.7469C45.6486 26.9203 39.2296 34.0064 36.5971 42.4449Z" fill="#4D648D"/>
<path d="M37.6788 62.6755L28.7715 66.5521C28.447 65.7587 28.1224 64.9473 27.8159 64.136C24.8588 55.8778 24.8949 47.3131 27.311 39.5238L36.5789 42.4088C34.7578 48.2147 34.7578 54.6698 36.9395 60.8363C37.192 61.4854 37.4083 62.0804 37.6608 62.6574H37.6788V62.6755Z" fill="#B2D0E9"/>
<path d="M34.7939 76.2167C32.3778 73.3678 30.3403 70.1583 28.7716 66.5882L37.6789 62.7115C38.8509 65.3801 40.3835 67.8143 42.1685 69.942L34.7939 76.2167Z" fill="#A1C0FF"/>
<path d="M134.415 61.7198C127.996 58.6546 120.513 60.2954 115.879 65.2178C114.743 66.4259 113.805 67.8143 113.066 69.3469C110.848 74.053 111.101 79.354 113.354 83.6634C114.923 86.6565 117.411 89.1808 120.693 90.7135C121.018 90.8577 121.342 91.002 121.685 91.1462C123.181 91.7232 124.714 92.1019 126.247 92.2101C132.702 92.7149 139.103 89.2891 142.024 83.0864C145.864 75.0627 142.42 65.4883 134.433 61.7379H134.415V61.7198ZM138.435 81.3374C136.254 85.9714 131.421 88.5678 126.607 88.1711C125.435 88.0629 124.299 87.8105 123.181 87.3598C122.929 87.2516 122.676 87.1434 122.46 87.0352C120.008 85.8632 118.115 83.97 116.943 81.7341C115.266 78.5246 115.049 74.5398 116.726 71.0057C117.267 69.8337 118.006 68.824 118.836 67.9044C122.298 64.2261 127.887 63.0181 132.738 65.2719C138.688 68.1569 141.284 75.3151 138.435 81.3374Z" fill="#7093FF"/>
<path d="M116.943 81.8063L113.408 83.6635C111.137 79.3541 110.884 74.1071 113.12 69.347C113.841 67.7783 114.797 66.3899 115.933 65.2179L118.854 67.9586C118.006 68.8421 117.285 69.8879 116.744 71.0599C115.067 74.5939 115.248 78.5427 116.961 81.7883H116.943V81.8063Z" fill="#4D648D"/>
<path d="M123.181 87.3958L121.721 91.1282C121.396 90.9839 121.072 90.8758 120.729 90.6955C117.448 89.1628 114.959 86.6385 113.391 83.6454L116.925 81.7882C118.097 84.006 119.99 85.9173 122.442 87.0893C122.659 87.1975 122.911 87.3057 123.163 87.4138H123.181V87.3958Z" fill="#B8CDEB"/>
<path d="M126.283 92.2099C124.75 92.1017 123.218 91.7411 121.721 91.1461L123.181 87.4137C124.317 87.8464 125.453 88.0989 126.607 88.2071L126.283 92.1919V92.2099Z" fill="#4AAFFF"/>
<path d="M122.622 102.758H92.6912V102.181H122.045V89.4694H122.622V102.758Z" fill="#4AAFFF"/>
<path d="M108.468 95.9602H92.6912V99.5303H108.468V95.9602Z" fill="#E0E0E0"/>
<g filter="url(#filter1_d_418_508)">
<path d="M211.298 177.37H75.7962C71.9916 177.37 68.9264 174.305 68.9264 170.5V117.94C68.9264 114.136 71.9916 111.071 75.7962 111.071H211.298C215.103 111.071 218.168 114.136 218.168 117.94V170.5C218.168 174.305 215.103 177.37 211.298 177.37Z" fill="white"/>
</g>
<path d="M97.5595 124.594H90.9602V168.481H97.5595V124.594Z" fill="#E0E0E0"/>
<path d="M113.986 133.501H107.386V168.463H113.986V133.501Z" fill="#E0E0E0"/>
<path d="M130.412 126.956H123.812V168.499H130.412V126.956Z" fill="#E0E0E0"/>
<path d="M146.838 139.92H140.238V168.499H146.838V139.92Z" fill="#E0E0E0"/>
<path d="M163.264 128.308H156.665V168.499H163.264V128.308Z" fill="#E0E0E0"/>
<path d="M179.726 122.25H173.127V168.499H179.726V122.25Z" fill="#E0E0E0"/>
<path d="M196.152 119.725H189.553V168.499H196.152V119.725Z" fill="#E0E0E0"/>
<path d="M97.5595 140.948H90.9602V168.463H97.5595V140.948Z" fill="#7093FF"/>
<path d="M113.986 146.537H107.386V168.481H113.986V146.537Z" fill="#7093FF"/>
<path d="M130.412 142.444H123.812V168.517H130.412V142.444Z" fill="#7093FF"/>
<path d="M146.838 150.54H140.238V168.463H146.838V150.54Z" fill="#7093FF"/>
<path d="M163.264 143.274H156.665V168.499H163.264V143.274Z" fill="#7093FF"/>
<path d="M179.726 139.487H173.127V168.499H179.726V139.487Z" fill="#7093FF"/>
<path d="M196.152 137.882H189.553V168.481H196.152V137.882Z" fill="#7093FF"/>
<defs>
<filter id="filter0_d_418_508" x="0" y="0" width="175.056" height="160.956" filterUnits="userSpaceOnUse" color-interpolation-filters="sRGB">
<feFlood flood-opacity="0" result="BackgroundImageFix"/>
<feColorMatrix in="SourceAlpha" type="matrix" values="0 0 0 0 0 0 0 0 0 0 0 0 0 0 0 0 0 0 127 0" result="hardAlpha"/>
<feOffset dx="-4" dy="4"/>
<feGaussianBlur stdDeviation="2"/>
<feComposite in2="hardAlpha" operator="out"/>
<feColorMatrix type="matrix" values="0 0 0 0 0 0 0 0 0 0 0 0 0 0 0 0 0 0 0.15 0"/>
<feBlend mode="normal" in2="BackgroundImageFix" result="effect1_dropShadow_418_508"/>
<feBlend mode="normal" in="SourceGraphic" in2="effect1_dropShadow_418_508" result="shape"/>
</filter>
<filter id="filter1_d_418_508" x="60.9264" y="111.071" width="157.242" height="74.2996" filterUnits="userSpaceOnUse" color-interpolation-filters="sRGB">
<feFlood flood-opacity="0" result="BackgroundImageFix"/>
<feColorMatrix in="SourceAlpha" type="matrix" values="0 0 0 0 0 0 0 0 0 0 0 0 0 0 0 0 0 0 127 0" result="hardAlpha"/>
<feOffset dx="-4" dy="4"/>
<feGaussianBlur stdDeviation="2"/>
<feComposite in2="hardAlpha" operator="out"/>
<feColorMatrix type="matrix" values="0 0 0 0 0 0 0 0 0 0 0 0 0 0 0 0 0 0 0.15 0"/>
<feBlend mode="normal" in2="BackgroundImageFix" result="effect1_dropShadow_418_508"/>
<feBlend mode="normal" in="SourceGraphic" in2="effect1_dropShadow_418_508" result="shape"/>
</filter>
</defs>
</svg>
