<svg width="1702" height="1485" viewBox="0 0 1702 1485" fill="none" xmlns="http://www.w3.org/2000/svg">
<g clip-path="url(#clip0_27_128)">
<path d="M1701.48 869.36H0V929.16H1701.48V869.36Z" fill="#8E98AE"/>
<path d="M449.61 515.71L448.95 515.85C446.96 516.28 445.02 516.83 443.12 517.49C430.99 521.68 420.86 530.3 414.77 541.79C414.67 541.98 414.57 542.17 414.48 542.36L404.61 544.61L403.58 550.35C402.13 550.59 400.7 550.93 399.29 551.36C400.49 546.26 402.35 541.28 404.86 536.54C412.5 522.13 425.36 511.41 440.72 506.48C442.63 505.86 444.58 505.33 446.57 504.9L447.23 504.76L449.61 515.71Z" fill="#F1EEDB"/>
<path d="M753.28 871C787.52 842.94 808.66 802.52 813.01 759.16L814.46 742.79L858.52 735.12L957.26 742.79L958.71 759.16C962.73 802.89 984.2 843.31 1018.44 871L1019.89 872.08H752.16L753.24 871H753.28Z" fill="#FFFFFB"/>
<path opacity="0.8" d="M960.57 759.2C962.02 774.5 965.67 789.42 971.51 803.64H799.94C805.78 789.42 809.39 774.5 810.88 759.2L812.33 742.83L857.51 735.16L958.78 742.83L960.6 759.2H960.56H960.57Z" fill="#CCCBCA"/>
<path d="M583.91 316.58H1194.07C1211.19 316.58 1225.03 330.43 1225.03 347.54V744.98C1225.03 762.1 1211.19 775.94 1194.07 775.94H583.91C566.79 775.94 552.95 762.1 552.95 744.98V347.54C552.95 330.42 566.79 316.58 583.91 316.58Z" fill="#00325B"/>
<path d="M1225.36 707.47V744.98C1225.36 762.1 1211.52 775.95 1194.4 775.95H583.91C566.79 775.95 552.95 762.1 552.95 744.98V707.47H1225.41H1225.37H1225.36Z" fill="#FFFFFB"/>
<path opacity="0.8" d="M885.88 755.55C876.43 755.55 868.76 747.88 868.76 738.43C868.76 728.98 876.43 721.31 885.88 721.31C895.33 721.31 903 728.98 903 738.43C903 747.88 895.33 755.55 885.88 755.55Z" fill="#CCCBCA"/>
<path d="M573.71 336.97H1198.09V680.11H573.71V336.97Z" fill="white"/>
<path d="M683.94 487.33C708.54 487.33 728.48 467.39 728.48 442.79C728.48 418.19 708.54 398.25 683.94 398.25C659.34 398.25 639.4 418.19 639.4 442.79C639.4 467.39 659.34 487.33 683.94 487.33Z" fill="#F7F7F7"/>
<path d="M683.94 403.69C705.49 403.69 723.03 421.23 723.03 442.78C723.03 464.33 705.49 481.87 683.94 481.87C662.39 481.87 644.85 464.33 644.85 442.78C644.85 421.23 662.39 403.69 683.94 403.69ZM683.94 392.78C656.33 392.78 633.94 415.16 633.94 442.78C633.94 470.4 656.33 492.78 683.94 492.78C711.55 492.78 733.94 470.39 733.94 442.78C733.94 415.17 711.55 392.78 683.94 392.78Z" fill="#C2D8F9"/>
<path d="M704.77 421.45C704.85 421.1 704.62 420.9 704.26 421L698.01 423.11C697.66 423.23 697.61 423.52 697.89 423.76L699 424.73C699.28 424.98 699.32 425.41 699.09 425.68L689.11 438.22C688.88 438.51 688.45 438.56 688.16 438.34L676.88 429.96C676.59 429.75 676.06 429.48 675.71 429.39C675.36 429.3 674.39 429.88 674.13 430.13L661.7 442.04C661.44 442.3 661.1 442.78 660.96 443.12C660.96 443.12 660.67 443.86 661.18 444.38C661.44 444.66 661.79 444.78 662.15 444.78C662.51 444.78 662.52 444.76 662.52 444.76C662.83 444.56 663.31 444.19 663.57 443.94L675.19 432.82C675.45 432.56 675.91 432.54 676.2 432.76L687.62 441.24C687.91 441.45 688.45 441.7 688.8 441.79L689.42 441.71C689.74 441.54 690.19 441.17 690.42 440.88L701.13 427.43C701.36 427.14 701.78 427.11 702.05 427.34L702.88 428.06C703.16 428.31 703.45 428.2 703.51 427.84L704.8 421.44H704.78L704.77 421.45Z" fill="#7093FF"/>
<path fill-rule="evenodd" clip-rule="evenodd" d="M705.03 464.36C705.03 465.24 704.31 465.96 703.43 465.96H662.89C662.24 465.96 661.68 465.68 661.28 465.22C660.96 464.93 660.76 464.5 660.76 464.03V456.34C660.76 455.46 661.48 454.74 662.36 454.74H665.56C666.44 454.74 667.16 455.46 667.16 456.34V463.8H673.13V441.48C673.13 440.6 673.85 439.88 674.73 439.88H677.91C678.79 439.88 679.51 440.6 679.51 441.48V463.8H685.9V448.12C685.9 447.24 686.62 446.52 687.5 446.52H690.68C691.56 446.52 692.28 447.24 692.28 448.12V463.8H698.65V435.43C698.65 434.55 699.37 433.83 700.25 433.83H703.47C704.35 433.83 705.07 434.55 705.07 435.43V464.37L705.04 464.35L705.03 464.36Z" fill="#70D4FF"/>
<path d="M683.72 483.69C706.66 483.69 724.84 465.38 724.84 442.78C724.84 420.18 706.66 401.87 683.72 401.87V406.78C703.87 406.78 720.27 422.93 720.27 442.78C720.27 462.63 703.87 478.78 683.72 478.78V483.69Z" fill="#7093FF"/>
<path d="M684.14 478.79C663.99 478.79 647.59 462.63 647.59 442.79C647.59 422.95 663.99 406.79 684.14 406.79V401.88C661.2 401.88 643.02 420.19 643.02 442.79C643.02 465.39 661.2 483.7 684.14 483.7V478.79Z" fill="#70CCFF"/>
<path d="M890.94 487.33C915.54 487.33 935.48 467.39 935.48 442.78C935.48 418.17 915.54 398.23 890.94 398.23C866.34 398.23 846.39 418.17 846.39 442.78C846.39 467.39 866.33 487.33 890.94 487.33Z" fill="#F7F7F7"/>
<path d="M890.94 403.69C912.5 403.69 930.03 421.22 930.03 442.78C930.03 464.34 912.5 481.87 890.94 481.87C869.38 481.87 851.85 464.34 851.85 442.78C851.85 421.22 869.38 403.69 890.94 403.69ZM890.94 392.78C863.32 392.78 840.94 415.16 840.94 442.78C840.94 470.4 863.32 492.78 890.94 492.78C918.56 492.78 940.94 470.4 940.94 442.78C940.94 415.16 918.56 392.78 890.94 392.78Z" fill="#C2D8F9"/>
<path d="M894.94 437.55C894.28 436.9 893.32 436.37 891.99 435.91C891.79 435.82 891.5 435.75 891.3 435.71C890.7 435.46 890.37 435.22 890.08 434.93C889.75 434.6 889.64 434.24 889.64 433.69C889.64 433.14 889.8 432.67 890.08 432.38C890.37 432.09 890.73 431.92 891.3 431.92C891.87 431.92 892.46 432.12 892.79 432.54C893.12 432.94 893.28 433.52 893.28 434.25V434.58H895.79V434.22C895.79 432.95 895.46 431.89 894.86 431.11C894.3 430.42 893.53 429.93 892.55 429.76V427.63H890.44V429.76C889.48 429.92 888.7 430.32 888.13 431C887.47 431.69 887.17 432.64 887.17 433.75C887.17 434.86 887.53 435.84 888.22 436.53C888.91 437.18 889.71 437.68 891 438.08C891.07 438.12 891.29 438.21 891.36 438.24C892.05 438.48 892.69 438.8 892.98 439.15C893.31 439.48 893.47 439.84 893.47 440.33C893.47 440.89 893.31 441.35 892.91 441.64C892.55 441.93 891.98 442.1 891.33 442.13C890.73 442.13 890.17 441.97 889.71 441.6C889.31 441.27 889.11 440.65 889.11 439.8V439.44H886.76L886.69 439.64V439.68L886.65 439.72V439.79C886.61 441.19 886.98 442.24 887.74 442.99C888.4 443.64 889.23 444.06 890.25 444.21V446.05H892.4V444.21C893.45 444.05 894.31 443.65 894.91 443.03C895.6 442.34 895.96 441.39 895.96 440.21C896 439.16 895.63 438.21 894.94 437.56H894.92L894.94 437.55Z" fill="#7093FF"/>
<path d="M891.34 452.77V460.62H868.61C866.46 460.62 864.72 458.86 864.72 456.69V443.76H881.21L886.3 452.76H891.34V452.77Z" fill="#7093FF"/>
<path d="M917.87 444V456.69C917.87 458.85 916.13 460.62 913.98 460.62H891.33V452.77H896.35L901.44 443.77H917.89C917.85 443.9 917.85 443.93 917.85 444.01H917.87V444Z" fill="#70D4FF"/>
<path d="M904.07 426.04L911.18 439.66H899.09L897.91 441.7L893.98 448.61H888.6L884.67 441.7L883.49 439.66H871.4L878.51 426.04H904.07ZM906.49 421.95H876.13L866.18 441.02L864.76 443.67L864.72 443.8H881.21L886.3 452.8H896.34L901.43 443.8H917.92L917.88 443.67L916.46 441.02L906.48 421.95H906.49Z" fill="#70D4FF"/>
<path d="M904.07 426.04L911.18 439.66H899.09L897.93 441.71L894 448.62H891.33C891.33 448.62 890.93 452.13 891.33 452.71H896.35L901.44 443.71H917.93L917.89 443.58L916.47 440.93L906.52 421.91H891.32V426H904.06" fill="#7093FF"/>
<path d="M890.72 483.7C913.65 483.7 931.83 465.37 931.83 442.79C931.83 420.21 913.63 401.88 890.72 401.88V406.79C910.87 406.79 927.27 422.95 927.27 442.79C927.27 462.63 910.87 478.79 890.72 478.79V483.7Z" fill="#7093FF"/>
<path d="M891.14 478.79C870.99 478.79 854.6 462.63 854.6 442.79C854.6 422.95 871 406.79 891.14 406.79V401.88C868.21 401.88 850.03 420.21 850.03 442.79C850.03 465.37 868.23 483.7 891.14 483.7V478.79Z" fill="#70D4FF"/>
<path d="M1097.94 487.34C1122.55 487.34 1142.5 467.39 1142.5 442.78C1142.5 418.17 1122.55 398.22 1097.94 398.22C1073.33 398.22 1053.38 418.17 1053.38 442.78C1053.38 467.39 1073.33 487.34 1097.94 487.34Z" fill="#F7F7F7"/>
<path d="M1097.94 403.7C1119.5 403.7 1137.03 421.23 1137.03 442.79C1137.03 464.35 1119.5 481.88 1097.94 481.88C1076.38 481.88 1058.85 464.35 1058.85 442.79C1058.85 421.23 1076.38 403.7 1097.94 403.7ZM1097.94 392.79C1070.32 392.79 1047.94 415.17 1047.94 442.79C1047.94 470.41 1070.32 492.79 1097.94 492.79C1125.56 492.79 1147.94 470.41 1147.94 442.79C1147.94 415.17 1125.56 392.79 1097.94 392.79Z" fill="#C2D8F9"/>
<path d="M1097.94 483.7C1120.76 483.7 1138.85 465.37 1138.85 442.79C1138.85 420.21 1120.76 401.88 1097.94 401.88V406.79C1117.98 406.79 1134.32 422.95 1134.32 442.79C1134.32 462.63 1117.98 478.79 1097.94 478.79V483.7Z" fill="#7093FF"/>
<path d="M1097.94 478.79C1077.9 478.79 1061.56 462.63 1061.56 442.79C1061.56 422.95 1077.9 406.79 1097.94 406.79V401.88C1075.12 401.88 1057.03 420.21 1057.03 442.79C1057.03 465.37 1075.12 483.7 1097.94 483.7V478.79Z" fill="#70D4FF"/>
<path d="M1105.72 433.39C1105.87 433.39 1106.01 433.35 1106.16 433.3L1116.81 430.19C1117.96 429.86 1118.61 428.68 1118.27 427.52C1117.94 426.37 1116.76 425.72 1115.61 426.05L1104.96 429.16C1103.81 429.49 1103.16 430.67 1103.5 431.83C1103.78 432.81 1104.72 433.48 1105.7 433.39H1105.72Z" fill="#7093FF"/>
<path d="M1080.72 445.36H1097.94V434.76H1072.65C1071.47 434.76 1070.52 435.69 1070.52 436.89C1070.52 438.09 1071.5 439.02 1072.65 439.02H1077.47V452.93C1077.47 453.08 1077.52 453.22 1077.56 453.37C1075.67 454.02 1074.34 455.79 1074.34 457.9C1074.34 460.57 1076.47 462.68 1079.12 462.68C1081.77 462.68 1083.9 460.55 1083.9 457.9C1083.9 455.81 1082.54 454.01 1080.67 453.37C1080.72 453.24 1080.76 453.08 1080.76 452.93V445.35H1080.72V445.36ZM1081.1 457.92C1081.1 458.99 1080.23 459.88 1079.14 459.88C1078.05 459.88 1077.18 459.01 1077.18 457.92C1077.18 456.83 1078.05 455.96 1079.14 455.96C1080.23 455.96 1081.1 456.85 1081.1 457.92Z" fill="#7093FF"/>
<path d="M1124.58 426.61C1123.7 425.88 1122.34 425.99 1121.56 426.9L1115.01 434.79H1097.94V445.39H1109.23V453.46C1107.34 454.1 1106.01 455.88 1106.01 457.99C1106.01 460.66 1108.14 462.77 1110.78 462.77C1113.42 462.77 1115.56 460.64 1115.56 457.99C1115.56 455.95 1114.25 454.19 1112.41 453.48V439.08H1116.98L1124.81 429.64C1125.58 428.73 1125.45 427.4 1124.56 426.62H1124.58V426.61ZM1112.92 457.94C1112.92 459.01 1112.05 459.9 1110.96 459.9C1109.87 459.9 1109.01 459.03 1109.01 457.94C1109.01 456.85 1109.87 455.98 1110.96 455.98C1112.05 455.98 1112.92 456.89 1112.92 457.94Z" fill="#70D4FF"/>
<path d="M683.94 622.32C708.53 622.32 728.47 602.38 728.47 577.79C728.47 553.2 708.53 533.26 683.94 533.26C659.35 533.26 639.41 553.2 639.41 577.79C639.41 602.38 659.35 622.32 683.94 622.32Z" fill="#F7F7F7"/>
<path d="M683.94 538.69C705.51 538.69 723.04 556.22 723.04 577.79C723.04 599.36 705.51 616.89 683.94 616.89C662.37 616.89 644.84 599.36 644.84 577.79C644.84 556.22 662.37 538.69 683.94 538.69ZM683.94 527.79C656.34 527.79 633.94 550.19 633.94 577.79C633.94 605.39 656.34 627.79 683.94 627.79C711.54 627.79 733.94 605.39 733.94 577.79C733.94 550.19 711.54 527.79 683.94 527.79Z" fill="#C2D8F9"/>
<path d="M671.64 571.15C672.44 571.15 673.11 570.52 673.11 569.75C673.11 568.98 672.44 568.35 671.64 568.35C670.84 568.35 670.17 568.98 670.17 569.75C670.17 570.52 670.84 571.15 671.64 571.15Z" fill="#7093FF"/>
<path d="M681.84 571.15C682.64 571.15 683.31 570.52 683.31 569.75C683.31 568.98 682.64 568.35 681.84 568.35C681.04 568.35 680.37 568.98 680.37 569.75C680.37 570.52 681.04 571.15 681.84 571.15Z" fill="#7093FF"/>
<path d="M692.24 571.15C693.04 571.15 693.71 570.52 693.71 569.75C693.71 568.98 693.04 568.35 692.24 568.35C691.44 568.35 690.77 568.98 690.77 569.75C690.77 570.52 691.44 571.15 692.24 571.15Z" fill="#7093FF"/>
<path d="M671.64 578.35C672.44 578.35 673.11 577.72 673.11 576.95C673.11 576.18 672.44 575.55 671.64 575.55C670.84 575.55 670.17 576.18 670.17 576.95C670.17 577.72 670.84 578.35 671.64 578.35Z" fill="#7093FF"/>
<path d="M671.64 585.92C672.44 585.92 673.11 585.29 673.11 584.52C673.11 583.75 672.44 583.12 671.64 583.12C670.84 583.12 670.17 583.75 670.17 584.52C670.17 585.29 670.84 585.92 671.64 585.92Z" fill="#7093FF"/>
<path fill-rule="evenodd" clip-rule="evenodd" d="M692.17 563.72C691.47 563.72 690.9 563.19 690.84 562.49H667.64C666.07 562.49 664.77 563.79 664.77 565.36V588.83C664.77 590.4 666.07 591.7 667.64 591.7H681.37C681.77 592.67 682.27 593.53 682.87 594.37H667.64C664.61 594.37 662.11 591.9 662.11 588.84V565.37C662.11 562.34 664.61 559.87 667.64 559.87H690.84V558.67C690.84 557.94 691.44 557.34 692.17 557.34C692.9 557.34 693.5 557.94 693.5 558.67V559.87H696.37C699.4 559.87 701.9 562.34 701.9 565.37V581.04C701.17 579.94 700.27 578.97 699.23 578.17V565.37C699.23 563.8 697.93 562.5 696.36 562.5H693.49C693.42 563.17 692.86 563.73 692.16 563.73L692.17 563.72Z" fill="#7093FF"/>
<path d="M698.14 590.09H692.17C691.57 590.09 691.07 589.59 691.07 588.99V579.92C691.07 579.32 691.57 578.82 692.17 578.82C692.77 578.82 693.27 579.32 693.27 579.92V587.89H698.14C698.74 587.89 699.24 588.39 699.24 588.99C699.24 589.59 698.74 590.09 698.14 590.09Z" fill="#7093FF"/>
<path fill-rule="evenodd" clip-rule="evenodd" d="M681.91 563.85C682.64 563.85 683.24 563.25 683.24 562.52V558.75C683.24 558.02 682.64 557.42 681.91 557.42C681.18 557.42 680.58 558.02 680.58 558.75V559.85H672.91V558.85C672.91 558.12 672.31 557.52 671.58 557.52C670.85 557.52 670.25 558.12 670.25 558.85V559.85H667.65C664.62 559.85 662.12 562.32 662.12 565.38V588.85C662.12 591.88 664.62 594.35 667.65 594.35H679.72C682.15 598.72 686.82 601.65 692.19 601.65C700.09 601.65 706.46 595.25 706.46 587.38C706.46 583.25 704.69 579.55 701.89 576.95C701.09 576.22 700.19 575.55 699.22 574.98C697.12 573.78 694.72 573.11 692.15 573.11C684.25 573.11 677.88 579.51 677.88 587.38C677.88 588.88 678.11 590.35 678.55 591.68H667.65C666.08 591.68 664.78 590.38 664.78 588.81V565.34C664.78 563.77 666.08 562.47 667.65 562.47H670.25V562.57C670.25 563.3 670.85 563.9 671.58 563.9C672.31 563.9 672.91 563.3 672.91 562.57V562.47H680.58C680.58 563.2 681.18 563.8 681.91 563.8V563.83V563.85ZM692.18 599.02C688.38 599.02 685.01 597.19 682.88 594.39C682.28 593.59 681.78 592.69 681.38 591.72C680.85 590.39 680.55 588.92 680.55 587.42C680.55 581.02 685.75 575.82 692.18 575.82C694.85 575.82 697.28 576.72 699.25 578.22C700.28 579.02 701.18 579.99 701.92 581.09C703.12 582.92 703.82 585.09 703.82 587.46C703.82 593.86 698.62 599.06 692.19 599.06V599.03L692.18 599.02Z" fill="#70CCFF"/>
<path d="M683.74 618.69C706.67 618.69 724.87 600.39 724.87 577.79C724.87 555.19 706.7 536.89 683.74 536.89V541.79C703.91 541.79 720.27 557.96 720.27 577.79C720.27 597.62 703.87 613.79 683.74 613.79V618.69Z" fill="#7093FF"/>
<path d="M684.14 613.79C663.97 613.79 647.61 597.62 647.61 577.79C647.61 557.96 664.01 541.79 684.14 541.79V536.89C661.21 536.89 643.01 555.19 643.01 577.79C643.01 600.39 661.18 618.69 684.14 618.69V613.79Z" fill="#70CCFF"/>
<path d="M1097.94 623.25C1123.05 623.25 1143.4 602.9 1143.4 577.79C1143.4 552.68 1123.05 532.33 1097.94 532.33C1072.83 532.33 1052.48 552.68 1052.48 577.79C1052.48 602.9 1072.83 623.25 1097.94 623.25Z" fill="#F7F7F7"/>
<path d="M1097.94 536.87C1120.51 536.87 1138.85 555.21 1138.85 577.78C1138.85 600.35 1120.51 618.7 1097.94 618.7C1075.37 618.7 1057.03 600.36 1057.03 577.78C1057.03 555.2 1075.37 536.87 1097.94 536.87ZM1097.94 527.78C1070.34 527.78 1047.94 550.18 1047.94 577.78C1047.94 605.38 1070.34 627.78 1097.94 627.78C1125.54 627.78 1147.94 605.41 1147.94 577.78C1147.94 550.15 1125.57 527.78 1097.94 527.78Z" fill="#C2D8F9"/>
<path d="M1097.94 618.7C1120.77 618.7 1138.85 600.38 1138.85 577.78C1138.85 555.18 1120.77 536.87 1097.94 536.87V541.78C1118 541.78 1134.31 557.95 1134.31 577.78C1134.31 597.61 1118 613.78 1097.94 613.78V618.7Z" fill="#7093FF"/>
<path d="M1097.94 613.79C1077.88 613.79 1061.57 597.62 1061.57 577.79C1061.57 557.96 1077.88 541.79 1097.94 541.79V536.88C1075.11 536.88 1057.03 555.19 1057.03 577.79C1057.03 600.39 1075.11 618.71 1097.94 618.71V613.79Z" fill="#70D4FF"/>
<path d="M1099.23 594.5C1098.03 593.3 1096.57 592.59 1095.03 592.24L1109 578.44L1107.83 570.1L1119.11 558.99L1118.68 554.05L1103.77 568.76L1104.94 577.1L1087.03 594.79C1083.91 598.08 1083.97 603.22 1087.2 606.36C1090.48 609.59 1095.85 609.59 1099.17 606.28C1102.45 603.05 1102.48 597.76 1099.2 594.51H1099.23V594.5ZM1089.91 603.7C1088.14 601.93 1088.17 599.04 1090 597.24C1091.83 595.44 1094.77 595.41 1096.54 597.15C1098.31 598.92 1098.28 601.81 1096.45 603.61C1094.63 605.44 1091.68 605.44 1089.91 603.69V603.7Z" fill="#70D4FF"/>
<path d="M1073.25 580.76C1069.94 584.05 1069.88 589.36 1073.17 592.59C1076.37 595.73 1081.57 595.82 1084.91 592.76L1102.83 575.07L1111.28 576.21L1126.2 561.5L1121.17 561.1L1109.88 572.21L1101.43 571.07L1087.45 584.87C1087.11 583.36 1086.37 581.87 1085.17 580.73C1081.94 577.5 1076.54 577.5 1073.23 580.76H1073.25ZM1076 583.45C1077.83 581.65 1080.77 581.62 1082.54 583.36C1084.31 585.13 1084.28 588.02 1082.45 589.82C1080.63 591.62 1077.68 591.65 1075.91 589.91C1074.14 588.17 1074.17 585.25 1076 583.45Z" fill="#7093FF"/>
<path d="M890.94 622.31C915.54 622.31 935.49 602.36 935.49 577.76C935.49 553.16 915.54 533.21 890.94 533.21C866.34 533.21 846.39 553.16 846.39 577.76C846.39 602.36 866.34 622.31 890.94 622.31Z" fill="#F7F7F7"/>
<path d="M890.94 538.69C912.49 538.69 930.04 556.21 930.04 577.79C930.04 599.37 912.52 616.89 890.94 616.89C869.36 616.89 851.84 599.37 851.84 577.79C851.84 556.21 869.36 538.69 890.94 538.69ZM890.94 527.79C863.32 527.79 840.94 550.17 840.94 577.79C840.94 605.41 863.32 627.79 890.94 627.79C918.56 627.79 940.94 605.41 940.94 577.79C940.94 550.17 918.56 527.79 890.94 527.79Z" fill="#C2D8F9"/>
<path d="M890.74 618.69C913.66 618.69 931.86 600.36 931.86 577.79C931.86 555.22 913.66 536.89 890.74 536.89V541.79C910.89 541.79 927.29 557.94 927.29 577.79C927.29 597.64 910.89 613.79 890.74 613.79V618.69Z" fill="#7093FF"/>
<path d="M891.16 613.76C871.01 613.76 854.61 597.61 854.61 577.76C854.61 557.91 871.01 541.76 891.16 541.76V536.86C868.24 536.86 850.04 555.19 850.04 577.76C850.04 600.33 868.24 618.66 891.16 618.66V613.76Z" fill="#70D4FF"/>
<path d="M891.16 587.76V595.61H867.81C865.61 595.61 863.84 593.86 863.84 591.69V578.76H880.79L886.02 587.76H891.17H891.16Z" fill="#7093FF"/>
<path d="M918.39 579.01V591.69C918.39 593.86 916.61 595.61 914.41 595.61H891.16V587.76H896.31L901.53 578.76H918.43C918.43 578.76 918.38 578.94 918.38 579.01H918.39Z" fill="#70D4FF"/>
<path d="M904.24 561.04L911.54 574.66H899.12L897.92 576.71L893.9 583.64H888.37L884.35 576.71L883.15 574.66H870.73L878.03 561.04H904.25H904.24ZM906.74 556.94H875.54L865.32 576.01L863.87 578.66L863.82 578.78H880.77L885.99 587.78H896.29L901.52 578.78H918.47L918.42 578.66L916.97 576.01L906.72 556.94H906.74Z" fill="#70D4FF"/>
<path d="M904.24 561.04L911.54 574.66H899.12L897.92 576.71L893.9 583.64H891.15C891.15 583.64 890.73 587.16 891.15 587.74H896.3L901.53 578.74H918.48L918.43 578.62L916.98 575.97L906.75 556.95H891.13V561.05H904.21" fill="#7093FF"/>
<path d="M886.52 556.86L881.29 562.01C879.47 563.81 879.47 566.76 881.29 568.56C883.12 570.36 886.12 570.36 887.94 568.56L893.16 563.44L886.51 556.86H886.52Z" fill="#70D4FF"/>
<path d="M896.94 571.46C899.22 571.46 901.04 569.63 901.04 567.41C901.04 565.19 899.19 563.36 896.94 563.36C894.69 563.36 892.84 565.19 892.84 567.41C892.84 569.63 894.69 571.46 896.94 571.46Z" fill="#7093FF"/>
<path d="M893.99 564.64C892.47 566.24 892.47 568.74 894.04 570.29C895.62 571.84 898.19 571.84 899.77 570.34L893.99 564.67V564.64Z" fill="#70D4FF"/>
<path d="M886.52 556.86L893.17 563.41L898.57 558.08C900.4 556.28 900.4 553.33 898.57 551.53C896.74 549.73 893.74 549.73 891.92 551.53" fill="#7093FF"/>
<path d="M879.94 565.79C879.94 565.61 879.89 565.46 879.89 565.29C879.89 565.46 879.89 565.61 879.94 565.79Z" fill="#7093FF"/>
<path d="M880.24 567.06C880.16 566.88 880.12 566.68 880.07 566.54C880.12 566.71 880.19 566.86 880.24 567.06Z" fill="#7093FF"/>
<path d="M883.39 569.76C883.22 569.71 883.01 569.63 882.84 569.58C883.01 569.66 883.16 569.71 883.39 569.76Z" fill="#7093FF"/>
<g opacity="0.1">
<path d="M550 328.23C555.47 320.23 565.29 315.13 576.61 315.13H1194.4C1211.89 315.13 1225.74 327.9 1225.74 343.52V674.64L550 328.23Z" fill="#00325B"/>
</g>
<g opacity="0.3">
<path d="M704.82 716.92L633.77 554.8C650.14 571.17 739.43 733.29 786.77 811.64C832.28 815.29 873.82 819.64 943.41 829.84L952.53 844.43L968.9 837.13C991.11 840.03 1003.88 841.48 1018.06 849.9L952.48 864.49C952.48 864.49 806.78 848.12 773.99 829.88C741.2 811.68 704.77 716.96 704.77 716.96L704.81 716.92H704.82Z" fill="white"/>
</g>
<path d="M569.22 209.18L565.07 220.79V209.18H569.22Z" fill="#98B8FF"/>
<path d="M1405.62 723.14C1411.46 723.89 1420.54 724.59 1430.4 724.59H1430.78C1434.05 724.59 1437.7 724.59 1441.35 724.22C1445.7 723.85 1450.09 723.47 1454.45 723.14C1471.57 720.94 1488.68 715.47 1498.51 703.45C1501.78 699.43 1503.98 695.45 1505.43 691.8C1506.18 689.98 1506.51 688.53 1506.88 686.7C1509.45 673.23 1501.41 662.66 1498.51 651.01C1496.31 642.26 1497.06 633.14 1507.96 622.24C1548.75 582.53 1541.12 519.9 1497.02 531.54C1438.36 546.84 1499.21 591.65 1416.89 618.59C1415.81 618.96 1414.69 619.34 1413.24 619.67C1410.34 620.75 1407.77 621.87 1405.24 622.94L1405.62 723.13V723.14Z" fill="#6183BA"/>
<path d="M1494.86 586.14C1494.86 586.14 1448.97 648.82 1413.62 701.62C1410.72 705.64 1408.15 709.99 1405.62 714.02V703.82C1408.19 699.8 1410.72 695.82 1413.62 691.8C1441.68 649.56 1477 599.98 1494.86 586.14Z" fill="#4D648D"/>
<path d="M1369.18 495.82C1328.39 546.81 1407.44 547.55 1358.98 621.13C1357.91 622.58 1356.79 624.4 1355.71 626.23C1354.63 627.68 1353.51 629.13 1352.43 630.96L1400.52 729.32C1401.6 729.69 1402.34 730.07 1403.09 730.07C1405.29 730.82 1406.36 730.82 1406.36 730.82C1406.36 730.82 1407.44 730.45 1409.26 729.37H1409.64C1410.01 729 1410.72 728.62 1411.09 728.62C1427.83 719.17 1481.76 686.01 1483.59 648.12C1485.04 622.25 1469.74 614.96 1456.64 606.58C1445.37 599.28 1435.17 591.28 1438.78 569.44C1448.97 506.77 1400.52 456.53 1369.18 495.86V495.82Z" fill="#8ED2DD"/>
<path d="M1404.17 569.39C1404.17 569.39 1404.54 591.24 1404.54 621.83C1404.54 648.44 1404.17 681.56 1403.46 712.9V716.17C1403.46 720.9 1403.09 725.62 1403.09 730.02V734.04L1408.93 745.69C1409.31 740.22 1409.31 734.75 1409.68 728.94V724.22C1410.76 689.23 1411.5 648.82 1410.05 616.78C1408.97 596.39 1407.15 578.89 1404.21 569.44L1404.17 569.4V569.39Z" fill="#6183BA"/>
<path d="M1401.6 735.49C1373.53 751.16 1344.77 730.02 1338.22 722.02C1336.02 719.12 1334.57 716.55 1333.49 714.02C1333.12 712.94 1332.75 711.82 1332.41 710.37C1330.59 701.25 1336.06 694 1338.26 685.95C1339.71 679.77 1339.34 673.56 1331.71 666.26C1303.65 638.94 1309.12 596.33 1339.38 604.33C1379.46 614.9 1357.57 648.39 1394.01 663.69C1430.07 679.36 1429.7 719.77 1401.68 735.44L1401.6 735.48V735.49Z" fill="#9BDDB9"/>
<path d="M1340.41 647.36C1340.41 647.36 1371.75 689.97 1395.79 726.04C1397.62 728.94 1402.34 735.86 1404.17 738.43L1407.07 735.53C1405.24 732.96 1397.95 721.68 1396.12 719.16C1376.43 690.77 1352.77 656.86 1340.37 647.41L1340.41 647.37V647.36Z" fill="#6183BA"/>
<path d="M1407.81 738.77H1495.61V863C1495.61 868.85 1490.88 873.57 1485.04 873.57H1330.59C1324.75 873.57 1320.02 868.84 1320.02 863V738.77H1407.81Z" fill="#BDCDFF"/>
<path d="M1407.81 708.17H1511.98C1518.16 708.17 1522.55 714.35 1520.35 720.56L1509.78 748.95C1508.33 752.6 1505.06 754.79 1501.04 754.79H1313.43C1309.41 754.79 1306.13 752.22 1304.68 748.95L1294.11 720.56C1291.92 714.71 1296.31 708.17 1302.86 708.17H1407.81Z" fill="#4D648D"/>
<path d="M644 1477.29H546.5C559.1 1412.54 589.15 1218.53 605.98 1207.84C641.55 1185.33 710.27 1184.05 721.21 1207.84C726.23 1218.7 667.87 1370.59 643.99 1477.29H644Z" fill="#243F6D"/>
<path d="M373.65 1115.07C341.24 1206.14 841.38 1258.24 857.76 1168.25C868.7 1107.07 814.4 1101.22 814.4 1101.22C801.63 1093.22 578 1064.78 578 1064.78C578 1064.78 395.49 1054.58 373.65 1115.06V1115.07Z" fill="#243F6D"/>
<path d="M856.64 1179.32C849.88 1224.83 822.28 1484.49 822.28 1484.49C822.28 1484.49 754.88 1484.03 723.67 1484.49C723.3 1446.15 719.19 1419.62 723.67 1374.14C729.51 1313.87 738.26 1269.48 747.34 1237.73C750.03 1228.11 752.73 1219.61 755.38 1212.15C768.98 1173.64 781.24 1161.54 781.24 1161.54C814.03 1086.51 844.95 1149.56 854.15 1172.07C854.85 1173.81 855.43 1175.34 855.89 1176.5C856.64 1178.37 856.64 1179.32 856.64 1179.32Z" fill="#243F6D"/>
<path d="M399.535 573.04L375.885 705.28C375.885 705.39 375.895 705.5 375.895 705.61L345.665 758.13L382.045 873.15C383.355 929.25 382.005 972.66 374.465 1036.42C361.595 1040.16 349.025 1039.61 348.195 1038.22V1038.26L287.015 767.96C282.995 758.5 282.995 746.81 287.015 736.62L375.175 570.52C379.995 558.64 389.475 550.21 400.075 547.01C401.485 546.58 402.915 546.24 404.365 546L399.535 573.04Z" fill="#DADADA"/>
<path d="M385.3 1036.02C381.62 1038.08 377.64 1039.63 373.68 1040.77C381.22 977.01 382.57 933.6 381.26 877.5L417.01 990.51C425.01 1009.08 402.79 1025.82 385.3 1036.02Z" fill="#DADADA"/>
<path d="M701.11 1084.85C672.72 1104.13 604.57 1159.88 471.27 1159.88C337.97 1159.88 360.18 1137.29 360.18 1137.29C366.02 1099.56 370.43 1068.27 373.68 1040.77C377.64 1039.63 381.62 1038.08 385.3 1036.02C402.79 1025.82 425.01 1009.08 417.01 990.51L381.26 877.5C380.25 834.24 377.66 783.45 375.11 709.96C375.11 709.85 375.1 709.74 375.1 709.63L398.75 577.39L403.58 550.35L404.61 544.61L414.48 542.36L501.86 522.39L556.86 522.02L609.46 537.33L621.02 540.69L648.3 548.63C647.93 590.91 664.68 710.75 664.68 710.75C664.68 710.75 654.11 958.46 656.68 1032.41C657.76 1065.53 708.03 1080.13 701.11 1084.85Z" fill="#DADADA"/>
<path d="M385.3 1036.02C381.62 1038.08 377.64 1039.63 373.68 1040.77C381.22 977.01 382.57 933.6 381.26 877.5L417.01 990.51C425.01 1009.08 402.79 1025.82 385.3 1036.02Z" fill="#DADADA"/>
<path d="M585 438L571.756 532H475L488.244 438H585Z" fill="#F7ACAC"/>
<path d="M959.02 889.61C959.02 889.61 1006.03 906.73 1027.5 895.79C1048.97 884.85 1065.39 877.59 1056.27 859.73C1047.15 842.24 993.26 837.51 993.26 837.51C993.26 837.51 955 852.8 956.12 858.98C957.2 865.16 959.02 889.57 959.02 889.57V889.61Z" fill="#F7ACAC"/>
<path d="M877.07 893.59L767.43 863C757.61 859.35 609.71 705.65 609.71 705.65C600.96 686.33 594.79 630.62 602.04 600.74C606.39 582.87 653.4 536.61 662.14 555.93L812.23 810.57L963.4 827.69C981.97 834.61 979.44 862.3 974.67 881.62C970.65 899.11 929.16 899.82 877.05 893.64V893.6L877.07 893.59Z" fill="#DADADA"/>
<path d="M445.28 299.96C435.37 293.66 429.2 284.46 427.08 272.1C427.08 272.1 453.36 267.04 457.38 274.63C453.32 259.42 453.32 241.68 457.38 223.98C457.38 223.98 479.6 231.57 479.6 269.58C479.6 269.58 493.74 315.18 445.24 299.96H445.28Z" fill="#243F6D"/>
<path d="M499.62 476.46C540.57 502.37 553.34 509.21 616.06 506.51C649.01 494.12 661.49 433.6 646.4 373.16C643.29 275.42 628.95 266.75 552.64 269.99C476.33 273.22 462.94 318.9 466.01 416.65L499.67 476.47H499.63L499.62 476.46Z" fill="#F9BEB6"/>
<path d="M486.6 269.86C495.51 296.93 522.21 294.98 549.98 349.82C549.98 349.82 520.34 395.87 513.83 416.22C505 443.79 499.65 460.57 499.65 476.49C469.68 448.43 415.55 352.96 443.19 318.19L486.63 269.9L486.59 269.86H486.6Z" fill="#243F6D"/>
<path d="M477.03 287.19C483.91 303.77 497.13 335.4 536.3 342.2C547.82 337.14 559.89 347.38 585.92 352.02C591.93 353.06 598.69 353.84 606.4 354.05C611.17 354.17 616.27 354.09 621.78 353.72C684.66 349.57 687.23 286.86 671.81 260.49C668.66 255.14 658.54 253.07 650.71 251.37C616.84 244.12 509.24 206.23 480.84 284.32L477.03 287.14V287.18V287.19Z" fill="#243F6D"/>
<path d="M532.86 362.13C508.07 352.1 510.31 370.67 512.01 384.56C513.71 398.49 532.03 418.92 544.22 419.09C544.22 419.09 549.65 379.67 532.86 362.13Z" fill="#F9BEB6"/>
<path d="M547.37 423.48C557.28 417.14 567.1 415.02 564.78 358.9C551.27 314.17 533.73 353.51 533.73 353.51L547.37 423.48Z" fill="#243F6D"/>
<path d="M465.95 508L448 540.04C448 540.04 466.74 557.2 515.69 554.18C564.64 551.15 588.77 531.09 588.77 531.09L585.87 511.48C585.87 511.48 523.36 525.24 465.95 508.04V508Z" fill="#DADADA"/>
<path d="M1435.68 929.16V1476.4H1475.95V1117.84H1604.8V1476.4H1645.06V929.16H1435.68ZM1604.8 1068.65H1475.95V978.4H1604.8V1068.65Z" fill="#8E98AE"/>
<path d="M104 928.79V1477.79H144.38V1118.08H273.61V1477.79H313.99V928.79H104ZM144.38 1068.73V978.19H273.61V1068.73H144.38ZM273.61 1281.37V1477.79H313.99V1281.37H273.61Z" fill="#8E98AE"/>
<path d="M238.87 1212.81H799.69V1272.61H238.87V1212.81Z" fill="#556074"/>
<path d="M359 1273H583V1325H359V1273Z" fill="#8E98AE"/>
<path d="M486 1318.79H456V1477.79H486V1318.79Z" fill="#8E98AE"/>
<path d="M533.42 719.79H318.17C274.37 719.79 238.91 754.38 238.91 796.86V1220.77H612.79V796.86C612.79 754.29 577.25 719.79 533.53 719.79H533.41H533.42Z" fill="#556074"/>
<path d="M621.02 540.69L609.46 537.33C607.7 524 600.75 511.9 589.99 503.64C579.69 495.72 566.88 492.09 554.11 493.33C552.11 493.51 550.11 493.82 548.12 494.26L547.46 494.41L545.08 483.45L545.74 483.31C547.72 482.88 549.72 482.54 551.71 482.31C567.73 480.42 583.89 484.82 596.82 494.75C611.24 505.83 620.04 522.55 621.02 540.69Z" fill="#F1EEDB"/>
<path d="M465.39 495.06C462.16 495.76 459.59 497.81 458.07 500.48L440.26 504.36L443.46 519.04L461.34 515.15C463.82 516.89 466.97 517.66 470.16 516.97C476.21 515.65 480.05 509.68 478.73 503.63C477.41 497.58 471.44 493.74 465.39 495.06Z" fill="#485678"/>
<path d="M524.53 482.18C527.76 481.48 530.95 482.28 533.44 484.07L551.25 480.19L554.45 494.87L536.57 498.76C535.04 501.38 532.5 503.39 529.3 504.08C523.25 505.4 517.28 501.56 515.96 495.51C514.64 489.46 518.48 483.49 524.53 482.17V482.18Z" fill="#485678"/>
<path d="M621.02 540.69L609.46 537.33C607.7 524 600.75 511.9 589.99 503.64C579.69 495.72 566.88 492.09 554.11 493.33C552.11 493.51 550.11 493.82 548.12 494.26L547.46 494.41L545.08 483.45L545.74 483.31C547.72 482.88 549.72 482.54 551.71 482.31C567.73 480.42 583.89 484.82 596.82 494.75C611.24 505.83 620.04 522.55 621.02 540.69Z" fill="#F1EEDB"/>
<path d="M465.39 495.06C462.16 495.76 459.59 497.81 458.07 500.48L440.26 504.36L443.46 519.04L461.34 515.15C463.82 516.89 466.97 517.66 470.16 516.97C476.21 515.65 480.05 509.68 478.73 503.63C477.41 497.58 471.44 493.74 465.39 495.06Z" fill="#485678"/>
<path d="M524.53 482.18C527.76 481.48 530.95 482.28 533.44 484.07L551.25 480.19L554.45 494.87L536.57 498.76C535.04 501.38 532.5 503.39 529.3 504.08C523.25 505.4 517.28 501.56 515.96 495.51C514.64 489.46 518.48 483.49 524.53 482.17V482.18Z" fill="#485678"/>
<path d="M1149.43 1258.09H1137.55V1278.97H1149.43V1258.09Z" fill="#DCD9C8"/>
<path d="M1259.25 1258.09H1247.37V1278.97H1259.25V1258.09Z" fill="#DCD9C8"/>
<path d="M1340.43 1548.44H1054.94C1022.94 1548.44 997 1520.89 997 1486.9V1335.29C997 1301.3 1022.94 1273.75 1054.94 1273.75H1340.43C1372.43 1273.75 1398.37 1301.3 1398.37 1335.29V1486.9C1398.37 1520.89 1372.43 1548.44 1340.43 1548.44Z" fill="#8E98AE"/>
<path d="M1054.94 1531.16C1032.53 1531.16 1014.29 1511.31 1014.29 1486.9V1335.29C1014.29 1310.89 1032.53 1291.03 1054.94 1291.03H1340.42C1362.83 1291.03 1381.07 1310.88 1381.07 1335.29V1486.9C1381.07 1511.3 1362.83 1531.16 1340.42 1531.16H1054.94Z" fill="#DADADA"/>
<path d="M1197.69 1494.98C1244.02 1494.98 1281.57 1457.43 1281.57 1411.1C1281.57 1364.77 1244.02 1327.22 1197.69 1327.22C1151.36 1327.22 1113.81 1364.77 1113.81 1411.1C1113.81 1457.43 1151.36 1494.98 1197.69 1494.98Z" fill="#DF4937"/>
<path d="M1214 1355.76H1181.38V1466.43H1214V1355.76Z" fill="#F6F6F6"/>
<path d="M1253.02 1394.79H1142.35V1427.41H1253.02V1394.79Z" fill="#F6F6F6"/>
<path d="M1253.31 1267.66C1246.95 1267.66 1241.79 1262.5 1241.79 1256.14V1230.04C1241.79 1227.84 1239.99 1226.05 1237.8 1226.05H1158.73C1156.52 1226.05 1154.73 1227.84 1154.73 1230.04V1256.14C1154.73 1262.5 1149.57 1267.66 1143.21 1267.66C1136.85 1267.66 1131.69 1262.5 1131.69 1256.14V1230.04C1131.69 1215.13 1143.82 1203 1158.73 1203H1237.8C1252.71 1203 1264.84 1215.13 1264.84 1230.04V1256.14C1264.84 1262.5 1259.68 1267.66 1253.32 1267.66H1253.31Z" fill="#485678"/>
<path opacity="0.1" d="M1009.86 1525.52C1020.48 1539.49 1036.72 1548.44 1054.94 1548.44H1340.43C1372.43 1548.44 1398.37 1520.89 1398.37 1486.9V1335.29C1398.37 1330.1 1397.7 1325.09 1396.56 1320.28C1332.11 1494.77 1224.57 1534.14 1009.87 1525.51L1009.86 1525.52Z" fill="#1D1D1B"/>
</g>
<defs>
<clipPath id="clip0_27_128">
<rect width="1701.48" height="1484.49" fill="white"/>
</clipPath>
</defs>
</svg>
