<svg width="1639" height="908" viewBox="0 0 1639 908" fill="none" xmlns="http://www.w3.org/2000/svg">
<path d="M1536.7 21.7002V855.16C1536.7 866.9 1524.86 876.43 1510.24 876.43H212.02C197.4 876.43 185.56 866.9 185.56 855.16V21.7002C185.56 9.95017 197.4 0.430176 212.02 0.430176H1510.24C1524.86 0.430176 1536.7 9.95017 1536.7 21.7002Z" fill="#C6DBF6"/>
<path d="M1321.21 170.81H417.39C405.543 170.81 395.94 180.411 395.94 192.255C395.94 204.099 405.543 213.7 417.39 213.7H1321.21C1333.06 213.7 1342.66 204.099 1342.66 192.255C1342.66 180.411 1333.06 170.81 1321.21 170.81Z" fill="white"/>
<path d="M1321.21 272.94H417.39C405.543 272.94 395.94 282.541 395.94 294.385C395.94 306.229 405.543 315.83 417.39 315.83H1321.21C1333.06 315.83 1342.66 306.229 1342.66 294.385C1342.66 282.541 1333.06 272.94 1321.21 272.94Z" fill="white"/>
<path d="M1321.21 375.06H417.39C405.543 375.06 395.94 384.661 395.94 396.505C395.94 408.349 405.543 417.95 417.39 417.95H1321.21C1333.06 417.95 1342.66 408.349 1342.66 396.505C1342.66 384.661 1333.06 375.06 1321.21 375.06Z" fill="white"/>
<path d="M1321.21 477.19H417.39C405.543 477.19 395.94 486.791 395.94 498.635C395.94 510.479 405.543 520.08 417.39 520.08H1321.21C1333.06 520.08 1342.66 510.479 1342.66 498.635C1342.66 486.791 1333.06 477.19 1321.21 477.19Z" fill="white"/>
<path d="M1321.21 579.32H417.39C405.543 579.32 395.94 588.921 395.94 600.765C395.94 612.609 405.543 622.21 417.39 622.21H1321.21C1333.06 622.21 1342.66 612.609 1342.66 600.765C1342.66 588.921 1333.06 579.32 1321.21 579.32Z" fill="white"/>
<path d="M1339.59 673.4H435.77C423.924 673.4 414.32 683.001 414.32 694.845C414.32 706.689 423.924 716.29 435.77 716.29H1339.59C1351.44 716.29 1361.04 706.689 1361.04 694.845C1361.04 683.001 1351.44 673.4 1339.59 673.4Z" fill="white"/>
<path d="M1536.7 21.7002V98.2202H185.56V21.7002C185.56 9.95017 197.4 0.430176 212.02 0.430176H1510.24C1524.86 0.430176 1536.7 9.95017 1536.7 21.7002Z" fill="#A6B6DA"/>
<path d="M568.14 184H19.04C8.58524 184 0.109985 192.475 0.109985 202.93V638.43C0.109985 648.885 8.58524 657.36 19.04 657.36H568.14C578.595 657.36 587.07 648.885 587.07 638.43V202.93C587.07 192.475 578.595 184 568.14 184Z" fill="#4E658D"/>
<path d="M253.56 68.9898C264.042 68.9898 272.54 60.4921 272.54 50.0098C272.54 39.5274 264.042 31.0298 253.56 31.0298C243.078 31.0298 234.58 39.5274 234.58 50.0098C234.58 60.4921 243.078 68.9898 253.56 68.9898Z" fill="#F4769B"/>
<path d="M318.78 68.9898C329.262 68.9898 337.76 60.4921 337.76 50.0098C337.76 39.5274 329.262 31.0298 318.78 31.0298C308.298 31.0298 299.8 39.5274 299.8 50.0098C299.8 60.4921 308.298 68.9898 318.78 68.9898Z" fill="#32B1C0"/>
<path d="M387.17 68.9898C397.652 68.9898 406.15 60.4921 406.15 50.0098C406.15 39.5274 397.652 31.0298 387.17 31.0298C376.688 31.0298 368.19 39.5274 368.19 50.0098C368.19 60.4921 376.688 68.9898 387.17 68.9898Z" fill="#FFC04E"/>
<path d="M1057 319.18C954.87 417.67 954.87 582.47 1056.99 680.97C1142.45 763.4 1271.91 773.37 1368.03 710.92C1368.2 710.81 1368.43 710.83 1368.58 710.98L1549.81 892.21C1570.15 912.55 1603.13 912.55 1623.47 892.21C1643.81 871.87 1643.81 838.89 1623.47 818.55L1442.24 637.32C1442.09 637.17 1442.07 636.95 1442.18 636.77C1505.44 539.4 1494.39 407.83 1408.99 322.43C1311.97 225.41 1155.35 224.33 1057 319.18ZM1362.99 605.31C1295.01 689.68 1167.66 689.68 1099.68 605.31C1053.38 547.84 1053.38 452.32 1099.68 394.85C1167.66 310.48 1295.01 310.48 1362.99 394.85C1409.29 452.32 1409.29 547.84 1362.99 605.31Z" fill="#4E658D"/>
<path d="M1409.04 500.26C1409.04 602.21 1326.39 684.85 1224.44 684.85C1156.91 684.85 1097.84 648.59 1065.67 594.47C1049.27 566.89 1039.85 534.68 1039.85 500.26C1039.85 458.56 1053.67 420.09 1076.99 389.19C1110.68 344.53 1164.19 315.66 1224.44 315.66C1326.39 315.66 1409.04 398.31 1409.04 500.26Z" fill="#C6DBF6"/>
<path d="M1346.3 491.83C1346.3 520.18 1334.81 545.84 1316.24 564.41C1297.66 582.98 1272 594.47 1243.66 594.47H1065.67C1049.27 566.89 1039.85 534.68 1039.85 500.26C1039.85 458.56 1053.67 420.09 1076.99 389.19H1243.66C1300.35 389.19 1346.3 435.15 1346.3 491.83Z" fill="#F4769B"/>
<path d="M1229.54 512.38C1229.54 508.54 1228.19 505.3 1225.5 502.66C1222.81 500.02 1218.26 497.65 1211.87 495.51C1202.97 492.79 1196.48 489.25 1192.41 484.89C1188.34 480.52 1186.3 474.98 1186.3 468.25C1186.3 461.52 1188.3 455.78 1192.29 451.39C1196.28 447 1201.77 444.39 1208.75 443.55V429.82H1218.09V443.61C1225.11 444.57 1230.57 447.52 1234.48 452.45C1238.39 457.38 1240.34 464.13 1240.34 472.7H1228.81C1228.81 466.79 1227.41 462.09 1224.61 458.61C1221.81 455.13 1218.03 453.39 1213.26 453.39C1208.49 453.39 1204.48 454.68 1201.85 457.25C1199.22 459.83 1197.9 463.42 1197.9 468.02C1197.9 472.29 1199.29 475.69 1202.07 478.23C1204.85 480.76 1209.42 483.07 1215.8 485.14C1222.17 487.21 1227.15 489.49 1230.72 491.98C1234.29 494.47 1236.93 497.36 1238.62 500.66C1240.31 503.96 1241.16 507.83 1241.16 512.26C1241.16 519.32 1239.04 525.01 1234.8 529.31C1230.56 533.61 1224.61 536.16 1216.97 536.96V548.93H1207.69V536.96C1199.92 536.25 1193.83 533.48 1189.42 528.65C1185.01 523.82 1182.81 517.27 1182.81 509H1194.41C1194.41 514.81 1195.94 519.28 1198.99 522.41C1202.04 525.54 1206.37 527.11 1211.97 527.11C1217.57 527.11 1221.75 525.79 1224.88 523.16C1228.01 520.53 1229.58 516.93 1229.58 512.38H1229.54Z" fill="white"/>
<path d="M177.7 302.47H91.45C87.6282 302.47 84.53 305.568 84.53 309.39V395.64C84.53 399.462 87.6282 402.56 91.45 402.56H177.7C181.522 402.56 184.62 399.462 184.62 395.64V309.39C184.62 305.568 181.522 302.47 177.7 302.47Z" fill="#83AFF6"/>
<path d="M337.02 302.47H250.77C246.948 302.47 243.85 305.568 243.85 309.39V395.64C243.85 399.462 246.948 402.56 250.77 402.56H337.02C340.842 402.56 343.94 399.462 343.94 395.64V309.39C343.94 305.568 340.842 302.47 337.02 302.47Z" fill="#E8EAEF"/>
<path d="M496.34 302.47H410.09C406.268 302.47 403.17 305.568 403.17 309.39V395.64C403.17 399.462 406.268 402.56 410.09 402.56H496.34C500.162 402.56 503.26 399.462 503.26 395.64V309.39C503.26 305.568 500.162 302.47 496.34 302.47Z" fill="#32B1C0"/>
<path d="M177.7 441.36H91.45C87.6282 441.36 84.53 444.458 84.53 448.28V534.53C84.53 538.352 87.6282 541.45 91.45 541.45H177.7C181.522 541.45 184.62 538.352 184.62 534.53V448.28C184.62 444.458 181.522 441.36 177.7 441.36Z" fill="#F4769B"/>
<path d="M337.02 441.36H250.77C246.948 441.36 243.85 444.458 243.85 448.28V534.53C243.85 538.352 246.948 541.45 250.77 541.45H337.02C340.842 541.45 343.94 538.352 343.94 534.53V448.28C343.94 444.458 340.842 441.36 337.02 441.36Z" fill="#C5C7D0"/>
<path d="M496.34 441.36H410.09C406.268 441.36 403.17 444.458 403.17 448.28V534.53C403.17 538.352 406.268 541.45 410.09 541.45H496.34C500.162 541.45 503.26 538.352 503.26 534.53V448.28C503.26 444.458 500.162 441.36 496.34 441.36Z" fill="#FFC04E"/>
</svg>
